<?xml version="1.0" encoding="utf-8"?>
<!-- Generator: Adobe Illustrator 23.0.2, SVG Export Plug-In . SVG Version: 6.00 Build 0)  -->
<svg version="1.1" id="Layer_1" xmlns="http://www.w3.org/2000/svg" xmlns:xlink="http://www.w3.org/1999/xlink" x="0px" y="0px"
	 viewBox="0 0 734.2 129.8" style="enable-background:new 0 0 734.2 129.8;" xml:space="preserve">
<style type="text/css">
	.st0{fill:#FFFFFF;}
	.st1{fill:#FFB81C;}
</style>
<rect x="132.3" y="0" class="st0" width="3.1" height="129.8"/>
<g>
	<path class="st0" d="M175.1,87.3c0,6.4-0.4,8.3,12.2,8.3c11.8,0,15-7.8,15-13.2c0-5.7-0.4-17.1-20.8-17.1c-6.9,0-6.4,1.2-6.4,2
		V87.3z M175.1,59.3c0,2.8-1.1,3.3,6.9,3.3c14.6,0,15.3-5.4,15.3-9.6c0-9.6-8.1-15-17.1-15c-5.6,0-5.2,1.5-5.2,6.7V59.3z
		 M168.1,43.9c0-6.8-7.9-5.9-7.9-7.7c0-1.3,1.3-1.2,2.4-1.2c1.8,0,3.6,0.4,7.1,0.4c3.6,0,7.1-0.4,14.2-0.4
		c15.7,0,19.6,8.5,19.6,15.1c0,9.1-8.4,12-8.4,12.6c0,1.3,14,1.6,14,16.4c0,5.9-4.3,18.9-21.6,18.9c-3.2,0-8.5-0.4-11.6-0.4
		c-4.1,0-8.3,0.4-12.4,0.4c-0.4,0-2.2-0.2-2.2-1c0-0.9,1.1-1.2,2.7-1.7c1-0.3,4.1-0.7,4.1-7.6V43.9z"/>
	<path class="st0" d="M236.2,78.5c-5.7,1.2-16.5,2.7-16.5,10.5c0,5.1,2.6,7,7.3,7c3.2,0,9.3-2.5,9.3-7.2V78.5z M236.2,69.5
		c0-4.6-3.6-7.7-9.2-7.7c-4.3,0-7.7,0.4-7.7,5.3c0,1.3,0.5,2.7,0.5,3.6c0,1-0.3,1.7-2,1.7c-1.5,0-4.2-1.3-4.2-2.9
		c0.1-4.1,5.1-10.3,14.9-10.1c5.5,0,14.1,1.6,14.1,9.2v18.4c0,3-0.8,8.3,3.8,8.3c0.4,0,1.2-0.2,1.5-0.2c0.4,0,1.2,0,1.2,0.6
		c0,1.9-3.9,2.2-5.2,2.2c-3.5,0-5.8-1.6-6.9-4.5c-3.7,3.2-8.6,5.2-13.6,5.2c-5.8,0-9.6-2.1-9.6-8.5c0-4.7,1.5-10.3,22.3-13.8V69.5z"
		/>
	<path class="st0" d="M261.3,115.5c-0.1,0.3-1.7,0.3-2.9,0.3c-1.2,0-3.3,0.1-3.3-0.6c0-2,8.1-8.6,8.1-15.6c0-2.1-1-4.1-1.8-6
		l-11.7-28.7c-0.8-2-4.2-2-4.2-3.3c0-0.9,0.5-1.1,1.8-1.1c1.9,0,3.8,0.4,6.2,0.4c3.1,0,5.2-0.4,6.6-0.4c1.3,0,1.9,0.2,1.9,1.2
		c0,1.9-5.1,0.1-5.1,3.6c0,1.4,0.8,2.8,0.6,2l-0.2,0.2l9.5,24.2l6.9-20.1c1.1-3.2,1.1-4,1.1-4.6c0-4.8-5.7-3.5-5.7-5.4
		c0-0.9,1.1-1,2.7-1c1.1,0,2.5,0.4,5,0.4c2,0,3.6-0.4,4.5-0.4c1.1,0,1.7,0.4,1.7,1.1c0,2-3-0.2-4.8,5.2L261.3,115.5z"/>
	<path class="st0" d="M294.7,90.8c0,6.1,7.4,3.6,7.4,6c0,1.1-0.7,1.2-2,1.2c-1.2,0-4-0.4-8.2-0.4c-4.4,0-6.1,0.4-6.9,0.4
		c-0.7,0-1.1-0.4-1.1-1.2c0-1.3,4.4-1.1,4.4-4.9V41.7c0-5.3-6.1-3-6.1-4.9c0-0.5,0.4-0.9,0.8-1c6.9-1.6,8.6-4.4,10.7-4.4
		c0.5,0,1.1,0.5,1.1,1.4V90.8z"/>
	<path class="st0" d="M335.4,80.7c0-9.2-3.8-19.2-14.4-19.2c-8.7,0-12.3,7.7-12.3,15.2c0,8.7,4.1,20.1,14.5,20.1
		C330.7,96.8,335.4,91.7,335.4,80.7 M302.5,79.8c0-10.9,8.6-20.3,19.8-20.3c6.8,0,19.3,3.3,19.3,19.8c0,10.9-8.3,19.3-19.2,19.3
		C310.8,98.6,302.5,91.8,302.5,79.8"/>
	<path class="st0" d="M355.5,90.2c0,8.3,7.9,4,7.9,6.9c0,0.8-0.4,1-1.4,1c-1.2,0-3.4-0.4-8.4-0.4c-6,0-7.6,0.4-8.2,0.4
		c-0.7,0-1-0.3-1-0.8c0-1.9,4.5-1.5,4.5-5.2v-23c0-5.3-6.4-3-6.4-4.9c0-0.5,0.7-0.9,1.2-1c6.9-1.6,8.6-4.4,10.7-4.4
		c0.5,0,1.1,0.5,1.1,1.4v6.7h0.2c1.9-2.6,5.1-7.4,8.8-7.4c1.9,0,5.9,2.3,5.9,4c0,1.3-2.1,4-3.2,4c-1.7,0-2.7-2-5.9-2
		c-3.6,0-5.8,4.1-5.8,5.3V90.2z"/>
	<path class="st0" d="M397.4,74.3c0,14.2,9.3,20.7,21.3,20.7c16.7,0,20.6-11,20.6-21.5V44.6c0-9.1-8.3-5.3-8.3-8.7
		c0-0.4,0.6-0.9,0.9-0.9c3.5,0,6.9,0.4,10.4,0.4c1.7,0,3.3-0.4,4.9-0.4c0.4,0,1.2,0.4,1.2,1c0,2.5-5.2,0.5-5.2,8.7v27.6
		c0,4.4,1.1,26.3-24.8,26.3c-23.4,0-27.9-13.1-27.9-26.8v-30c0-5.2-7.2-3.1-7.2-6c0-0.6,1.5-0.9,2-0.9c2.3,0,4.5,0.4,6.9,0.4
		c2.8,0,5.7-0.4,8.5-0.4c0.4,0,2.8-0.2,2.8,0.9c0,2.5-6,0-6,6.4V74.3z"/>
	<path class="st0" d="M461.1,90.8c0,6.1,7.8,3.6,7.8,6c0,1.1-0.6,1.2-2,1.2c-1.5,0-3.3-0.4-8.5-0.4c-4.7,0-6.5,0.4-7.6,0.4
		c-1.2,0-1.6-0.2-1.6-1.1c0-1.8,5.3,0,5.3-5.8V69.1c0-5.3-6.6-3-6.6-4.9c0-0.5,0.4-0.9,0.8-1c7.4-1.6,9.2-4.4,11.2-4.4
		c0.5,0,1.1,0.5,1.1,1.4v5.9c-0.2,1.1,4.3-6.6,12.9-6.6c11.9,0,14.5,9.9,14.5,16.6v14.7c0,6.1,6.9,3.6,6.9,6c0,1.1-0.6,1.2-1.5,1.2
		c-1.2,0-3.4-0.4-7.7-0.4c-3.4,0-5.3,0.4-6.4,0.4c-1.2,0-1.6-0.2-1.6-1.1c0-1.8,3.8,0,3.8-5.8V74.5c0-4.4-3.2-11.1-10.4-11.1
		c-7.5,0-10.6,5.5-10.5,6.9V90.8z"/>
	<path class="st0" d="M509,45.9c0,1.1-2.6,4.6-3.7,4.6c-1.1,0-3.7-3.6-3.7-4.6c0-1,2.7-4.7,3.7-4.7C506.4,41.2,509,44.8,509,45.9
		 M502.1,69.1c0-5.3-4.9-3-4.9-4.9c0-0.5,0.4-0.9,0.8-1c5.7-1.6,7.5-4.4,9.5-4.4c0.5,0,1.1,0.5,1.1,1.4v31.9c0,4.5,7,2.6,7,4.9
		c0,0.7-0.5,1-1.7,1c-1.9,0-4.6-0.4-8.3-0.4c-2.9,0-5.2,0.4-6.1,0.4c-0.7,0-1.2-0.1-1.3-1c0-2.2,3.9,1.2,3.9-6.9V69.1z"/>
	<path class="st0" d="M536.6,90.5l6-12.8c1.7-3.6,3.9-7.3,3.9-11.3c0-5-5.5-2.5-5.5-4.7c0-1.1,1-1.2,2.1-1.2c1.9,0,3.6,0.4,5.5,0.4
		c1.5,0,3.1-0.4,4.6-0.4c0.9,0,2.4,0.1,2.4,1.3c0,1.2-3.2,0.6-4.4,3.3l-13.6,28.8c-1.7,3.6-1.7,4.7-3,4.7c-1.2,0-1.5-1.5-1.8-2.1
		l-13.4-30.7c-1.7-4-4.9-2.7-4.9-4.3c0-0.6,0.1-1.1,1.9-1.1c1.7,0,1.7,0.4,7.6,0.4c3.3,0,4.4-0.4,5.5-0.4c1.2,0,2,0,2,1
		c0,1.8-5.1,0.6-5.1,3.3c0,0.3,0.4,1.7,1.5,4.4L536.6,90.5z"/>
	<path class="st0" d="M579.5,72.8c1.2,0,1.8-0.4,1.8-1.8c0-5-5-9.4-9.9-9.4c-5.5,0-9.4,6.3-9.4,11.2H579.5z M562,75.2
		c0,14.7,8.9,19,14.3,19c7.6,0,10.6-4.6,12.5-4.6c0.4,0,0.4,0.4,0.4,0.6c0,2-7.7,8.5-15.7,8.5c-13.3,0-18-12.4-18-18.2
		c0-11.4,6.3-20.9,17.4-20.9c10.9,0,15.8,10.6,15.8,14.2c0,1.6-1,1.5-3,1.5H562z"/>
	<path class="st0" d="M603.2,90.2c0,8.3,7.9,4,7.9,6.9c0,0.8-0.4,1-1.4,1c-1.2,0-3.4-0.4-8.4-0.4c-6,0-7.6,0.4-8.2,0.4
		c-0.7,0-1-0.3-1-0.8c0-1.9,4.5-1.5,4.5-5.2v-23c0-5.3-6.4-3-6.4-4.9c0-0.5,0.7-0.9,1.2-1c6.9-1.6,8.6-4.4,10.7-4.4
		c0.5,0,1.1,0.5,1.1,1.4v6.7h0.2c1.9-2.6,5.1-7.4,8.8-7.4c1.9,0,5.9,2.3,5.9,4c0,1.3-2.1,4-3.2,4c-1.7,0-2.7-2-5.9-2
		c-3.6,0-5.8,4.1-5.8,5.3V90.2z"/>
	<path class="st0" d="M622.1,70.2c0-7.1,5.5-10.7,12-10.7c1.5,0,7.6,0.7,8.7,2c0.5,0.7,0.4,3.7,0.4,4.4c0,2.4,0.4,3.5-1,3.5
		c-0.9,0-1.7-7.7-9.8-7.7c-3.5,0-6.2,2-6.2,5.7c0,2.9,2.3,4.8,11.7,8.5c5.1,2.1,7.4,4.9,7.4,10.6c0,6.7-5.4,12.2-12,12.2
		c-6.2,0-7.8-2.6-10-2.6c-2,0-2-0.1-2-7.1c0-1.5-0.3-4.4,1.1-4.4c2,0,1,11.7,10.6,11.7c4.4,0,7.9-2.7,7.9-7.3c0-4.7-4.5-6.1-8.1-7.8
		C628.1,78.8,622.1,76.5,622.1,70.2"/>
	<path class="st0" d="M662.5,45.9c0,1.1-2.6,4.6-3.7,4.6c-1.1,0-3.7-3.6-3.7-4.6c0-1,2.7-4.7,3.7-4.7
		C659.9,41.2,662.5,44.8,662.5,45.9 M655.6,69.1c0-5.3-4.9-3-4.9-4.9c0-0.5,0.4-0.9,0.8-1c5.7-1.6,7.5-4.4,9.5-4.4
		c0.5,0,1.1,0.5,1.1,1.4v31.9c0,4.5,7,2.6,7,4.9c0,0.7-0.5,1-1.7,1c-1.9,0-4.6-0.4-8.3-0.4c-2.8,0-5.2,0.4-6.1,0.4
		c-0.7,0-1.3-0.1-1.3-1c0-2.2,3.9,1.2,3.9-6.9V69.1z"/>
	<path class="st0" d="M674.9,64.3c-4.2,0-4.8,0-4.8-0.6c0-0.7,2.2-2.2,6.8-7.2c1.8-2.1,2.7-4.1,3.4-4.1c1.2,0,1.2,1.9,1.2,8.3h9.8
		c2.2,0,3.2-1.5,3.5-1.5c0.4,0,0.6,0.4,0.6,0.7c0,0.4-0.3,0.8-0.5,1.2l-1.8,3.2h-11.6v25.9c0.2,3.6,2.7,5.3,6.2,5.3c4.7,0,6-2,7.6-2
		c0.4,0,0.7,0.1,0.7,0.8c0,1.3-4.8,4.4-11,4.4c-4.1,0-10-1.2-10-10.3V64.3z"/>
	<path class="st0" d="M712.5,115.5c-0.1,0.3-1.7,0.3-2.9,0.3c-1.2,0-3.3,0.1-3.3-0.6c0-2,8.1-8.6,8.1-15.6c0-2.1-1-4.1-1.8-6
		l-11.7-28.7c-0.8-2-4.2-2-4.2-3.3c0-0.9,0.5-1.1,1.8-1.1c1.9,0,3.8,0.4,6.2,0.4c3.1,0,5.2-0.4,6.6-0.4c1.3,0,1.9,0.2,1.9,1.2
		c0,1.9-5.1,0.1-5.1,3.6c0,1.4,0.8,2.8,0.6,2l-0.2,0.2l9.5,24.2l6.8-20.1c1.1-3.2,1.1-4,1.1-4.6c0-4.8-5.7-3.5-5.7-5.4
		c0-0.9,1.1-1,2.7-1c1.1,0,2.5,0.4,5,0.4c2,0,3.6-0.4,4.5-0.4c1.1,0,1.7,0.4,1.7,1.1c0,2-3-0.2-4.8,5.2L712.5,115.5z"/>
</g>
<g>
	<path class="st1" d="M21.2,73.2V46.5h32.7c1.1,0,1.5,0.1,1.9,0.6l2.9,3c0.5,0.5,0.6,0.9,0.6,2v15.5c0,1.1-0.1,1.5-0.6,2l-2.9,3
		c-0.5,0.5-0.8,0.6-1.8,0.6L21.2,73.2z M53.9,14.6c1.1,0,1.5,0.1,1.9,0.6l2.9,3c0.5,0.5,0.6,0.9,0.6,2v6.2c0,1.1-0.1,1.5-0.6,2
		l-2.9,3c-0.5,0.5-0.9,0.6-1.9,0.6H21.2V17.9L14,14.6H53.9z M105.9,67.1V52.6H79.5v14.6h6v42.5c0,1.1-0.1,1.5-0.6,2l-2.9,3
		c-0.5,0.5-0.9,0.6-1.9,0.6H52.9c-1.1,0-1.5-0.1-1.9-0.6l-2.9-3c-0.5-0.5-0.6-0.9-0.6-2V87.7h6.5c4.4,0,7.3,0,10.7-3.5l5.7-5.8
		c3.4-3.5,3.4-6.4,3.4-10.7V51.9c0-4.4,0-7.2-3.4-10.7l-2-2l2-2c3.4-3.5,3.4-6.4,3.4-10.7V20c0-4.4,0-7.2-3.4-10.7l-5.7-5.8
		C61.2,0,58.3,0,53.9,0H0v14.6h6.9v58.6H0v14.6h33.1v21.9c0,4.5,0,7.4,3.4,10.9l5.7,5.8c3.4,3.5,6.2,3.5,10.4,3.5h27.7
		c4.2,0,7,0,10.4-3.5l5.7-5.8c3.4-3.5,3.4-6.4,3.4-10.9V70.4l-7.1-3.3H105.9z"/>
	<polygon class="st1" points="47.4,70.9 47.4,67.1 53.5,67.1 53.5,52.6 27.1,52.6 27.1,67.1 33.1,67.1 33.1,70.9 	"/>
</g>
</svg>
