<svg width="24" height="24" viewBox="0 0 24 24" fill="none" xmlns="http://www.w3.org/2000/svg">
<path d="M17.2514 8.40096C17.2514 6.96854 16.6981 5.59478 15.7134 4.5819C14.7286 3.56903 13.3931 3 12.0004 3C10.6078 3 9.27219 3.56903 8.28745 4.5819C7.30271 5.59478 6.74949 6.96854 6.74949 8.40096C6.74949 14.7021 4.12402 16.5024 4.12402 16.5024H19.8768C19.8768 16.5024 17.2514 14.7021 17.2514 8.40096Z" stroke="#084892" stroke-width="2" stroke-linecap="round" stroke-linejoin="round"/>
<path d="M13.5144 20.1025C13.3605 20.3754 13.1397 20.6018 12.8739 20.7592C12.6082 20.9166 12.307 20.9995 12.0003 20.9995C11.6937 20.9995 11.3925 20.9166 11.1267 20.7592C10.861 20.6018 10.6402 20.3754 10.4863 20.1025" stroke="#084892" stroke-width="2" stroke-linecap="round" stroke-linejoin="round"/>
</svg>
