<svg width="64" height="30" viewBox="0 0 64 30" fill="none" xmlns="http://www.w3.org/2000/svg">
<path d="M8.48595 25C6.72507 25 5.22645 24.713 3.99008 24.1389C2.77245 23.5463 1.82645 22.6944 1.15207 21.5833C0.477686 20.4537 0.10303 19.0833 0.0280993 17.4722C0.00936645 16.713 0 15.8981 0 15.0278C0 14.1574 0.00936645 13.3241 0.0280993 12.5278C0.10303 10.9352 0.477686 9.58333 1.15207 8.47222C1.84518 7.34259 2.80992 6.48148 4.04628 5.88889C5.28265 5.2963 6.76254 5 8.48595 5C9.74105 5 10.8837 5.15741 11.914 5.47222C12.9444 5.78704 13.8342 6.24074 14.5835 6.83333C15.3328 7.42593 15.9135 8.12037 16.3256 8.91667C16.7377 9.71296 16.9625 10.6019 17 11.5833C17 11.75 16.9344 11.8889 16.8033 12C16.6909 12.1111 16.5504 12.1667 16.3818 12.1667H13.1785C12.9537 12.1667 12.7758 12.1111 12.6446 12C12.5135 11.8889 12.4105 11.7037 12.3355 11.4444C12.0545 10.3519 11.5862 9.60185 10.9306 9.19445C10.2749 8.78704 9.46006 8.58333 8.48595 8.58333C7.32452 8.58333 6.40661 8.89815 5.73223 9.52778C5.05785 10.1574 4.69256 11.2037 4.63636 12.6667C4.58017 14.1852 4.58017 15.7407 4.63636 17.3333C4.69256 18.7963 5.05785 19.8426 5.73223 20.4722C6.40661 21.1019 7.32452 21.4167 8.48595 21.4167C9.46006 21.4167 10.2749 21.213 10.9306 20.8056C11.605 20.3796 12.0733 19.6296 12.3355 18.5556C12.4105 18.2778 12.5135 18.0926 12.6446 18C12.7758 17.8889 12.9537 17.8333 13.1785 17.8333H16.3818C16.5504 17.8333 16.6909 17.8889 16.8033 18C16.9344 18.1111 17 18.25 17 18.4167C16.9625 19.3981 16.7377 20.287 16.3256 21.0833C15.9135 21.8796 15.3328 22.5741 14.5835 23.1667C13.8342 23.7593 12.9444 24.213 11.914 24.5278C10.8837 24.8426 9.74105 25 8.48595 25Z" fill="#2E68BF"/>
<path d="M49 24.2857V5.71429V5H49.7339H63.0313H63.7652V5.71429V8V8.68571H63.0313H53.5205V13.1714H62.3855H63.1194V13.8857V16V16.6857H62.3855H53.5205V21.3143H63.2661H64V22.0286V24.2857V25H63.2661H49.7339H49V24.2857Z" fill="#2E68BF"/>
<circle cx="33" cy="15" r="15" fill="#F8AF2C"/>
<path d="M25.6535 25.1147C25.436 25.1147 25.2581 25.0455 25.1197 24.9071C24.9813 24.7687 24.9121 24.5908 24.9121 24.3733V22.594C24.9121 22.4358 24.9516 22.2282 25.0307 21.9712C25.1296 21.6944 25.3372 21.4275 25.6535 21.1705L29.568 17.2856C31.0112 16.1785 32.1777 15.2394 33.0674 14.4684C33.9768 13.6973 34.649 12.9955 35.0839 12.3628C35.5189 11.7302 35.7363 11.1173 35.7363 10.5242C35.7363 9.75315 35.5189 9.1205 35.0839 8.62625C34.6687 8.11222 33.9867 7.85521 33.0377 7.85521C32.405 7.85521 31.8713 7.9936 31.4363 8.27038C31.0211 8.5274 30.6949 8.87338 30.4577 9.30832C30.2204 9.74327 30.0623 10.2178 29.9832 10.7318C29.9239 10.9888 29.7954 11.1667 29.5977 11.2656C29.4197 11.3644 29.2319 11.4139 29.0342 11.4139H25.8907C25.693 11.4139 25.5349 11.3545 25.4163 11.2359C25.2976 11.0975 25.2383 10.9493 25.2383 10.7911C25.2581 9.88166 25.4459 9.02165 25.8018 8.21107C26.1774 7.40049 26.7013 6.67887 27.3735 6.04623C28.0457 5.41358 28.8563 4.91932 29.8053 4.56345C30.7542 4.18782 31.8317 4 33.0377 4C34.6984 4 36.0922 4.27678 37.2191 4.83035C38.346 5.36415 39.1961 6.10554 39.7695 7.05451C40.3428 8.00348 40.6295 9.10073 40.6295 10.3463C40.6295 11.2952 40.4318 12.175 40.0364 12.9856C39.6607 13.7962 39.1072 14.5771 38.3757 15.3284C37.6442 16.0599 36.7743 16.821 35.766 17.6118L32.2667 21.1112H40.3329C40.5504 21.1112 40.7283 21.1804 40.8667 21.3188C41.0051 21.4572 41.0743 21.6351 41.0743 21.8526V24.3733C41.0743 24.5908 41.0051 24.7687 40.8667 24.9071C40.7283 25.0455 40.5504 25.1147 40.3329 25.1147H25.6535Z" fill="white"/>
<path d="M25.2363 10.7402H29.9667V11.4142H25.2363V10.7402Z" fill="white"/>
<path d="M24.9121 24.2197H25.5861L25.7335 25.1122H24.9121V24.2197Z" fill="white"/>
<path d="M40.4141 21.1182H41.088V25.1094H40.4141V21.1182Z" fill="white"/>
</svg>
