<svg width="14" height="14" viewBox="0 0 14 14" fill="none" xmlns="http://www.w3.org/2000/svg">
<path d="M6.36842 2.26562H2.19374C1.8774 2.26563 1.57402 2.39129 1.35033 2.61498C1.12664 2.83867 1.00098 3.14205 1.00098 3.45839V11.8078C1.00098 12.1241 1.12664 12.4275 1.35033 12.6512C1.57402 12.8749 1.8774 13.0005 2.19374 13.0005H10.5431C10.8594 13.0005 11.1628 12.8749 11.3865 12.6512C11.6102 12.4275 11.7359 12.1241 11.7359 11.8078V7.63307" stroke="#515151" stroke-width="1.5" stroke-linecap="round" stroke-linejoin="round"/>
<path d="M10.8404 1.37054C11.0776 1.13329 11.3994 1 11.735 1C12.0705 1 12.3923 1.13329 12.6295 1.37054C12.8668 1.6078 13.0001 1.92959 13.0001 2.26512C13.0001 2.60065 12.8668 2.92244 12.6295 3.15969L6.9639 8.82533L4.57837 9.42172L5.17475 7.03618L10.8404 1.37054Z" stroke="#515151" stroke-width="1.5" stroke-linecap="round" stroke-linejoin="round"/>
</svg>
