<svg width="89" height="40" viewBox="0 0 89 40" fill="none" xmlns="http://www.w3.org/2000/svg">
<g clip-path="url(#clip0_6849:26634)">
<g clip-path="url(#clip1_6849:26634)">
<path d="M89.0004 11.9783V14.759H85.1367V11.9783H89.0004ZM89.0004 15.6145V30.4794H85.1367V15.6145H87.0589H89.0004Z" fill="#515151"/>
<path d="M72.7998 24.8973V30.4805H68.8962L68.8496 11.9783H72.9422L72.8009 21.7625L78.1639 15.6016H82.3599L77.0799 21.4044L82.7622 30.4805H78.4973L74.4825 23.7418L72.7998 24.8973Z" fill="#515151"/>
<path d="M66.5023 11.9783V14.759H62.6387V11.9783H66.5023ZM66.5023 15.6326V30.4794H62.6387V15.6326H66.5023Z" fill="#515151"/>
<path d="M43.5354 23.1598V30.4805H39.578V19.0652C39.578 18.2476 39.5661 17.5649 39.5424 17.0178C39.5186 16.4707 39.491 16.0376 39.4629 15.6146H43.2108C43.2291 15.6968 43.2777 15.8295 43.296 16.1149C43.3144 16.4002 43.3337 16.7197 43.3521 17.0733C43.3704 17.427 43.3877 17.7604 43.4017 18.0725C43.4158 18.3855 43.4232 18.6099 43.4232 18.7477H43.4794C43.8547 17.7188 44.1977 16.9783 44.5073 16.5284C44.8072 16.0967 45.1642 15.7794 45.5773 15.5773C45.9905 15.3754 46.5071 15.2739 47.1263 15.2739C47.6332 15.2739 48.042 15.3423 48.3516 15.4801V18.72C47.7228 18.5822 47.1587 18.5137 46.6614 18.5137C45.6755 18.5137 44.9075 18.9049 44.3585 19.686C43.8105 20.4671 43.5354 21.6254 43.5354 23.1598Z" fill="#515151"/>
<path d="M11.104 27.3124C13.6498 27.3124 15.4118 26.0999 16.3914 23.676L20.0536 24.9922C19.2646 26.8379 18.1084 28.2104 16.584 29.1106C15.0596 30.0107 13.2323 30.4603 11.1051 30.4603C8.95765 30.4603 7.1292 30.0691 5.61871 29.2867C4.1082 28.5043 2.95633 27.3707 2.16308 25.8869C1.36982 24.4032 0.972656 22.6212 0.972656 20.5399C0.972656 18.4412 1.35269 16.6679 2.11276 15.2209C2.87283 13.774 3.99366 12.6717 5.47632 11.9163C6.95792 11.1609 8.77245 10.7827 10.9199 10.7827C13.2761 10.7827 15.1956 11.2333 16.6771 12.1335C18.1598 13.0337 19.1993 14.3564 19.7977 16.1028L16.0927 17.0667C15.779 16.1081 15.1634 15.3452 14.2471 14.78C13.3296 14.2148 12.2495 13.9317 11.0055 13.9317C9.10539 13.9317 7.66339 14.4926 6.68066 15.6143C5.69792 16.736 5.20549 18.3786 5.20549 20.5399C5.20549 22.0052 5.43136 23.2405 5.88205 24.2444C6.33273 25.2483 6.9986 26.0112 7.87749 26.531C8.75533 27.053 9.83119 27.3124 11.104 27.3124Z" fill="#515151"/>
<path d="M55.2587 23.1696V30.4807H51.3013V19.0803C51.3013 18.2638 51.2894 17.5819 51.2657 17.0355C51.2419 16.4891 51.2214 16.0373 51.1934 15.6148H54.9687C54.987 15.6969 55.001 15.8489 55.0194 16.1338C55.0377 16.4187 55.0571 16.7378 55.0754 17.091C55.0937 17.4443 55.111 17.7772 55.1251 18.0888C55.1391 18.4015 55.1467 18.6256 55.1467 18.7633H55.2027C55.578 17.7356 55.921 16.996 56.2307 16.5467C56.5305 16.1156 56.8875 15.7987 57.3007 15.597C57.7138 15.3953 58.2305 15.2939 58.8496 15.2939C59.3565 15.2939 59.7653 15.3622 60.0749 15.4999V18.7356C59.4461 18.5978 58.882 18.5296 58.3847 18.5296C57.3988 18.5296 56.6308 18.9202 56.0818 19.7003C55.5328 20.4803 55.2587 21.6371 55.2587 23.1696Z" fill="#515151"/>
<path d="M36.481 26.9424V17.5396C35.3787 18.5696 34.0369 19.1774 32.5484 19.6251V23.4312C32.5484 24.6643 32.2561 25.6751 31.6736 26.4626C31.09 27.2501 30.3231 27.6444 29.3706 27.6444C28.4743 27.6444 27.8034 27.3228 27.3547 26.6795C26.9071 26.0362 26.6827 25.0756 26.6827 23.7966V19.6251C25.1898 19.1645 23.848 18.5856 22.75 17.5396V24.8758C22.75 26.7116 23.1792 28.1049 24.0379 29.055C24.8964 30.0049 26.1283 30.4793 27.7333 30.4793C28.8432 30.4793 29.8021 30.2271 30.6101 29.7228C31.4169 29.2184 32.0824 28.4127 32.6044 27.3057H32.6746C32.6746 27.6209 32.6886 28.0216 32.7166 28.5078C32.7446 28.994 32.9033 29.8307 32.9593 30.4793H36.5943C36.5565 30.0113 36.5285 29.2355 36.5102 28.6906C36.4908 28.1467 36.481 27.5633 36.481 26.9424Z" fill="#515151"/>
<path d="M35.4546 12.6129C33.207 13.4783 30.6642 13.5561 28.2961 12.9561C26.8126 12.5575 25.3707 11.9171 24.0886 11.022C24.0865 11.0752 24.0822 11.1286 24.0801 11.1819C24.0332 12.2112 24.1035 13.2492 24.3433 14.2445C24.5746 15.2398 24.9732 16.1999 25.5764 17.0056C26.1732 17.8143 27.0034 18.4367 27.9551 18.7308C28.9078 19.0175 29.9533 18.9653 30.9104 18.6232C31.8727 18.2885 32.752 17.7078 33.5118 17.0013C34.9239 15.681 35.9374 13.9557 36.5683 12.11C36.4724 12.1591 36.3765 12.208 36.2795 12.2561C36.0163 12.4041 35.7339 12.5011 35.4546 12.6129Z" fill="#515151"/>
<path d="M30.7054 2.73346C31.0985 2.92101 31.5068 3.07979 31.9245 3.21619C32.76 3.47727 33.6308 3.67442 34.5185 3.68081C34.9598 3.68188 35.4084 3.63285 35.8241 3.4794C35.9753 3.42826 36.1161 3.35366 36.2482 3.26627C36.1065 3.01478 35.9508 2.77076 35.7771 2.53951C35.1442 1.68807 34.2436 1.03057 33.2226 0.736455C32.7111 0.596856 32.1782 0.546772 31.6528 0.580873C31.1253 0.613907 30.6094 0.747111 30.1202 0.936795C29.7217 1.09558 29.3444 1.29697 28.9863 1.52822C29.1686 1.72323 29.3764 1.90439 29.598 2.06851C29.9402 2.32106 30.3153 2.54058 30.7054 2.73346Z" fill="#515151"/>
<path d="M38.1352 11.0369L37.7835 11.3106C37.6642 11.3991 37.5512 11.4993 37.4265 11.5792L37.0877 11.7913C36.51 13.8725 35.4699 15.8599 33.9064 17.4061C33.4407 17.8622 32.9249 18.2757 32.3633 18.6209C36.1604 17.501 38.9602 14.0728 39.1477 9.97119C38.9356 10.2387 38.7065 10.4933 38.4603 10.7278L38.1352 11.0369Z" fill="#515151"/>
<path d="M37.0661 5.52939C36.8977 4.80688 36.6441 4.09716 36.2871 3.44393C36.1528 3.53557 36.0121 3.61657 35.8586 3.67091C35.4366 3.84567 34.9837 3.93412 34.5296 3.98208C34.0746 4.03003 33.6152 4.03003 33.157 3.99593C32.6998 3.95544 32.2458 3.87551 31.7982 3.76682C31.3538 3.64641 30.9158 3.50148 30.4873 3.32352C30.0621 3.14023 29.6465 2.92603 29.2532 2.66495C28.9708 2.47633 28.6969 2.26427 28.4497 2.01172C28.1321 2.25787 27.8326 2.52855 27.5523 2.81414C26.8223 3.56328 26.2233 4.42858 25.7342 5.34503C25.4848 5.80112 25.2706 6.27534 25.0787 6.75806C24.8848 7.23973 24.7196 7.73206 24.58 8.23184C24.4649 8.64318 24.3668 9.05878 24.2891 9.47758C25.5061 10.5922 27.0131 11.4308 28.618 11.9552C29.6859 12.2962 30.7986 12.5083 31.926 12.5754C33.0536 12.6414 34.2004 12.5519 35.3055 12.2588C35.5794 12.1768 35.8596 12.1097 36.1219 11.9946C36.3244 11.9147 36.5311 11.8401 36.7272 11.7453C37.0267 10.7499 37.2313 9.7216 37.291 8.68047C37.3571 7.62975 37.2985 6.56412 37.0661 5.52939Z" fill="#515151"/>
<path d="M36.4883 3.34407C36.8528 4.01009 37.116 4.73259 37.2876 5.47321C37.7543 7.44037 37.6297 9.51838 37.0947 11.4695L37.1682 11.4333C37.2961 11.3684 37.4134 11.2841 37.537 11.2096L37.9036 10.9794L38.2393 10.7087C38.5622 10.4455 38.8574 10.1482 39.1196 9.82421C39.1228 9.7592 39.1281 9.6942 39.1303 9.6292C39.2037 7.12815 38.3011 4.82637 36.7675 3.08618C36.7079 3.16078 36.6407 3.22898 36.5682 3.28972C36.5415 3.30783 36.5149 3.32595 36.4883 3.34407Z" fill="#515151"/>
<path d="M28.4632 0.701188C28.5218 0.865296 28.5922 1.039 28.7137 1.19885C28.7372 1.23187 28.7649 1.26385 28.7904 1.29689C29.1933 1.07417 29.6133 0.885546 30.0502 0.743816C31.0211 0.417731 32.0847 0.353791 33.0705 0.612742C32.0271 0.21739 30.8963 0 29.7144 0C29.3222 0 28.9364 0.0266402 28.557 0.0724626C28.5187 0.12681 28.4857 0.183291 28.4623 0.244032C28.4239 0.3815 28.4239 0.534948 28.4632 0.701188Z" fill="#515151"/>
<path d="M35.8418 2.49032C36.0208 2.71836 36.1838 2.95919 36.333 3.20749C36.3555 3.19151 36.3778 3.17659 36.3991 3.15953C36.4684 3.09453 36.5303 3.0242 36.5846 2.94747C36.0943 2.43277 35.5487 1.97241 34.9551 1.57812C35.2844 1.84773 35.5828 2.15358 35.8418 2.49032Z" fill="#515151"/>
<path d="M23.202 8.20332C23.3246 8.35996 23.4536 8.51129 23.5868 8.6594C23.6475 8.40258 23.7157 8.14684 23.7893 7.89428C24.1196 6.84569 24.5577 5.82907 25.1417 4.89664C25.7236 3.96527 26.4291 3.1117 27.2498 2.38812C27.5545 2.11852 27.8785 1.86809 28.2174 1.64324C28.2035 1.62726 28.1897 1.61234 28.1758 1.59529C28.016 1.40347 27.8902 1.16584 27.7921 0.911149C27.725 0.694825 27.6962 0.453991 27.725 0.209961C25.1492 0.760896 22.9613 2.35615 21.627 4.53219C21.6547 4.82097 21.7036 5.11082 21.7762 5.39748C22.0276 6.39919 22.5328 7.35826 23.202 8.20332Z" fill="#515151"/>
<path d="M23.5531 14.4427C23.2802 13.3631 23.18 12.2485 23.227 11.1445C23.2386 10.8983 23.2589 10.6522 23.2845 10.4071C22.8369 10.0341 22.4138 9.62701 22.0226 9.18264C21.4493 8.51982 20.9527 7.77387 20.5754 6.95972C20.3548 7.76321 20.2344 8.6072 20.2344 9.48101C20.2344 13.166 22.3381 16.3576 25.4096 17.9273C25.2636 17.777 25.1271 17.6193 24.9993 17.4552C24.2979 16.5633 23.8344 15.5178 23.5531 14.4427Z" fill="#515151"/>
</g>
<path d="M52.4375 36.4558C52.4375 35.519 53.2653 35.0505 54.9159 35.0505C56.6553 35.0505 57.5225 35.4659 57.5225 36.3012C57.5225 36.3763 57.4978 36.4382 57.4436 36.4912C57.3894 36.5398 57.3204 36.5663 57.2367 36.5663H56.5271C56.3005 36.5663 56.1083 36.4779 55.9507 36.3012C55.793 36.1244 55.4875 36.036 55.0342 36.036C54.4084 36.036 54.0931 36.1774 54.0931 36.4558C54.0931 36.5884 54.2163 36.6945 54.4626 36.7828C54.709 36.8712 55.0095 36.9464 55.3643 37.0126C55.7191 37.0789 56.0689 37.1629 56.4237 37.2645C56.7735 37.3662 57.0741 37.5297 57.3204 37.7506C57.5668 37.9716 57.69 38.2544 57.69 38.5947C57.69 39.5316 56.8179 40 55.0736 40C53.3293 40 52.4572 39.5846 52.4572 38.7538C52.4572 38.6742 52.4868 38.6124 52.541 38.5593C52.5952 38.5107 52.6691 38.4842 52.7528 38.4842H53.4624C53.689 38.4842 53.8812 38.5726 54.0389 38.7494C54.1965 38.9261 54.502 39.0145 54.9553 39.0145C55.6797 39.0145 56.0443 38.8731 56.0443 38.5947C56.0443 38.4621 55.9211 38.3561 55.6747 38.2677C55.4284 38.1793 55.1278 38.1042 54.773 38.0335C54.4183 37.9672 54.0635 37.8832 53.7137 37.7816C53.3638 37.6799 53.0633 37.5208 52.8169 37.2955C52.5607 37.0657 52.4375 36.7873 52.4375 36.4558Z" fill="#515151"/>
<path d="M61.9814 38.9607L62.6318 38.9076H62.8092C62.8929 38.9076 62.9669 38.9341 63.0211 38.9828C63.0753 39.0314 63.1048 39.0977 63.1048 39.1728V39.6368C63.1048 39.6987 63.0753 39.7561 63.0211 39.8091C62.9669 39.8578 62.8929 39.8931 62.8092 39.9019C62.484 39.9594 62.0652 39.9903 61.5429 39.9903C60.178 39.9903 59.498 39.3363 59.498 38.0326V33.9361C59.498 33.8565 59.5276 33.7947 59.5818 33.7416C59.636 33.693 59.705 33.6665 59.7888 33.6665H60.8531C60.9368 33.6665 61.0058 33.693 61.06 33.7416C61.1142 33.7902 61.1438 33.8565 61.1438 33.9361V35.39H62.4692C62.553 35.39 62.6219 35.4165 62.6761 35.4651C62.7303 35.5137 62.7599 35.58 62.7599 35.6551V36.1722C62.7599 36.2517 62.7303 36.3136 62.6761 36.3622C62.6219 36.4108 62.553 36.4373 62.4692 36.4373H61.1438V38.0326C61.1438 38.3287 61.2177 38.5585 61.3704 38.7176C61.5232 38.8767 61.7252 38.9607 61.9814 38.9607Z" fill="#515151"/>
<path d="M64.7695 37.8965V35.4041C64.7695 35.3246 64.7991 35.2627 64.8533 35.2097C64.9075 35.1611 64.9765 35.1345 65.0602 35.1345H66.1245C66.2083 35.1345 66.2773 35.1611 66.3315 35.2097C66.3857 35.2583 66.4152 35.3246 66.4152 35.4041V37.8965C66.4152 38.5948 66.7158 38.9395 67.3169 38.9395C67.7111 38.9395 68.1398 38.7318 68.598 38.3119V35.3997C68.598 35.3202 68.6276 35.2583 68.6818 35.2053C68.736 35.1566 68.8049 35.1301 68.8887 35.1301H69.9481C70.0318 35.1301 70.1057 35.1566 70.1599 35.2053C70.2141 35.2539 70.2437 35.3202 70.2437 35.3997V39.6377C70.2437 39.7128 70.2141 39.7747 70.1599 39.8277C70.1057 39.8763 70.0318 39.9028 69.9481 39.9028H68.8887C68.8049 39.9028 68.736 39.8763 68.6818 39.8277C68.6276 39.7791 68.598 39.7128 68.598 39.6377V39.3593C68.0511 39.7791 67.4697 39.9912 66.8538 39.9912C66.2378 39.9912 65.7353 39.8189 65.346 39.4742C64.9617 39.1295 64.7695 38.608 64.7695 37.8965Z" fill="#515151"/>
<path d="M74.3883 39.9903C73.7231 39.9903 73.1712 39.7782 72.7228 39.3495C72.2794 38.9253 72.0527 38.311 72.0527 37.5156C72.0527 36.7201 72.2843 36.1103 72.7475 35.6861C73.2106 35.2618 73.8315 35.0497 74.61 35.0497C75.014 35.0497 75.4723 35.1248 75.9847 35.2707V33.9361C75.9847 33.8565 76.0143 33.7947 76.0685 33.7416C76.1227 33.693 76.1917 33.6665 76.2754 33.6665H77.3348C77.4185 33.6665 77.4925 33.693 77.5467 33.7416C77.6009 33.7902 77.6304 33.8565 77.6304 33.9361V39.6368C77.6304 39.7119 77.6009 39.7738 77.5467 39.8268C77.4925 39.8754 77.4185 39.9019 77.3348 39.9019H76.4232C76.3395 39.9019 76.2656 39.8754 76.2163 39.8268C76.1621 39.7782 76.1375 39.7119 76.1375 39.6368V39.5042C75.6349 39.8268 75.0534 39.9903 74.3883 39.9903ZM74.0286 36.4373C73.8463 36.6627 73.7576 37.0206 73.7576 37.52C73.7576 38.015 73.8413 38.3773 74.0138 38.6027C74.1862 38.8281 74.4425 38.943 74.7874 38.943C75.1323 38.943 75.5314 38.8104 75.9896 38.5497V36.2738C75.5807 36.1589 75.2358 36.1015 74.9549 36.1015C74.5164 36.1015 74.2109 36.2119 74.0286 36.4373Z" fill="#515151"/>
<path d="M79.6582 34.2185V34.0726C79.6582 33.918 79.7075 33.7986 79.8011 33.7058C79.8996 33.6175 80.0327 33.5688 80.2051 33.5688H80.7964C80.9639 33.5688 81.097 33.613 81.1955 33.7014C81.2941 33.7898 81.3434 33.9135 81.3434 34.0682V34.214C81.3434 34.3687 81.2941 34.488 81.2005 34.5808C81.1019 34.6692 80.9689 34.7178 80.7964 34.7178H80.2051C80.0376 34.7178 79.9046 34.6736 79.806 34.5808C79.7075 34.4969 79.6582 34.3731 79.6582 34.2185ZM79.6779 39.6319V35.5044C79.6779 35.4249 79.7075 35.363 79.7617 35.3144C79.8159 35.2658 79.8849 35.2393 79.9686 35.2393H81.0329C81.1167 35.2393 81.1906 35.2658 81.2399 35.3144C81.2941 35.363 81.3187 35.4293 81.3187 35.5044V39.6319C81.3187 39.7115 81.2892 39.7733 81.235 39.822C81.1808 39.8706 81.1118 39.8971 81.028 39.8971H79.9637C79.8799 39.8971 79.806 39.8706 79.7567 39.822C79.7075 39.7733 79.6779 39.7115 79.6779 39.6319Z" fill="#515151"/>
<path d="M83.9764 39.3636C83.4837 38.9438 83.2324 38.3296 83.2324 37.5164C83.2324 36.7033 83.4788 36.089 83.9764 35.6736C84.4692 35.2582 85.1836 35.0505 86.1099 35.0505C87.0363 35.0505 87.7507 35.2582 88.2435 35.6736C88.7362 36.089 88.9875 36.7033 88.9875 37.5164C88.9875 38.3296 88.7411 38.9438 88.2435 39.3636C87.7458 39.7835 87.0412 39.9912 86.1149 39.9912C85.1885 39.9912 84.4741 39.7835 83.9764 39.3636ZM85.1836 36.3895C84.9865 36.6238 84.888 36.9994 84.888 37.5164C84.888 38.0335 84.9865 38.4091 85.1836 38.6477C85.3807 38.8864 85.6911 39.0057 86.1149 39.0057C86.5386 39.0057 86.849 38.8864 87.0461 38.6477C87.2432 38.4091 87.3418 38.0335 87.3418 37.5164C87.3418 36.9994 87.2432 36.6238 87.0461 36.3895C86.849 36.1553 86.5386 36.036 86.1149 36.036C85.6911 36.036 85.3807 36.1553 85.1836 36.3895Z" fill="#515151"/>
<path d="M49.1182 37.5651L1.69141 37.5652" stroke="#515151" stroke-miterlimit="10" stroke-linecap="round" stroke-linejoin="round"/>
</g>
<defs>
<clipPath id="clip0_6849:26634">
<rect width="88.027" height="40" fill="white" transform="translate(0.972656)"/>
</clipPath>
<clipPath id="clip1_6849:26634">
<rect width="88.027" height="30.4805" fill="white" transform="translate(0.972656)"/>
</clipPath>
</defs>
</svg>
