<svg width="24" height="25" viewBox="0 0 24 25" fill="none" xmlns="http://www.w3.org/2000/svg">
<g clip-path="url(#clip0_10:1635)">
<path d="M21.7071 10.7611L13.1414 10.7607C12.7631 10.7607 12.4565 11.0527 12.4565 11.4129V14.019C12.4565 14.3791 12.7631 14.6712 13.1413 14.6712H17.965C17.4368 15.9767 16.451 17.07 15.1932 17.7647L17.25 21.1557C20.5494 19.3384 22.5 16.1497 22.5 12.5803C22.5 12.072 22.4607 11.7087 22.382 11.2996C22.3222 10.9888 22.0389 10.7611 21.7071 10.7611Z" fill="#167EE6"/>
<path d="M11.9997 18.5871C9.63913 18.5871 7.57834 17.3587 6.47153 15.541L2.91113 17.4955C4.723 20.4862 8.1172 22.5001 11.9997 22.5001C13.9044 22.5001 15.7016 22.0117 17.2497 21.1606V21.1559L15.1929 17.7649C14.2521 18.2846 13.1634 18.5871 11.9997 18.5871Z" fill="#12B347"/>
<path d="M17.25 21.1603V21.1557L15.1932 17.7646C14.2524 18.2843 13.1637 18.5868 12 18.5868V22.4998C13.9046 22.4998 15.7019 22.0114 17.25 21.1603Z" fill="#0F993E"/>
<path d="M5.6087 12.5002C5.6087 11.3921 5.92624 10.3553 6.47179 9.45934L2.91139 7.50488C2.01278 8.97469 1.5 10.6816 1.5 12.5002C1.5 14.3188 2.01278 16.0258 2.91139 17.4956L6.47179 15.5411C5.92624 14.6452 5.6087 13.6084 5.6087 12.5002Z" fill="#FFD500"/>
<path d="M11.9997 6.41305C13.5391 6.41305 14.9531 6.93398 16.0575 7.80051C16.33 8.01426 16.726 7.99883 16.9756 7.76113L18.9144 5.91465C19.1975 5.64496 19.1774 5.20352 18.8749 4.95359C17.0245 3.42473 14.6168 2.5 11.9997 2.5C8.11721 2.5 4.723 4.51395 2.91113 7.50465L6.47154 9.4591C7.57834 7.64141 9.63913 6.41305 11.9997 6.41305Z" fill="#FF4B26"/>
<path d="M16.0578 7.80051C16.3302 8.01426 16.7263 7.99883 16.9758 7.76113L18.9146 5.91465C19.1978 5.64496 19.1776 5.20352 18.8751 4.95359C17.0247 3.42469 14.6171 2.5 12 2.5V6.41305C13.5393 6.41305 14.9533 6.93398 16.0578 7.80051Z" fill="#D93F21"/>
</g>
<defs>
<clipPath id="clip0_10:1635">
<rect width="21" height="20" fill="white" transform="translate(1.5 2.5)"/>
</clipPath>
</defs>
</svg>
