<svg width="24" height="24" viewBox="0 0 24 24" fill="none" xmlns="http://www.w3.org/2000/svg">
<path d="M12 21C16.9706 21 21 16.9706 21 12C21 7.02944 16.9706 3 12 3C7.02944 3 3 7.02944 3 12C3 16.9706 7.02944 21 12 21Z" stroke="#084892" stroke-width="2" stroke-linecap="round" stroke-linejoin="round"/>
<path d="M9.38086 9.30012C9.59245 8.69862 10.0101 8.19142 10.5598 7.86834C11.1095 7.54527 11.7559 7.42717 12.3843 7.53496C13.0128 7.64276 13.5828 7.96949 13.9934 8.4573C14.4041 8.9451 14.6288 9.56249 14.6279 10.2001C14.6279 12.0001 11.9279 12.9001 11.9279 12.9001" stroke="#084892" stroke-width="2" stroke-linecap="round" stroke-linejoin="round"/>
<path d="M12 16.5H12.0094" stroke="#084892" stroke-width="2" stroke-linecap="round" stroke-linejoin="round"/>
</svg>
