<svg width="157" height="74" viewBox="0 0 157 74" fill="none" xmlns="http://www.w3.org/2000/svg">
<path d="M157 21.3647V26.3201H150.106V21.3647H157ZM157 27.8549V54.368H150.106V27.8549H153.536H157Z" fill="#285AA5"/>
<path d="M128.11 44.4135V54.368H121.146L121.067 21.3647H128.364L128.11 38.818L137.679 27.8286H145.16L135.74 38.1777L145.879 54.368H138.275L131.118 42.3525L128.11 44.4135Z" fill="#285AA5"/>
<path d="M116.884 21.3647V26.3201H109.99V21.3647H116.884ZM116.884 27.89V54.368H109.99V27.89H116.884Z" fill="#285AA5"/>
<path d="M75.9171 41.3088V54.368H68.8657V34.0118C68.8657 32.5559 68.8481 31.3368 68.8043 30.3633C68.7604 29.3898 68.7166 28.618 68.6639 27.8637H75.347C75.3821 28.0128 75.4698 28.2496 75.4961 28.7583C75.5312 29.267 75.5663 29.8371 75.5926 30.4685C75.6189 31.1 75.654 31.6964 75.6803 32.2489C75.7066 32.8102 75.7154 33.2049 75.7154 33.4505H75.8119C76.4784 31.6175 77.0923 30.2931 77.6449 29.495C78.1799 28.7232 78.8201 28.1619 79.5569 27.8023C80.2936 27.4427 81.2145 27.2585 82.3195 27.2585C83.2229 27.2585 83.9509 27.3813 84.5034 27.6269V33.4066C83.3808 33.1611 82.3722 33.0383 81.4864 33.0383C79.7323 33.0383 78.3553 33.7399 77.3818 35.1256C76.4083 36.5114 75.9171 38.5724 75.9171 41.3088Z" fill="#285AA5"/>
<path d="M18.2162 48.7549C22.7944 48.7549 25.9606 46.5886 27.7147 42.2647L34.2925 44.6152C32.8717 47.9041 30.7931 50.3599 28.0567 51.9649C25.3203 53.5699 22.0314 54.3767 18.2075 54.3767C14.3485 54.3767 11.0595 53.6751 8.34948 52.2806C5.6394 50.8861 3.56081 48.8601 2.13999 46.2202C0.719177 43.5715 0 40.3966 0 36.6867C0 32.9417 0.684095 29.7844 2.05229 27.1971C3.42048 24.6186 5.42891 22.654 8.09513 21.3033C10.7614 19.9527 14.0152 19.2861 17.8742 19.2861C22.1103 19.2861 25.5571 20.093 28.2233 21.698C30.8896 23.303 32.7577 25.6623 33.8277 28.7758L27.1709 30.4948C26.6096 28.7845 25.5045 27.4251 23.8556 26.4165C22.2156 25.3904 20.2773 24.8905 18.0408 24.8905C14.6291 24.8905 12.0331 25.8903 10.2702 27.89C8.50734 29.8896 7.62153 32.819 7.62153 36.678C7.62153 39.2916 8.02497 41.4929 8.84062 43.2821C9.64751 45.0713 10.8491 46.4307 12.4277 47.3604C13.9977 48.29 15.9272 48.7549 18.2162 48.7549Z" fill="#285AA5"/>
<path d="M96.8259 41.3264V54.3681H89.7657V34.0382C89.7657 32.5823 89.7482 31.3632 89.7043 30.3897C89.6605 29.4161 89.6254 28.6093 89.5728 27.855H96.3085C96.3436 28.0041 96.3699 28.276 96.3962 28.7847C96.4313 29.2933 96.4663 29.8634 96.4926 30.4949C96.5277 31.1264 96.554 31.7228 96.5804 32.2753C96.6067 32.8366 96.6154 33.2313 96.6154 33.4769H96.7119C97.3785 31.6438 97.9924 30.3283 98.5449 29.5214C99.0799 28.7496 99.7202 28.1883 100.457 27.8287C101.194 27.4691 102.115 27.2849 103.22 27.2849C104.123 27.2849 104.851 27.4077 105.403 27.6533V33.4242C104.281 33.1787 103.272 33.0559 102.386 33.0559C100.624 33.0559 99.2553 33.7487 98.2818 35.1432C97.3171 36.529 96.8259 38.5988 96.8259 41.3264Z" fill="#285AA5"/>
<path d="M63.3403 48.0621V31.2842C61.3757 33.126 58.9813 34.2047 56.3239 35.0029V41.7912C56.3239 43.9926 55.8064 45.7905 54.7627 47.2026C53.7191 48.6058 52.3509 49.3075 50.6582 49.3075C49.0619 49.3075 47.8604 48.7374 47.0623 47.5885C46.2642 46.4395 45.8607 44.7293 45.8607 42.449V35.0116C43.1945 34.1872 40.8089 33.1611 38.8444 31.293V44.3785C38.8444 47.6499 39.6074 50.1407 41.1422 51.8334C42.6771 53.5261 44.8697 54.3768 47.7288 54.3768C49.711 54.3768 51.4212 53.9295 52.8596 53.0261C54.2979 52.1228 55.4819 50.6932 56.4116 48.7111H56.5344C56.5344 49.2724 56.5607 49.9916 56.6045 50.8598C56.6572 51.7281 56.9378 53.2191 57.0343 54.3768H63.5157C63.4455 53.5436 63.4016 52.1579 63.3666 51.1844C63.3578 50.2108 63.3403 49.1671 63.3403 48.0621Z" fill="#285AA5"/>
<path d="M61.5073 22.505C57.4992 24.0486 52.9648 24.1889 48.7375 23.1189C46.0888 22.4085 43.5191 21.2683 41.23 19.6721C41.23 19.7686 41.2212 19.8651 41.2124 19.9528C41.1247 21.7858 41.2563 23.6364 41.6773 25.4168C42.0895 27.1884 42.7999 28.9074 43.8786 30.337C44.9399 31.7841 46.4221 32.8892 48.1235 33.4154C49.825 33.9241 51.6843 33.8364 53.3946 33.2225C55.1136 32.6261 56.6835 31.5912 58.0342 30.3282C60.5513 27.969 62.358 24.8993 63.4894 21.6016C63.314 21.6893 63.1473 21.777 62.9719 21.8647C62.5071 22.1278 62.0072 22.3033 61.5073 22.505Z" fill="#F8AF2C"/>
<path d="M53.035 4.87626C53.7366 5.20954 54.4646 5.49019 55.2101 5.73576C56.701 6.2006 58.2534 6.55142 59.8409 6.56019C60.6302 6.56019 61.4283 6.47248 62.165 6.2006C62.4369 6.11289 62.6825 5.97257 62.9193 5.82347C62.665 5.37618 62.3931 4.93765 62.0773 4.52544C60.9459 3.00815 59.341 1.83291 57.5255 1.30668C56.6133 1.06111 55.6661 0.964635 54.7277 1.02603C53.7893 1.08742 52.8684 1.32422 51.9913 1.6575C51.2809 1.93816 50.6056 2.29775 49.9653 2.70996C50.2898 3.06078 50.6582 3.37651 51.0529 3.67471C51.6756 4.13954 52.3421 4.53421 53.035 4.87626Z" fill="#F8AF2C"/>
<path d="M66.2871 19.6896L65.6556 20.1807C65.4451 20.3386 65.2434 20.514 65.0154 20.6631L64.4102 21.0402C63.3753 24.7501 61.5247 28.2934 58.7357 31.0561C57.9025 31.8718 56.9816 32.6085 55.9818 33.2224C62.7526 31.2227 67.743 25.1097 68.085 17.7952C67.7079 18.2688 67.2957 18.7248 66.8572 19.1458L66.2871 19.6896Z" fill="#F8AF2C"/>
<path d="M64.384 9.86681C64.0858 8.57755 63.6297 7.3146 62.9982 6.14813C62.7614 6.31477 62.5071 6.4551 62.2352 6.55157C61.4809 6.86731 60.6741 7.02518 59.8672 7.10411C59.0603 7.19182 58.2359 7.19182 57.4202 7.13042C56.6046 7.06026 55.7977 6.91993 54.9996 6.71821C54.2102 6.50772 53.4297 6.24461 52.6579 5.92887C51.8948 5.60436 51.1581 5.21846 50.4565 4.75363C49.9566 4.42035 49.4654 4.04322 49.0269 3.58716C48.4568 4.02568 47.9306 4.50806 47.4307 5.01674C46.1326 6.34985 45.0626 7.89345 44.1856 9.53353C43.7383 10.3492 43.3612 11.1911 43.0191 12.0507C42.6771 12.9102 42.3789 13.7872 42.1333 14.6818C41.9316 15.4185 41.7562 16.1552 41.6158 16.9007C43.7909 18.8916 46.4747 20.3826 49.3338 21.321C51.237 21.9262 53.2192 22.3033 55.2364 22.4261C57.2448 22.5401 59.2883 22.3823 61.2617 21.8648C61.7528 21.7157 62.2527 21.6017 62.7176 21.3912C63.0772 21.2509 63.4455 21.1193 63.7963 20.9439C64.3313 19.1723 64.6909 17.3392 64.8049 15.4799C64.9014 13.6118 64.7962 11.7086 64.384 9.86681Z" fill="#F8AF2C"/>
<path d="M63.349 5.96386C63.998 7.14787 64.4716 8.43713 64.7698 9.76147C65.603 13.2697 65.3837 16.9796 64.4278 20.4527L64.5593 20.3913C64.7874 20.2773 64.9978 20.1282 65.2171 19.9966L65.8749 19.5844L66.4713 19.102C67.0501 18.6284 67.5764 18.1022 68.0412 17.5233C68.05 17.4093 68.0587 17.2953 68.0587 17.1725C68.1903 12.7083 66.5765 8.60377 63.8489 5.49902C63.7437 5.63058 63.6209 5.75337 63.4981 5.85861C63.4455 5.90247 63.4016 5.93755 63.349 5.96386Z" fill="#F8AF2C"/>
<path d="M49.0444 1.25418C49.1496 1.5436 49.2724 1.85934 49.4917 2.13999C49.5355 2.20139 49.5794 2.25401 49.632 2.3154C50.3512 1.92073 51.0967 1.57868 51.8772 1.33311C53.605 0.754259 55.5082 0.640244 57.2623 1.09631C55.403 0.394671 53.3858 0 51.2808 0C50.5792 0 49.8951 0.0438523 49.2198 0.131557C49.1496 0.228032 49.0882 0.324507 49.0531 0.438523C48.9742 0.684096 48.9742 0.95598 49.0444 1.25418Z" fill="#F8AF2C"/>
<path d="M62.2001 4.44673C62.5159 4.85018 62.8141 5.27993 63.0772 5.72722C63.121 5.70091 63.1561 5.6746 63.1912 5.63952C63.314 5.5255 63.428 5.39394 63.5245 5.26239C62.6474 4.34149 61.6739 3.52584 60.6215 2.81543C61.2003 3.2978 61.7353 3.84157 62.2001 4.44673Z" fill="#F8AF2C"/>
<path d="M39.6601 14.638C39.8793 14.9186 40.1074 15.1905 40.3442 15.4536C40.4494 14.9976 40.5722 14.5415 40.7037 14.0854C41.2914 12.2173 42.0719 10.4018 43.1156 8.73545C44.1505 7.07783 45.4135 5.55177 46.8781 4.26251C47.4219 3.78014 48.0008 3.33284 48.6059 2.93817C48.5796 2.91186 48.5533 2.88555 48.5358 2.85047C48.2551 2.50842 48.0271 2.08744 47.8517 1.63137C47.7289 1.24547 47.6763 0.81572 47.7289 0.377197C43.1332 1.35949 39.2303 4.20989 36.8535 8.08643C36.9061 8.60389 36.9938 9.12135 37.1166 9.63003C37.5639 11.4192 38.4585 13.1294 39.6601 14.638Z" fill="#F8AF2C"/>
<path d="M40.2827 25.7676C39.8004 23.8381 39.6162 21.856 39.7039 19.8826C39.7214 19.4441 39.7653 19.0056 39.8091 18.567C39.011 17.9005 38.2568 17.1725 37.5551 16.3832C36.529 15.1992 35.6432 13.8748 34.9766 12.4189C34.582 13.8485 34.3715 15.3571 34.3715 16.9182C34.3715 23.4873 38.1252 29.1793 43.598 31.9858C43.3349 31.714 43.0981 31.4333 42.87 31.1439C41.6071 29.5477 40.7827 27.6795 40.2827 25.7676Z" fill="#F8AF2C"/>
<path d="M91.8881 66.4626C91.8881 64.6033 93.3615 63.6736 96.2996 63.6736C99.3956 63.6736 100.939 64.498 100.939 66.1556C100.939 66.3047 100.895 66.4275 100.799 66.5328C100.702 66.6292 100.58 66.6819 100.43 66.6819H99.1675C98.7641 66.6819 98.4221 66.5064 98.1414 66.1556C97.8607 65.8048 97.317 65.6294 96.5101 65.6294C95.3962 65.6294 94.8349 65.9101 94.8349 66.4626C94.8349 66.7257 95.0542 66.9362 95.4927 67.1116C95.9312 67.287 96.4662 67.4361 97.0977 67.5677C97.7292 67.6992 98.3519 67.8659 98.9834 68.0676C99.6061 68.2693 100.141 68.5938 100.58 69.0323C101.018 69.4709 101.237 70.0322 101.237 70.7075C101.237 72.5668 99.685 73.4965 96.5803 73.4965C93.4755 73.4965 91.9231 72.6721 91.9231 71.0232C91.9231 70.8654 91.9758 70.7426 92.0722 70.6373C92.1687 70.5409 92.3003 70.4882 92.4494 70.4882H93.7123C94.1158 70.4882 94.4578 70.6636 94.7385 71.0145C95.0191 71.3653 95.5629 71.5407 96.3698 71.5407C97.659 71.5407 98.308 71.26 98.308 70.7075C98.308 70.4444 98.0888 70.2339 97.6502 70.0585C97.2117 69.8831 96.6767 69.734 96.0453 69.5936C95.4138 69.4621 94.7823 69.2954 94.1596 69.0937C93.5369 68.892 93.0019 68.5763 92.5634 68.129C92.1073 67.6729 91.8881 67.1204 91.8881 66.4626Z" fill="#285AA5"/>
<path d="M108.876 71.4355L110.034 71.3302H110.35C110.499 71.3302 110.631 71.3829 110.727 71.4793C110.824 71.5758 110.876 71.7074 110.876 71.8565V72.7774C110.876 72.9001 110.824 73.0142 110.727 73.1194C110.631 73.2159 110.499 73.286 110.35 73.3036C109.771 73.4176 109.026 73.479 108.096 73.479C105.667 73.479 104.456 72.181 104.456 69.5937V61.4635C104.456 61.3056 104.509 61.1828 104.605 61.0776C104.702 60.9811 104.825 60.9285 104.974 60.9285H106.868C107.017 60.9285 107.14 60.9811 107.236 61.0776C107.333 61.174 107.386 61.3056 107.386 61.4635V64.3489H109.745C109.894 64.3489 110.017 64.4016 110.113 64.498C110.21 64.5945 110.262 64.7261 110.262 64.8752V65.9013C110.262 66.0592 110.21 66.182 110.113 66.2784C110.017 66.3749 109.894 66.4275 109.745 66.4275H107.386V69.5937C107.386 70.1813 107.517 70.6374 107.789 70.9531C108.061 71.2688 108.42 71.4355 108.876 71.4355Z" fill="#285AA5"/>
<path d="M113.84 69.3217V64.3752C113.84 64.2173 113.893 64.0945 113.99 63.9893C114.086 63.8928 114.209 63.8402 114.358 63.8402H116.252C116.401 63.8402 116.524 63.8928 116.621 63.9893C116.717 64.0858 116.77 64.2173 116.77 64.3752V69.3217C116.77 70.7075 117.305 71.3916 118.375 71.3916C119.076 71.3916 119.839 70.9793 120.655 70.1462V64.3664C120.655 64.2085 120.708 64.0858 120.804 63.9805C120.901 63.884 121.023 63.8314 121.173 63.8314H123.058C123.207 63.8314 123.339 63.884 123.435 63.9805C123.532 64.077 123.584 64.2085 123.584 64.3664V72.7773C123.584 72.9264 123.532 73.0492 123.435 73.1544C123.339 73.2509 123.207 73.3035 123.058 73.3035H121.173C121.023 73.3035 120.901 73.2509 120.804 73.1544C120.708 73.0579 120.655 72.9264 120.655 72.7773V72.2248C119.682 73.0579 118.647 73.4789 117.55 73.4789C116.454 73.4789 115.559 73.1369 114.867 72.4528C114.182 71.7687 113.84 70.7338 113.84 69.3217Z" fill="#285AA5"/>
<path d="M130.96 73.479C129.776 73.479 128.794 73.058 127.996 72.2073C127.207 71.3653 126.803 70.1462 126.803 68.5675C126.803 66.9889 127.215 65.7785 128.04 64.9366C128.864 64.0946 129.969 63.6736 131.355 63.6736C132.074 63.6736 132.89 63.8227 133.802 64.1121V61.4635C133.802 61.3056 133.855 61.1828 133.951 61.0776C134.048 60.9811 134.17 60.9285 134.32 60.9285H136.205C136.354 60.9285 136.486 60.9811 136.582 61.0776C136.679 61.174 136.731 61.3056 136.731 61.4635V72.7774C136.731 72.9265 136.679 73.0492 136.582 73.1545C136.486 73.251 136.354 73.3036 136.205 73.3036H134.583C134.434 73.3036 134.302 73.251 134.214 73.1545C134.118 73.058 134.074 72.9265 134.074 72.7774V72.5142C133.179 73.1545 132.144 73.479 130.96 73.479ZM130.32 66.4275C129.996 66.8748 129.838 67.5852 129.838 68.5763C129.838 69.5586 129.987 70.2778 130.294 70.7251C130.601 71.1724 131.057 71.4004 131.671 71.4004C132.285 71.4004 132.995 71.1373 133.811 70.6198V66.103C133.083 65.875 132.469 65.761 131.969 65.761C131.188 65.761 130.645 65.9802 130.32 66.4275Z" fill="#285AA5"/>
<path d="M140.485 62.0335V61.7441C140.485 61.4371 140.573 61.2003 140.739 61.0162C140.915 60.8407 141.152 60.7443 141.459 60.7443H142.511C142.809 60.7443 143.046 60.832 143.221 61.0074C143.397 61.1828 143.485 61.4284 143.485 61.7353V62.0248C143.485 62.3317 143.397 62.5685 143.23 62.7527C143.055 62.9281 142.818 63.0246 142.511 63.0246H141.459C141.16 63.0246 140.924 62.9369 140.748 62.7527C140.573 62.5861 140.485 62.3405 140.485 62.0335ZM140.52 72.7773V64.5857C140.52 64.4279 140.573 64.3051 140.669 64.2086C140.766 64.1121 140.889 64.0595 141.038 64.0595H142.932C143.081 64.0595 143.213 64.1121 143.3 64.2086C143.397 64.3051 143.441 64.4366 143.441 64.5857V72.7773C143.441 72.9352 143.388 73.058 143.292 73.1545C143.195 73.2509 143.072 73.3036 142.923 73.3036H141.029C140.88 73.3036 140.748 73.2509 140.661 73.1545C140.573 73.058 140.52 72.9352 140.52 72.7773Z" fill="#285AA5"/>
<path d="M148.028 72.2336C147.151 71.4004 146.703 70.1813 146.703 68.5675C146.703 66.9537 147.142 65.7346 148.028 64.9102C148.905 64.0858 150.176 63.6736 151.825 63.6736C153.474 63.6736 154.746 64.0858 155.623 64.9102C156.5 65.7346 156.947 66.9537 156.947 68.5675C156.947 70.1813 156.509 71.4004 155.623 72.2336C154.737 73.0667 153.483 73.479 151.834 73.479C150.185 73.479 148.914 73.0667 148.028 72.2336ZM150.176 66.331C149.826 66.7959 149.65 67.5414 149.65 68.5675C149.65 69.5936 149.826 70.3391 150.176 70.8127C150.527 71.2863 151.08 71.5231 151.834 71.5231C152.588 71.5231 153.141 71.2863 153.492 70.8127C153.843 70.3391 154.018 69.5936 154.018 68.5675C154.018 67.5414 153.843 66.7959 153.492 66.331C153.141 65.8662 152.588 65.6294 151.834 65.6294C151.08 65.6294 150.527 65.8662 150.176 66.331Z" fill="#285AA5"/>
<path d="M85.4331 67.2344H0.464844" stroke="#285AA5" stroke-width="2.6714" stroke-miterlimit="10"/>
</svg>
