<svg width="133" height="60" viewBox="0 0 133 60" fill="none" xmlns="http://www.w3.org/2000/svg">
<g clip-path="url(#clip0_6849:26162)">
<g clip-path="url(#clip1_6849:26162)">
<path d="M132.04 17.9675V22.1385H126.244V17.9675H132.04ZM132.04 23.4219V45.7192H126.244V23.4219H129.127H132.04Z" fill="#285AA5"/>
<path d="M107.742 37.3461V45.7209H101.886L101.816 17.9675H107.955L107.743 32.6439L115.788 23.4025H122.082L114.162 32.1067L122.685 45.7209H116.288L110.266 35.6129L107.742 37.3461Z" fill="#285AA5"/>
<path d="M98.2955 17.9675V22.1385H92.5V17.9675H98.2955ZM98.2955 23.4491V45.7192H92.5V23.4491H98.2955Z" fill="#285AA5"/>
<path d="M63.8452 34.74V45.721H57.909V28.598C57.909 27.3717 57.8912 26.3476 57.8555 25.527C57.8199 24.7063 57.7785 24.0567 57.7363 23.4221H63.3582C63.3857 23.5454 63.4585 23.7445 63.4859 24.1725C63.5135 24.6006 63.5426 25.0797 63.5702 25.6103C63.5976 26.1408 63.6236 26.6408 63.6446 27.1089C63.6656 27.5785 63.6769 27.9151 63.6769 28.1219H63.7611C64.3241 26.5784 64.8386 25.4676 65.3029 24.7929C65.7528 24.1453 66.2883 23.6693 66.9079 23.3663C67.5277 23.0634 68.3026 22.9111 69.2314 22.9111C69.9919 22.9111 70.605 23.0136 71.0694 23.2204V28.0803C70.1261 27.8735 69.28 27.7709 68.5341 27.7709C67.0552 27.7709 65.9033 28.3575 65.0797 29.5293C64.2578 30.7008 63.8452 32.4384 63.8452 34.74Z" fill="#285AA5"/>
<path d="M15.1971 40.9685C19.0157 40.9685 21.6587 39.1498 23.1281 35.514L28.6213 37.4883C27.4379 40.2569 25.7036 42.3156 23.4171 43.6659C21.1304 45.016 18.3894 45.6904 15.1987 45.6904C11.9775 45.6904 9.23482 45.1036 6.96908 43.9301C4.70332 42.7565 2.97551 41.0561 1.78563 38.8304C0.595743 36.6048 0 33.9319 0 30.8099C0 27.6619 0.57005 25.0019 1.71016 22.8313C2.85026 20.661 4.53151 19.0075 6.7555 17.8744C8.9779 16.7413 11.6997 16.1741 14.9209 16.1741C18.4552 16.1741 21.3344 16.8499 23.5567 18.2002C25.7807 19.5505 27.34 21.5346 28.2376 24.1542L22.68 25.6001C22.2095 24.1622 21.2861 23.0178 19.9116 22.1701C18.5354 21.3222 16.9153 20.8976 15.0493 20.8976C12.1991 20.8976 10.0361 21.7389 8.56201 23.4214C7.08789 25.1041 6.34924 27.5678 6.34924 30.8099C6.34924 33.0078 6.68805 34.8607 7.36409 36.3666C8.04012 37.8725 9.03892 39.0168 10.3573 39.7965C11.674 40.5795 13.2878 40.9685 15.1971 40.9685Z" fill="#285AA5"/>
<path d="M81.4282 34.7544V45.7211H75.492V28.6204C75.492 27.3957 75.4742 26.3729 75.4385 25.5533C75.4029 24.7337 75.3721 24.056 75.3301 23.4222H80.9931C81.0205 23.5454 81.0415 23.7734 81.0691 24.2007C81.0965 24.6281 81.1257 25.1066 81.1532 25.6365C81.1806 26.1664 81.2066 26.6658 81.2276 27.1333C81.2486 27.6022 81.26 27.9384 81.26 28.1449H81.3441C81.9071 26.6034 82.4216 25.4941 82.8861 24.8201C83.3358 24.1735 83.8713 23.6981 84.4911 23.3956C85.1107 23.093 85.8858 22.9409 86.8144 22.9409C87.5749 22.9409 88.1881 23.0433 88.6524 23.2499V28.1034C87.7092 27.8967 86.863 27.7944 86.1171 27.7944C84.6382 27.7944 83.4863 28.3802 82.6627 29.5504C81.8392 30.7205 81.4282 32.4557 81.4282 34.7544Z" fill="#285AA5"/>
<path d="M53.2626 40.4136V26.3093C51.6091 27.8544 49.5964 28.7661 47.3636 29.4376V35.1467C47.3636 36.9964 46.9251 38.5126 46.0514 39.694C45.176 40.8752 44.0257 41.4666 42.597 41.4666C41.2525 41.4666 40.2461 40.9842 39.573 40.0193C38.9016 39.0543 38.565 37.6134 38.565 35.6949V29.4376C36.3258 28.7468 34.3131 27.8784 32.666 26.3093V37.3137C32.666 40.0674 33.3099 42.1574 34.5978 43.5825C35.8857 45.0073 37.7335 45.719 40.141 45.719C41.8058 45.719 43.2442 45.3407 44.4561 44.5841C45.6663 43.8276 46.6646 42.6191 47.4477 40.9586H47.5529C47.5529 41.4313 47.5739 42.0325 47.6159 42.7617C47.658 43.491 47.8959 44.746 47.98 45.719H53.4325C53.3758 45.017 53.3338 43.8533 53.3064 43.0359C53.2772 42.22 53.2626 41.3449 53.2626 40.4136Z" fill="#285AA5"/>
<path d="M51.723 18.9194C48.3515 20.2174 44.5373 20.3342 40.9852 19.4342C38.7599 18.8363 36.597 17.8757 34.6739 16.533C34.6708 16.6129 34.6644 16.6929 34.6612 16.7728C34.5907 18.3169 34.6963 19.8738 35.056 21.3667C35.4029 22.8598 36.0008 24.2999 36.9055 25.5084C37.8008 26.7215 39.0461 27.655 40.4737 28.0962C41.9027 28.5262 43.471 28.448 44.9066 27.9348C46.35 27.4328 47.669 26.5617 48.8088 25.5019C50.9269 23.5215 52.4472 20.9335 53.3934 18.165C53.2497 18.2386 53.1058 18.3121 52.9602 18.3841C52.5654 18.6061 52.1419 18.7516 51.723 18.9194Z" fill="#F8AF2C"/>
<path d="M44.6 4.10032C45.1898 4.38164 45.8022 4.6198 46.4287 4.82441C47.6821 5.21603 48.9882 5.51176 50.3198 5.52134C50.9816 5.52294 51.6547 5.4494 52.2781 5.21923C52.505 5.14251 52.7161 5.03062 52.9143 4.89953C52.7017 4.5223 52.4682 4.15626 52.2077 3.80939C51.2582 2.53222 49.9073 1.54598 48.376 1.1048C47.6086 0.895406 46.8093 0.82028 46.0212 0.871431C45.2299 0.920983 44.4561 1.12079 43.7223 1.40532C43.1245 1.64349 42.5586 1.94558 42.0215 2.29245C42.2949 2.58497 42.6066 2.85671 42.939 3.10288C43.4523 3.48171 44.0149 3.81099 44.6 4.10032Z" fill="#F8AF2C"/>
<path d="M55.7438 16.5553L55.2163 16.966C55.0373 17.0986 54.8678 17.249 54.6808 17.3688L54.1725 17.6869C53.306 20.8088 51.7459 23.7899 49.4006 26.1092C48.702 26.7934 47.9284 27.4136 47.0859 27.9314C52.7817 26.2515 56.9813 21.1092 57.2625 14.9568C56.9444 15.358 56.6007 15.74 56.2314 16.0917L55.7438 16.5553Z" fill="#F8AF2C"/>
<path d="M54.1402 8.29432C53.8875 7.21056 53.5071 6.14599 52.9716 5.16614C52.7703 5.30361 52.5591 5.4251 52.3289 5.50661C51.696 5.76876 51.0165 5.90143 50.3354 5.97336C49.6529 6.04529 48.9639 6.04529 48.2765 5.99413C47.5907 5.9334 46.9098 5.81351 46.2383 5.65047C45.5717 5.46985 44.9147 5.25246 44.272 4.98552C43.6341 4.71058 43.0108 4.38929 42.4209 3.99768C41.9971 3.71474 41.5864 3.39665 41.2155 3.01782C40.7392 3.38705 40.2899 3.79307 39.8694 4.22145C38.7744 5.34517 37.876 6.64311 37.1423 8.01778C36.7681 8.70193 36.447 9.41325 36.1591 10.1373C35.8682 10.8598 35.6204 11.5983 35.411 12.348C35.2384 12.965 35.0912 13.5884 34.9746 14.2166C36.8002 15.8886 39.0606 17.1465 41.468 17.9331C43.0698 18.4445 44.7389 18.7626 46.4301 18.8634C48.1214 18.9624 49.8416 18.8281 51.4993 18.3885C51.9101 18.2655 52.3305 18.1647 52.7239 17.9921C53.0276 17.8723 53.3377 17.7605 53.6318 17.6182C54.081 16.1251 54.388 14.5827 54.4775 13.021C54.5766 11.4449 54.4887 9.84642 54.1402 8.29432Z" fill="#F8AF2C"/>
<path d="M53.2734 5.01598C53.8202 6.01502 54.215 7.09876 54.4724 8.2097C55.1725 11.1604 54.9856 14.2774 54.1831 17.2042L54.2933 17.1498C54.4852 17.0524 54.6611 16.926 54.8465 16.8142L55.3964 16.469L55.9 16.0629C56.3843 15.6681 56.8271 15.2221 57.2204 14.7362C57.2252 14.6387 57.2332 14.5412 57.2364 14.4437C57.3466 10.6921 55.9927 7.23944 53.6923 4.62915C53.6028 4.74105 53.5021 4.84335 53.3933 4.93445C53.3533 4.96163 53.3134 4.9888 53.2734 5.01598Z" fill="#F8AF2C"/>
<path d="M41.2378 1.05178C41.3257 1.29794 41.4313 1.5585 41.6136 1.79827C41.6487 1.84781 41.6903 1.89578 41.7286 1.94533C42.333 1.61125 42.9629 1.32832 43.6182 1.11572C45.0745 0.626596 46.6699 0.530687 48.1487 0.919113C46.5836 0.326086 44.8875 0 43.1146 0C42.5263 0 41.9476 0.0399603 41.3785 0.108694C41.3211 0.190215 41.2715 0.274936 41.2364 0.366049C41.1788 0.57225 41.1788 0.802423 41.2378 1.05178Z" fill="#F8AF2C"/>
<path d="M52.3027 3.73547C52.5713 4.07755 52.8158 4.43879 53.0396 4.81123C53.0733 4.78726 53.1068 4.76488 53.1387 4.73929C53.2427 4.64179 53.3354 4.53629 53.4169 4.42121C52.6815 3.64915 51.8631 2.95862 50.9727 2.36719C51.4666 2.7716 51.9143 3.23036 52.3027 3.73547Z" fill="#F8AF2C"/>
<path d="M33.345 12.305C33.5289 12.5399 33.7224 12.7669 33.9221 12.9891C34.0133 12.6039 34.1156 12.2203 34.226 11.8414C34.7214 10.2685 35.3786 8.74361 36.2546 7.34496C37.1273 5.94791 38.1856 4.66755 39.4166 3.58218C39.8737 3.17779 40.3597 2.80214 40.8681 2.46486C40.8473 2.44089 40.8266 2.41852 40.8057 2.39293C40.566 2.10521 40.3773 1.74876 40.2302 1.36672C40.1295 1.04224 40.0863 0.680987 40.1295 0.314941C36.2658 1.14134 32.9839 3.53423 30.9824 6.79828C31.024 7.23146 31.0975 7.66624 31.2062 8.09622C31.5834 9.59878 32.3412 11.0374 33.345 12.305Z" fill="#F8AF2C"/>
<path d="M33.8706 21.6639C33.4614 20.0446 33.311 18.3726 33.3815 16.7166C33.399 16.3473 33.4294 15.9781 33.4678 15.6105C32.7963 15.051 32.1617 14.4404 31.5749 13.7738C30.715 12.7796 29.9701 11.6607 29.4041 10.4395C29.0732 11.6447 28.8926 12.9107 28.8926 14.2214C28.8926 19.7489 32.0482 24.5363 36.6554 26.8908C36.4364 26.6654 36.2316 26.4288 36.0399 26.1827C34.9879 24.8448 34.2926 23.2766 33.8706 21.6639Z" fill="#F8AF2C"/>
</g>
<path d="M77.1973 54.6839C77.1973 53.2786 78.4389 52.5759 80.9149 52.5759C83.5239 52.5759 84.8247 53.199 84.8247 54.4519C84.8247 54.5645 84.7878 54.6574 84.7065 54.7369C84.6252 54.8098 84.5217 54.8496 84.396 54.8496H83.3317C82.9918 54.8496 82.7035 54.717 82.467 54.4519C82.2305 54.1867 81.7722 54.0541 81.0923 54.0541C80.1536 54.0541 79.6806 54.2663 79.6806 54.6839C79.6806 54.8827 79.8654 55.0418 80.2349 55.1744C80.6045 55.307 81.0553 55.4197 81.5875 55.5191C82.1196 55.6185 82.6444 55.7445 83.1765 55.8969C83.7013 56.0494 84.1521 56.2947 84.5217 56.6261C84.8912 56.9575 85.076 57.3818 85.076 57.8922C85.076 59.2975 83.7678 60.0001 81.1514 60.0001C78.535 60.0001 77.2268 59.377 77.2268 58.1308C77.2268 58.0115 77.2712 57.9187 77.3525 57.8391C77.4338 57.7662 77.5446 57.7265 77.6703 57.7265H78.7346C79.0746 57.7265 79.3628 57.859 79.5993 58.1242C79.8358 58.3893 80.2941 58.5219 80.974 58.5219C82.0605 58.5219 82.6074 58.3098 82.6074 57.8922C82.6074 57.6933 82.4227 57.5342 82.0531 57.4017C81.6836 57.2691 81.2327 57.1564 80.7006 57.0503C80.1684 56.9509 79.6363 56.825 79.1115 56.6725C78.5868 56.52 78.1359 56.2814 77.7664 55.9433C77.382 55.5986 77.1973 55.181 77.1973 54.6839Z" fill="#285AA5"/>
<path d="M91.5141 58.441L92.4897 58.3614H92.7558C92.8814 58.3614 92.9923 58.4012 93.0736 58.4741C93.1549 58.5471 93.1992 58.6465 93.1992 58.7592V59.4552C93.1992 59.548 93.1549 59.6342 93.0736 59.7137C92.9923 59.7866 92.8814 59.8397 92.7558 59.8529C92.268 59.9391 91.6397 59.9855 90.8563 59.9855C88.809 59.9855 87.7891 59.0044 87.7891 57.049V50.9041C87.7891 50.7848 87.8334 50.692 87.9147 50.6124C87.996 50.5395 88.0995 50.4998 88.2251 50.4998H89.8216C89.9472 50.4998 90.0507 50.5395 90.132 50.6124C90.2133 50.6854 90.2576 50.7848 90.2576 50.9041V53.085H92.2458C92.3714 53.085 92.4749 53.1247 92.5562 53.1977C92.6375 53.2706 92.6819 53.37 92.6819 53.4827V54.2583C92.6819 54.3776 92.6375 54.4704 92.5562 54.5433C92.4749 54.6162 92.3714 54.656 92.2458 54.656H90.2576V57.049C90.2576 57.4931 90.3685 57.8378 90.5976 58.0764C90.8267 58.315 91.1298 58.441 91.5141 58.441Z" fill="#285AA5"/>
<path d="M95.6973 56.8447V53.1061C95.6973 52.9867 95.7416 52.8939 95.8229 52.8144C95.9042 52.7415 96.0077 52.7017 96.1333 52.7017H97.7298C97.8554 52.7017 97.9589 52.7415 98.0402 52.8144C98.1215 52.8873 98.1658 52.9867 98.1658 53.1061V56.8447C98.1658 57.892 98.6167 58.4091 99.5183 58.4091C100.11 58.4091 100.753 58.0975 101.44 57.4678V53.0994C101.44 52.9801 101.484 52.8873 101.566 52.8078C101.647 52.7348 101.75 52.6951 101.876 52.6951H103.465C103.591 52.6951 103.702 52.7348 103.783 52.8078C103.864 52.8807 103.909 52.9801 103.909 53.0994V59.4564C103.909 59.5691 103.864 59.6619 103.783 59.7414C103.702 59.8144 103.591 59.8541 103.465 59.8541H101.876C101.75 59.8541 101.647 59.8144 101.566 59.7414C101.484 59.6685 101.44 59.5691 101.44 59.4564V59.0388C100.62 59.6685 99.7475 59.9867 98.8236 59.9867C97.8997 59.9867 97.1459 59.7282 96.562 59.2111C95.9855 58.6941 95.6973 57.9119 95.6973 56.8447Z" fill="#285AA5"/>
<path d="M110.124 59.9855C109.127 59.9855 108.299 59.6673 107.626 59.0243C106.961 58.388 106.621 57.4666 106.621 56.2734C106.621 55.0802 106.968 54.1655 107.663 53.5291C108.358 52.8927 109.289 52.5746 110.457 52.5746C111.063 52.5746 111.75 52.6872 112.519 52.906V50.9041C112.519 50.7848 112.563 50.692 112.645 50.6124C112.726 50.5395 112.829 50.4998 112.955 50.4998H114.544C114.67 50.4998 114.781 50.5395 114.862 50.6124C114.943 50.6854 114.988 50.7848 114.988 50.9041V59.4552C114.988 59.5679 114.943 59.6607 114.862 59.7402C114.781 59.8131 114.67 59.8529 114.544 59.8529H113.177C113.051 59.8529 112.94 59.8131 112.866 59.7402C112.785 59.6673 112.748 59.5679 112.748 59.4552V59.2563C111.994 59.7402 111.122 59.9855 110.124 59.9855ZM109.585 54.656C109.311 54.994 109.178 55.531 109.178 56.28C109.178 57.0224 109.304 57.566 109.563 57.9041C109.821 58.2421 110.206 58.4145 110.723 58.4145C111.24 58.4145 111.839 58.2156 112.526 57.8245V54.4107C111.913 54.2384 111.396 54.1522 110.974 54.1522C110.317 54.1522 109.858 54.3179 109.585 54.656Z" fill="#285AA5"/>
<path d="M118.029 51.3277V51.1089C118.029 50.8769 118.103 50.698 118.244 50.5588C118.391 50.4262 118.591 50.3533 118.85 50.3533H119.737C119.988 50.3533 120.187 50.4196 120.335 50.5521C120.483 50.6847 120.557 50.8703 120.557 51.1023V51.3211C120.557 51.5531 120.483 51.7321 120.343 51.8713C120.195 52.0038 119.995 52.0767 119.737 52.0767H118.85C118.598 52.0767 118.399 52.0105 118.251 51.8713C118.103 51.7453 118.029 51.5597 118.029 51.3277ZM118.059 59.4479V53.2567C118.059 53.1373 118.103 53.0445 118.185 52.9716C118.266 52.8987 118.369 52.8589 118.495 52.8589H120.091C120.217 52.8589 120.328 52.8987 120.402 52.9716C120.483 53.0445 120.52 53.144 120.52 53.2567V59.4479C120.52 59.5672 120.476 59.66 120.394 59.7329C120.313 59.8059 120.21 59.8456 120.084 59.8456H118.488C118.362 59.8456 118.251 59.8059 118.177 59.7329C118.103 59.66 118.059 59.5672 118.059 59.4479Z" fill="#285AA5"/>
<path d="M124.507 59.0456C123.768 58.4159 123.391 57.4945 123.391 56.2748C123.391 55.0551 123.76 54.1337 124.507 53.5106C125.246 52.8875 126.317 52.5759 127.707 52.5759C129.096 52.5759 130.168 52.8875 130.907 53.5106C131.646 54.1337 132.023 55.0551 132.023 56.2748C132.023 57.4945 131.654 58.4159 130.907 59.0456C130.161 59.6753 129.104 59.9869 127.714 59.9869C126.325 59.9869 125.253 59.6753 124.507 59.0456ZM126.317 54.5844C126.022 54.9358 125.874 55.4992 125.874 56.2748C125.874 57.0503 126.022 57.6138 126.317 57.9717C126.613 58.3297 127.079 58.5087 127.714 58.5087C128.35 58.5087 128.816 58.3297 129.111 57.9717C129.407 57.6138 129.555 57.0503 129.555 56.2748C129.555 55.4992 129.407 54.9358 129.111 54.5844C128.816 54.2331 128.35 54.0541 127.714 54.0541C127.079 54.0541 126.613 54.2331 126.317 54.5844Z" fill="#285AA5"/>
<path d="M72.2183 56.3478L1.07812 56.3479" stroke="#285AA5" stroke-width="2" stroke-miterlimit="10" stroke-linecap="round" stroke-linejoin="round"/>
</g>
<defs>
<clipPath id="clip0_6849:26162">
<rect width="132.04" height="60" fill="white"/>
</clipPath>
<clipPath id="clip1_6849:26162">
<rect width="132.04" height="45.7208" fill="white"/>
</clipPath>
</defs>
</svg>
