<svg width="77" height="63" viewBox="0 0 77 63" fill="none" xmlns="http://www.w3.org/2000/svg">
<g id="Group">
<path id="Vector" d="M72.9093 0.824219H3.83702C2.85604 0.825524 1.91561 1.2158 1.22195 1.90945C0.528295 2.60311 0.138024 3.54354 0.136719 4.52452V46.4613C0.138024 47.4422 0.528295 48.3827 1.22195 49.0763C1.91561 49.77 2.85604 50.1603 3.83702 50.1616H29.3367L27.576 56.3287H22.3385C22.0114 56.3287 21.6977 56.4587 21.4664 56.69C21.235 56.9213 21.1051 57.235 21.1051 57.5622V60.029H11.2376C10.9105 60.029 10.5968 60.159 10.3655 60.3903C10.1341 60.6216 10.0042 60.9353 10.0042 61.2625C10.0042 61.5896 10.1341 61.9033 10.3655 62.1346C10.5968 62.366 10.9105 62.4959 11.2376 62.4959H65.5087C65.8358 62.4959 66.1496 62.366 66.3809 62.1346C66.6122 61.9033 66.7421 61.5896 66.7421 61.2625C66.7421 60.9353 66.6122 60.6216 66.3809 60.3903C66.1496 60.159 65.8358 60.029 65.5087 60.029H55.6412V57.5622C55.6412 57.235 55.5113 56.9213 55.28 56.69C55.0487 56.4587 54.7349 56.3287 54.4078 56.3287H49.1703L47.4096 50.1616H72.9093C73.8903 50.1603 74.8307 49.77 75.5244 49.0763C76.218 48.3827 76.6083 47.4422 76.6096 46.4613V4.52452C76.6083 3.54354 76.218 2.60311 75.5244 1.90945C74.8307 1.2158 73.8903 0.825524 72.9093 0.824219V0.824219ZM53.1744 58.7956V60.029H23.572V58.7956H53.1744ZM30.1415 56.3287L31.9023 50.1616H44.8441L46.6048 56.3287H30.1415ZM74.1427 46.4613C74.1423 46.7883 74.0122 47.1017 73.781 47.3329C73.5498 47.5642 73.2363 47.6943 72.9093 47.6947H3.83702C3.51003 47.6943 3.19656 47.5642 2.96535 47.3329C2.73413 47.1017 2.60403 46.7883 2.60359 46.4613V43.9944H74.1427V46.4613ZM74.1427 41.5275H2.60359V4.52452C2.60403 4.19753 2.73413 3.88406 2.96535 3.65285C3.19656 3.42163 3.51003 3.29153 3.83702 3.29109H72.9093C73.2363 3.29153 73.5498 3.42163 73.781 3.65285C74.0122 3.88406 74.1423 4.19753 74.1427 4.52452V41.5275Z" fill="#285AA5"/>
<path id="Vector_2" d="M58.1063 23.2396V16.8597C58.1063 16.6249 58.0392 16.395 57.9131 16.197C57.7869 15.9989 57.6068 15.8411 57.394 15.7419L38.8925 7.10783C38.7293 7.03166 38.5514 6.99219 38.3714 6.99219C38.1913 6.99219 38.0134 7.03166 37.8502 7.10783L19.3487 15.7419C19.136 15.8411 18.956 15.999 18.8298 16.197C18.7037 16.395 18.6367 16.6249 18.6367 16.8597C18.6367 17.0944 18.7037 17.3243 18.8298 17.5223C18.956 17.7203 19.136 17.8782 19.3487 17.9775L26.037 21.0981V35.3612C26.037 35.6883 26.167 36.002 26.3983 36.2333C26.6296 36.4647 26.9433 36.5946 27.2705 36.5946H49.4723C49.7994 36.5946 50.1131 36.4647 50.3444 36.2333C50.5758 36.002 50.7057 35.6883 50.7057 35.3612V21.0981L55.6394 18.7962V23.2396C54.8165 23.5306 54.1229 24.1031 53.6812 24.856C53.2395 25.6089 53.0783 26.4937 53.2259 27.354C53.3735 28.2143 53.8205 28.9948 54.4878 29.5574C55.1552 30.12 56 30.4286 56.8729 30.4286C57.7458 30.4286 58.5905 30.12 59.2579 29.5574C59.9253 28.9948 60.3723 28.2143 60.5199 27.354C60.6675 26.4937 60.5062 25.6089 60.0645 24.856C59.6229 24.1031 58.9293 23.5306 58.1063 23.2396ZM48.2388 34.1277H28.5039V22.2498L37.8502 26.6115C38.0134 26.6877 38.1913 26.7271 38.3714 26.7271C38.5514 26.7271 38.7293 26.6877 38.8925 26.6115L48.2388 22.2498V34.1277ZM38.3714 24.1323L22.7869 16.8597L38.3714 9.58703L53.9558 16.8597L38.3714 24.1323ZM56.8729 27.9606C56.6289 27.9606 56.3904 27.8882 56.1876 27.7527C55.9848 27.6172 55.8267 27.4245 55.7333 27.1991C55.64 26.9738 55.6155 26.7258 55.6631 26.4865C55.7107 26.2472 55.8282 26.0275 56.0007 25.855C56.1732 25.6825 56.393 25.565 56.6322 25.5174C56.8715 25.4698 57.1195 25.4942 57.3449 25.5876C57.5703 25.6809 57.7629 25.839 57.8984 26.0419C58.034 26.2447 58.1063 26.4832 58.1063 26.7271C58.1059 27.0541 57.9758 27.3676 57.7445 27.5988C57.5133 27.83 57.1999 27.9601 56.8729 27.9606V27.9606Z" fill="#285AA5"/>
</g>
</svg>
