<svg xmlns="http://www.w3.org/2000/svg" width="21.807" height="21.809" viewBox="0 0 21.807 21.809">
  <path id="project" d="M21.837,10.142l-3.5-1.751,3.5-1.751a.853.853,0,0,0,0-1.524L11.784.089a.853.853,0,0,0-.762,0L.969,5.116a.853.853,0,0,0,0,1.524l3.5,1.751-3.5,1.751a.853.853,0,0,0,0,1.524l3.5,1.751-3.5,1.751a.853.853,0,0,0,0,1.524l10.053,5.026a.852.852,0,0,0,.762,0l10.053-5.026a.853.853,0,0,0,0-1.524l-3.5-1.751,3.5-1.751A.853.853,0,0,0,21.837,10.142ZM11.4,1.8l8.148,4.074L11.4,9.952,3.255,5.878ZM19.551,15.93,11.4,20,3.255,15.93,6.377,14.37l4.645,2.323a.852.852,0,0,0,.762,0l4.645-2.323ZM11.4,14.978,3.255,10.9,6.377,9.343l4.645,2.323a.852.852,0,0,0,.762,0l4.645-2.323L19.551,10.9Zm0,0" transform="translate(-0.499 0)" fill="$curriki-main-blue"/>
</svg>
