<svg width="24" height="32" viewBox="0 0 24 32" fill="none" xmlns="http://www.w3.org/2000/svg">
<path d="M0 4C0 1.79086 1.79086 0 4 0H20C22.2091 0 24 1.79086 24 4V28C24 30.2091 22.2091 32 20 32H4C1.79086 32 0 30.2091 0 28V4Z" fill="white"/>
<path d="M11.0513 8.89767H4.78927C4.31476 8.89767 3.85968 9.08617 3.52415 9.4217C3.18862 9.75723 3.00012 10.2123 3.00012 10.6868V23.2108C3.00012 23.6854 3.18862 24.1404 3.52415 24.476C3.85968 24.8115 4.31476 25 4.78927 25H17.3133C17.7878 25 18.2429 24.8115 18.5784 24.476C18.9139 24.1404 19.1024 23.6854 19.1024 23.2108V16.9488" stroke="#084892" stroke-width="2" stroke-linecap="round" stroke-linejoin="round"/>
<path d="M17.7605 7.55582C18.1163 7.19993 18.599 7 19.1023 7C19.6056 7 20.0883 7.19993 20.4442 7.55582C20.8001 7.9117 21 8.39438 21 8.89768C21 9.40097 20.8001 9.88365 20.4442 10.2395L11.9457 18.738L8.36743 19.6326L9.262 16.0543L17.7605 7.55582Z" stroke="#084892" stroke-width="2" stroke-linecap="round" stroke-linejoin="round"/>
</svg>
