<!-- Generator: Adobe Illustrator 20.1.0, SVG Export Plug-In  -->
<svg version="1.1"
	 xmlns="http://www.w3.org/2000/svg" xmlns:xlink="http://www.w3.org/1999/xlink" xmlns:a="http://ns.adobe.com/AdobeSVGViewerExtensions/3.0/"
	 x="0px" y="0px" width="416.6px" height="105.7px" viewBox="0 0 416.6 105.7" enable-background="new 0 0 416.6 105.7"
	 xml:space="preserve">
<defs>
</defs>
<g>
	<path fill="#003366" d="M127.9,64.3v9.8c2,1.3,5.7,2.5,8.3,2.5c6.9,0,11.6-4.2,11.6-9.8c0-4.9-2.3-6.6-8.9-9.1
		c-6-2.3-8.4-3.2-8.4-6.5c0-3.3,2.8-5.9,6.8-5.9c2.9,0,5.1,1,6.2,4.6L145,55h1v-8.9c-2.3-1-5-1.8-8.4-1.8c-6.1,0-10.2,3.6-10.2,8.8
		c0,10.6,16.6,7.1,16.6,16c0,3.8-3.2,6.5-7.3,6.5c-4.3,0-6-3-7.9-11.4H127.9z M147,46h2.4v29H147v1h9.2v-1h-2.6v-14
		c0-4.6,2.3-6.8,4.7-6.8c2.1,0,3.1,1.1,3.1,4.4v16.4h-2.6v1h9.2v-1h-2.4V59.1c0-4.9-2.5-6.6-6-6.6c-3.1,0-5,1.8-5.9,3.2h-0.1V45H147
		V46z M185.4,62.4c0-6.3-3.3-9.9-8.4-9.9c-5.3,0-9.6,4.9-9.6,12.1c0,7.1,4.1,12.1,9.7,12.1c4.6,0,8.2-3,8.4-9.2h-1
		c-0.5,5.5-3.2,8-7,8c-3.4,0-5.5-3-5.5-11.6c0-0.4,0-0.9,0.1-1.3H185.4z M172.2,61.4c0.4-5.2,2-8,4.8-8c2.3,0,3.8,1.7,3.8,6.2v1.7
		H172.2z M194.2,83.7v-1h-2.5v-9.3h0.1c1.1,2.1,2.8,3.2,5.1,3.2c4.5,0,8.7-4.2,8.7-12.1c0-6.7-3.2-12.1-8.7-12.1
		c-2.6,0-4.4,1.3-5.3,3.4h-0.1v-2.6h-6.2v1h2.1v28.5h-2.1v1H194.2z M200.9,64.6c0,8.5-1.6,10.8-4.6,10.8c-3,0-4.6-3-4.6-10.8
		c0-8.8,1.8-10.8,4.5-10.8C199.2,53.7,200.9,57.1,200.9,64.6z M205.5,46h2.4v29h-2.4v1h9.2v-1h-2.6v-14c0-4.6,2.3-6.8,4.7-6.8
		c2.1,0,3.1,1.1,3.1,4.4v16.4h-2.6v1h9.2v-1h-2.4V59.1c0-4.9-2.5-6.6-6-6.6c-3.1,0-5.1,1.8-6,3.2h-0.1V45h-6.6V46z M243.9,62.4
		c0-6.3-3.3-9.9-8.4-9.9c-5.3,0-9.6,4.9-9.6,12.1c0,7.1,4.1,12.1,9.7,12.1c4.6,0,8.2-3,8.4-9.2h-1c-0.4,5.5-3.2,8-7,8
		c-3.4,0-5.5-3-5.5-11.6c0-0.4,0-0.9,0-1.3H243.9z M230.7,61.4c0.4-5.2,2-8,4.8-8c2.3,0,3.8,1.7,3.8,6.2v1.7H230.7z M246.1,74.9
		h-2.4v1h9.6v-1h-3V61.4c0-4,1.8-7.3,3.6-7.3c1.1,0,1.5,1,2.3,3.4l1.6,4.6h1v-8.8c-0.7-0.3-2-0.8-3.1-0.8c-2.9,0-4.5,1.4-5.4,4h-0.1
		v-3.3h-6.5v1h2.4V74.9z M278.8,75.9v-1h-2.1V45h-6.3v1h2.1v10h-0.1c-1-2.2-2.9-3.4-5.1-3.4c-4.6,0-8.4,4.3-8.4,12.1
		c0,7.8,4.1,12,8.3,12c3.1,0,4.6-1.4,5.5-3.4h0.1v2.7H278.8z M263.5,65c0-9.1,1.8-11.3,4.4-11.3c3,0,4.8,3.2,4.8,11.3
		c0,7.2-1.6,10.6-4.6,10.6C265.2,75.6,263.5,73.1,263.5,65z M279.3,66.8v7.9c2.3,1.3,5.1,2,7.4,2c5.4,0,9.3-3,9.3-7.6
		c0-7.8-13.8-5.9-13.8-11.5c0-2.5,2.7-4,5.5-4c3.2,0,3.7,1.2,5.6,7.8h1.3v-7.2c-1.7-0.9-4-1.6-6.4-1.6c-5.1,0-8.8,2.7-8.8,7.1
		c0,7.5,13.9,6.6,13.9,10.9c0,3.3-2.6,5.1-6.1,5.1c-4,0-4.9-1.3-6.5-8.8H279.3z M105.8,89.6h7.5v1.5h-5.8v3.7h5.4v1.5h-5.4v5.1h-1.6
		V89.6z M115.8,89.6h1.6v11.9h-1.6V89.6z M120.8,89.6h2.1l6.5,9.8h0v-9.8h1.6v11.9h-2l-6.6-9.8h0v9.8h-1.6V89.6z M134.3,89.6h4.1
		c0.8,0,1.6,0.1,2.2,0.3c0.6,0.2,1.2,0.4,1.6,0.8s0.8,0.7,1.2,1.1c0.3,0.4,0.6,0.8,0.7,1.3c0.2,0.4,0.3,0.9,0.4,1.3s0.1,0.8,0.1,1.2
		c0,0.8-0.1,1.5-0.4,2.2c-0.3,0.7-0.7,1.3-1.2,1.9c-0.5,0.6-1.2,1-2,1.3c-0.8,0.3-1.7,0.5-2.8,0.5h-3.9V89.6z M135.9,100h2
		c0.7,0,1.3-0.1,1.9-0.3c0.6-0.2,1.1-0.5,1.6-0.8c0.5-0.4,0.8-0.8,1.1-1.4c0.3-0.6,0.4-1.2,0.4-1.9c0-0.4-0.1-0.8-0.2-1.3
		c-0.1-0.5-0.4-1-0.7-1.4s-0.8-0.8-1.4-1.2s-1.4-0.5-2.3-0.5h-2.4V100z M147.4,89.6h1.6v11.9h-1.6V89.6z M152.4,89.6h2.1l6.5,9.8h0
		v-9.8h1.6v11.9h-2l-6.6-9.8h0v9.8h-1.6V89.6z M176.2,94.8v5.8c-0.3,0.2-0.6,0.3-1,0.5s-0.8,0.2-1.1,0.3s-0.8,0.2-1.2,0.2
		c-0.4,0-0.8,0.1-1.1,0.1c-1,0-1.9-0.2-2.7-0.5c-0.8-0.3-1.5-0.8-2-1.4c-0.5-0.6-1-1.2-1.2-2c-0.3-0.8-0.4-1.5-0.4-2.4
		c0-0.9,0.2-1.7,0.5-2.5c0.3-0.8,0.7-1.4,1.3-2s1.2-1,2-1.3s1.6-0.5,2.5-0.5c1.1,0,2,0.1,2.7,0.4c0.7,0.3,1.3,0.7,1.7,1.1l-1.1,1.2
		c-0.5-0.5-1-0.8-1.6-1s-1.1-0.3-1.7-0.3c-0.7,0-1.3,0.1-1.8,0.4c-0.5,0.3-1,0.6-1.4,1c-0.4,0.4-0.7,0.9-0.9,1.5
		c-0.2,0.6-0.3,1.2-0.3,1.8c0,0.7,0.1,1.3,0.4,1.9c0.2,0.6,0.6,1.1,1,1.5s0.9,0.8,1.5,1c0.6,0.2,1.2,0.4,1.8,0.4
		c0.6,0,1.1-0.1,1.6-0.2c0.5-0.1,0.9-0.3,1.3-0.5v-3.3H172v-1.5H176.2z M184.6,89.6h1.6v4.9h6.2v-4.9h1.6v11.9h-1.6V96h-6.2v5.4
		h-1.6V89.6z M202.9,101.8c-0.9,0-1.7-0.2-2.5-0.5s-1.4-0.8-2-1.3s-1-1.2-1.3-2c-0.3-0.8-0.5-1.6-0.5-2.5s0.2-1.7,0.5-2.5
		c0.3-0.8,0.7-1.4,1.3-2s1.2-1,2-1.3s1.6-0.5,2.5-0.5c0.9,0,1.7,0.2,2.5,0.5c0.8,0.3,1.4,0.8,2,1.3s1,1.2,1.3,2
		c0.3,0.8,0.5,1.6,0.5,2.5s-0.2,1.7-0.5,2.5c-0.3,0.8-0.7,1.4-1.3,2s-1.2,1-2,1.3C204.6,101.6,203.8,101.8,202.9,101.8z
		 M202.9,100.3c0.7,0,1.3-0.1,1.8-0.4c0.5-0.3,1-0.6,1.4-1c0.4-0.4,0.7-0.9,0.9-1.5c0.2-0.6,0.3-1.2,0.3-1.8s-0.1-1.3-0.3-1.8
		c-0.2-0.6-0.5-1.1-0.9-1.5c-0.4-0.4-0.9-0.8-1.4-1c-0.5-0.3-1.2-0.4-1.8-0.4s-1.3,0.1-1.8,0.4c-0.5,0.3-1,0.6-1.4,1
		c-0.4,0.4-0.7,0.9-0.9,1.5c-0.2,0.6-0.3,1.2-0.3,1.8s0.1,1.3,0.3,1.8s0.5,1.1,0.9,1.5c0.4,0.4,0.9,0.8,1.4,1
		C201.6,100.1,202.2,100.3,202.9,100.3z M211.7,89.6h4.2c0.8,0,1.4,0.1,1.9,0.3c0.5,0.2,0.9,0.5,1.2,0.8c0.3,0.3,0.5,0.7,0.6,1.1
		c0.1,0.4,0.2,0.8,0.2,1.1c0,0.4-0.1,0.8-0.2,1.1c-0.1,0.4-0.3,0.8-0.6,1.1c-0.3,0.3-0.7,0.6-1.2,0.8c-0.5,0.2-1.1,0.3-1.9,0.3h-2.6
		v5.2h-1.6V89.6z M213.4,94.8h2.1c0.3,0,0.6,0,0.9-0.1c0.3-0.1,0.6-0.1,0.8-0.3c0.2-0.1,0.4-0.3,0.6-0.6c0.1-0.3,0.2-0.6,0.2-1
		c0-0.4-0.1-0.7-0.2-1c-0.1-0.3-0.3-0.4-0.6-0.6c-0.2-0.1-0.5-0.2-0.8-0.3c-0.3,0-0.6-0.1-0.9-0.1h-2.1V94.8z M222.1,89.6h7.7v1.5
		h-6.1v3.5h5.6v1.5h-5.6v3.8h6.4v1.5h-8V89.6z M233.5,101.6c-0.3,0-0.6-0.1-0.8-0.3c-0.2-0.2-0.3-0.5-0.3-0.8s0.1-0.6,0.3-0.8
		c0.2-0.2,0.5-0.3,0.8-0.3c0.3,0,0.6,0.1,0.8,0.3c0.2,0.2,0.3,0.5,0.3,0.8s-0.1,0.6-0.3,0.8C234.1,101.5,233.8,101.6,233.5,101.6z
		 M2.2,21c0,0,8.7,22.4,36,33.7c0,0,6.3,2.4,3.1,6.9C41.3,61.7-1.9,50.3,2.2,21L2.2,21z M0.3,43c-3,24.1,40.2,23.9,40.2,23.9
		c0.1-3.8-4.3-4.6-4.3-4.6C19.7,59.9,0.3,43,0.3,43L0.3,43z M0,61.2c5.8,14.7,24.7,11.6,24.7,11.6l15.2-1.6c0.7-2.7-6.1-2.6-6.1-2.6
		C12.5,68.2,0,61.2,0,61.2L0,61.2z M39.5,73.9c0,0-0.8-1.9-8.2,0.3c0,0-13.6,4.6-25,1.5c0,0,6,9.3,22.7,3L39.5,73.9z M38.3,86.4
		c0,0-1.1-0.5-2.6,2.8c0,0-2.7,6.3-7.7,8.7c0,0,5.7,2,8.7-6.1L38.3,86.4z M38.7,77.2c0,0-1.7-0.9-7,2.8c0,0-10.7,6.8-18.9,7
		c0,0,10,8,21.9-5.7L38.7,77.2z M37.9,81.6c0,0-1.4-0.3-4.5,3.7c0,0-6.3,7.4-12.3,9.5c0,0,9.2,3.5,14.7-9.3L37.9,81.6z M85.6,99.3
		c0-0.2-0.7-2.2-2.2-3c-6.9-4-13.1,3.4-15.8,7.3c0,0-1.4,2.1-1.4,2.1s-2.8-1.2-3.6-1.4c-3.2-1.2-6.4-2.7-9.3-4.7
		c-4.6-3.1-8.8-7.3-10.6-12.6c-3.3-9.5,3.1-21.5,2.8-26.8c-0.3-6.1-7.4-9.1-11.7-12.6c-6.1-5-11.7-10.9-15.8-17.6
		C12.6,20.6,10.8,9.6,16.7,0c1.2,12.9,8.1,25.7,16.5,35.3c4,4.6,8.7,8.7,13.7,12.2c1.8,1.3,3.4,2.2,4.6,4.1c4.6,8-2.5,16.8-3.8,24.8
		c-0.5,3.1-0.5,6.2,0.2,9.1c0-0.1,0.1-0.1,0.1-0.2c0,0,0,0,0,0c3.4-4.1,9.8-9.5,19.8-9.6c1.5,0,3,0.1,4.7,0.3c0.2,0,0.6,0.1,1.2,0.2
		c2.4,0.5,7.2,1.9,6.5,6.9c4.9,0.1,6.6,1.8,7.7,3.3C91.1,91.1,85.8,98.9,85.6,99.3z M85.8,87.9c-2.2-2.9-7.8-2.7-8.7-2.7
		c-0.1,0-0.1,0-0.1,0s2.2-5.6-5.2-6.8c-5.7-0.9-10.1,0.1-13.4,1.7h0c-5,2.5-7.6,6.6-8.8,8.6c-0.1,0.2-0.2,0.4-0.3,0.5
		c0,0.1-0.1,0.1-0.1,0.2c0,0,0,0.1,0,0.1c0.6,1.3,1.3,2.6,2.2,3.7c1.4,2,3.2,3.6,5.1,5c0,0,0,0,0,0c2.3,1.5,4.7,2.6,6.7,3.5
		c0,0,0.1,0,0.1,0.1c0.1,0,0.1,0,0.2,0.1c0.2,0.1,0.3,0.1,0.5,0.2c0.2,0.1,0.3,0.1,0.5,0.2c2.1-3.6,9.8-12.1,18.4-8.9
		c1.6,0.6,2.9,1.9,3,2.1C86.6,93.6,87.4,90.1,85.8,87.9z"/>
	<path fill="#C84623" d="M319.3,46c-2.2-1-4.7-1.7-7.7-1.7c-7.6,0-13.6,6.3-13.6,16.2c0,9.9,6,16.2,13.6,16.2c2.7,0,5.5-0.6,8-1.9
		V64.7h-1c-2,8.3-3.2,10.9-7,11c-5.5,0-8-3.6-8-15.2c0-11.6,3-15.2,7.6-15.2c3.5,0,4.3,1.1,7.1,9.7h1V46z M321.4,64.6
		c0,7.1,4.2,12.1,9.7,12.1c5.5,0,9.7-4.9,9.7-12.1c0-7.1-4.2-12.1-9.7-12.1C325.5,52.5,321.4,57.4,321.4,64.6z M326,64.6
		c0-8.7,1.7-11.1,5.1-11.1c3.4,0,5.1,2.4,5.1,11.1c0,8.7-1.7,11.1-5.1,11.1C327.7,75.6,326,73.2,326,64.6z M346.8,45h-6.3v1h2.1v29
		h-2.1v1h8.5v-1h-2.1V45z M355.8,45h-6.3v1h2.1v29h-2.1v1h8.5v-1h-2.1V45z M375.8,62.4c0-6.3-3.3-9.9-8.4-9.9
		c-5.3,0-9.6,4.9-9.6,12.1c0,7.1,4.1,12.1,9.7,12.1c4.6,0,8.2-3,8.4-9.2h-1c-0.4,5.5-3.2,8-7,8c-3.4,0-5.5-3-5.5-11.6
		c0-0.4,0-0.9,0-1.3H375.8z M362.6,61.4c0.4-5.2,2-8,4.8-8c2.3,0,3.8,1.7,3.8,6.2v1.7H362.6z M397,53.2h-5.5
		c-0.9-0.4-2.4-0.7-3.5-0.7c-4.6,0-8,3-8,7.3c0,2.3,0.8,4.2,1.7,5.2c-2.5,0.7-4.6,2.4-4.6,5.6c0,2.3,1.2,4.4,3.9,5v0.1
		c-1.2,0.4-2.9,1.7-2.9,3.3c0,2.4,3,5.4,9.7,5.4c5.9,0,9.7-3.6,9.7-7.2c0-9.9-18.1-1.5-18.1-8.4c0-1.5,1.8-2.9,3.1-2.9
		c0.6,0,1.3,1.6,5.5,1.6c4.6,0,8-3.3,8-7.6c0-2.1-0.8-4.4-2.4-5.5v-0.1h3.4V53.2z M380.9,79.2c0-1.3,0.5-2.6,1.6-3.3l8.4,0.2
		c3.4,0.1,4.1,1,4.1,2.7c0,2.3-3,4.6-7.7,4.6C383.3,83.4,380.9,81.2,380.9,79.2z M384.4,60c0-5.2,1.2-6.6,3.6-6.6
		c2.3,0,3.6,1.3,3.6,6.6c0,5.2-1.3,6.6-3.6,6.6C385.3,66.6,384.4,65.3,384.4,60z M414.7,62.4c0-6.3-3.3-9.9-8.4-9.9
		c-5.3,0-9.6,4.9-9.6,12.1c0,7.1,4.1,12.1,9.7,12.1c4.5,0,8.2-3,8.4-9.2h-1c-0.4,5.5-3.2,8-7,8c-3.4,0-5.5-3-5.5-11.6
		c0-0.4,0-0.9,0-1.3H414.7z M401.4,61.4c0.4-5.2,2-8,4.8-8c2.3,0,3.8,1.7,3.8,6.2v1.7H401.4z M242.8,89.6h7.5v1.5h-5.8v3.7h5.4v1.5
		h-5.4v5.1h-1.6V89.6z M254.2,89.6v7.3c0,0.4,0.1,0.8,0.2,1.1c0.1,0.4,0.3,0.8,0.5,1.1c0.2,0.3,0.5,0.6,0.9,0.8
		c0.4,0.2,0.8,0.3,1.4,0.3s1-0.1,1.4-0.3c0.4-0.2,0.7-0.5,0.9-0.8c0.2-0.3,0.4-0.7,0.5-1.1c0.1-0.4,0.2-0.8,0.2-1.1v-7.3h1.6v7.5
		c0,0.7-0.1,1.3-0.4,1.9s-0.6,1.1-1,1.5c-0.4,0.4-0.9,0.7-1.5,1c-0.6,0.2-1.2,0.3-1.8,0.3s-1.3-0.1-1.8-0.3c-0.6-0.2-1-0.5-1.5-1
		c-0.4-0.4-0.7-0.9-1-1.5s-0.4-1.2-0.4-1.9v-7.5H254.2z M265,89.6h1.6V100h5.4v1.5H265V89.6z M274.1,89.6h7.5v1.5h-5.8v3.7h5.4v1.5
		h-5.4v5.1h-1.6V89.6z M284.1,89.6h1.6v11.9h-1.6V89.6z M289.1,89.6h1.6V100h5.4v1.5h-7.1V89.6z M298.2,89.6h1.6V100h5.4v1.5h-7.1
		V89.6z M307.3,89.6h1.6v11.9h-1.6V89.6z M312.3,89.6h2.1l6.5,9.8h0v-9.8h1.6v11.9h-2l-6.6-9.8h0v9.8h-1.6V89.6z M336.2,94.8v5.8
		c-0.3,0.2-0.6,0.3-1,0.5s-0.8,0.2-1.1,0.3s-0.8,0.2-1.2,0.2c-0.4,0-0.8,0.1-1.1,0.1c-1,0-1.9-0.2-2.7-0.5c-0.8-0.3-1.5-0.8-2-1.4
		c-0.5-0.6-1-1.2-1.2-2c-0.3-0.8-0.4-1.5-0.4-2.4c0-0.9,0.2-1.7,0.5-2.5c0.3-0.8,0.7-1.4,1.3-2s1.2-1,2-1.3s1.6-0.5,2.5-0.5
		c1.1,0,2,0.1,2.7,0.4c0.7,0.3,1.3,0.7,1.7,1.1l-1.1,1.2c-0.5-0.5-1-0.8-1.6-1s-1.1-0.3-1.7-0.3c-0.7,0-1.3,0.1-1.8,0.4
		c-0.5,0.3-1,0.6-1.4,1c-0.4,0.4-0.7,0.9-0.9,1.5c-0.2,0.6-0.3,1.2-0.3,1.8c0,0.7,0.1,1.3,0.4,1.9c0.2,0.6,0.6,1.1,1,1.5
		s0.9,0.8,1.5,1c0.6,0.2,1.2,0.4,1.8,0.4c0.6,0,1.1-0.1,1.6-0.2c0.5-0.1,0.9-0.3,1.3-0.5v-3.3h-2.6v-1.5H336.2z M344.2,89.6h4.1
		c0.8,0,1.6,0.1,2.2,0.3c0.6,0.2,1.2,0.4,1.6,0.8s0.8,0.7,1.2,1.1c0.3,0.4,0.6,0.8,0.7,1.3c0.2,0.4,0.3,0.9,0.4,1.3s0.1,0.8,0.1,1.2
		c0,0.8-0.1,1.5-0.4,2.2c-0.3,0.7-0.7,1.3-1.2,1.9c-0.5,0.6-1.2,1-2,1.3c-0.8,0.3-1.7,0.5-2.8,0.5h-3.9V89.6z M345.9,100h2
		c0.7,0,1.3-0.1,1.9-0.3c0.6-0.2,1.1-0.5,1.6-0.8c0.5-0.4,0.8-0.8,1.1-1.4c0.3-0.6,0.4-1.2,0.4-1.9c0-0.4-0.1-0.8-0.2-1.3
		c-0.1-0.5-0.4-1-0.7-1.4s-0.8-0.8-1.4-1.2s-1.4-0.5-2.3-0.5h-2.4V100z M357.3,89.6h4.2c0.8,0,1.4,0.1,1.9,0.3
		c0.5,0.2,0.9,0.5,1.2,0.8c0.3,0.3,0.5,0.7,0.6,1.1c0.1,0.4,0.2,0.8,0.2,1.1c0,0.4-0.1,0.7-0.2,1.1c-0.1,0.4-0.3,0.7-0.6,1
		s-0.6,0.5-0.9,0.7s-0.8,0.3-1.2,0.4l3.4,5.4h-2l-3-5.2h-1.8v5.2h-1.6V89.6z M358.9,94.8h2.1c0.3,0,0.6,0,0.9-0.1
		c0.3-0.1,0.6-0.1,0.8-0.3c0.2-0.1,0.4-0.3,0.6-0.6c0.1-0.3,0.2-0.6,0.2-1c0-0.4-0.1-0.7-0.2-1c-0.1-0.3-0.3-0.4-0.6-0.6
		c-0.2-0.1-0.5-0.2-0.8-0.3c-0.3,0-0.6-0.1-0.9-0.1h-2.1V94.8z M367.9,89.6h7.7v1.5h-6.1v3.5h5.6v1.5h-5.6v3.8h6.4v1.5h-8V89.6z
		 M382.3,89.6h1.5l5.1,11.9H387l-1.2-2.9h-5.6l-1.2,2.9h-1.9L382.3,89.6z M385.2,97.1l-2.2-5.4h0l-2.2,5.4H385.2z M390.6,89.6h2.4
		l3.8,9h0.1l3.7-9h2.4v11.9h-1.6v-9.8h0l-4,9.8h-1.1l-4-9.8h0v9.8h-1.6V89.6z M406.7,99c0.3,0.4,0.7,0.8,1.1,1
		c0.5,0.2,0.9,0.3,1.4,0.3c0.3,0,0.5,0,0.8-0.1c0.3-0.1,0.5-0.2,0.8-0.4c0.2-0.2,0.4-0.4,0.6-0.6c0.1-0.2,0.2-0.5,0.2-0.9
		c0-0.5-0.1-0.8-0.4-1c-0.3-0.2-0.7-0.4-1.1-0.6c-0.4-0.2-0.9-0.3-1.4-0.5c-0.5-0.2-1-0.4-1.4-0.6c-0.4-0.3-0.8-0.6-1.1-1.1
		c-0.3-0.5-0.4-1.1-0.4-1.8c0-0.3,0.1-0.7,0.2-1.1c0.2-0.4,0.4-0.7,0.7-1.1c0.3-0.3,0.7-0.6,1.2-0.8c0.5-0.2,1.1-0.3,1.8-0.3
		c0.6,0,1.3,0.1,1.9,0.3c0.6,0.2,1.1,0.5,1.6,1.1l-1.3,1.2c-0.2-0.3-0.5-0.6-0.9-0.8c-0.4-0.2-0.8-0.3-1.3-0.3
		c-0.4,0-0.8,0.1-1.1,0.2s-0.5,0.3-0.7,0.5c-0.2,0.2-0.3,0.4-0.4,0.6c-0.1,0.2-0.1,0.4-0.1,0.6c0,0.5,0.1,0.9,0.4,1.2
		c0.3,0.3,0.7,0.5,1.1,0.7c0.4,0.2,0.9,0.3,1.4,0.5c0.5,0.1,1,0.3,1.4,0.6c0.4,0.2,0.8,0.6,1.1,1c0.3,0.4,0.4,1,0.4,1.7
		c0,0.6-0.1,1.1-0.3,1.5c-0.2,0.5-0.5,0.8-0.9,1.2c-0.4,0.3-0.8,0.6-1.3,0.7c-0.5,0.2-1,0.3-1.6,0.3c-0.8,0-1.5-0.1-2.2-0.4
		s-1.2-0.7-1.6-1.2L406.7,99z M415.5,101.6c-0.3,0-0.6-0.1-0.8-0.3c-0.2-0.2-0.3-0.5-0.3-0.8s0.1-0.6,0.3-0.8
		c0.2-0.2,0.5-0.3,0.8-0.3c0.3,0,0.6,0.1,0.8,0.3c0.2,0.2,0.3,0.5,0.3,0.8s-0.1,0.6-0.3,0.8C416.1,101.5,415.8,101.6,415.5,101.6z
		 M113.6,21c4.1,29.2-39.1,40.6-39.1,40.6c-3.2-4.5,3.1-6.9,3.1-6.9C104.9,43.5,113.6,21,113.6,21L113.6,21z M115.4,43
		c0,0-19.4,17-35.9,19.2c0,0-4.4,0.8-4.3,4.6C75.3,66.8,118.5,67.1,115.4,43L115.4,43z M115.7,61.2c0,0-12.5,7.1-33.8,7.4
		c0,0-6.8-0.2-6.1,2.6l15.2,1.6C91.1,72.7,109.9,75.8,115.7,61.2L115.7,61.2z M86.9,78.7c16.7,6.3,22.7-3,22.7-3
		c-11.4,3.1-25-1.5-25-1.5c-7.4-2.2-8.2-0.3-8.2-0.3L86.9,78.7z M99,0c-1.2,12.9-8.1,25.7-16.5,35.3c-4,4.6-8.7,8.7-13.7,12.2
		c-1.8,1.3-3.4,2.2-4.6,4.1c-4.4,7.8,2,16.3,3.7,24.1c1.5,0,3,0.1,4.7,0.3c0.2,0,0.6,0.1,1,0.2c-1-6.5-3.6-12.7-3.4-16.1
		c0.3-6.1,7.4-9.1,11.7-12.6c6.1-5,11.7-10.9,15.8-17.6C103.2,20.6,104.9,9.6,99,0z"/>
</g>
</svg>
