<svg xmlns="http://www.w3.org/2000/svg" width="19.842" height="13.892" viewBox="0 0 19.842 13.892"><defs><style>.a{fill:#d6d6d6;}</style></defs><path class="a" d="M19.433-3.908a2.486,2.486,0,0,0-1.749-1.749c-1.553-.425-7.763-.425-7.763-.425s-6.211,0-7.763.409A2.536,2.536,0,0,0,.409-3.908,26.192,26.192,0,0,0,0,.864,26.1,26.1,0,0,0,.409,5.636,2.486,2.486,0,0,0,2.158,7.385c1.569.425,7.763.425,7.763.425s6.211,0,7.763-.409a2.486,2.486,0,0,0,1.749-1.749A26.2,26.2,0,0,0,19.842.88a24.863,24.863,0,0,0-.409-4.789ZM7.944,3.839V-2.11L13.108.864Zm0,0" transform="translate(-0.001 6.082)"/></svg>