<svg width="16" height="16" viewBox="0 0 16 16" fill="none" xmlns="http://www.w3.org/2000/svg">
<path d="M13.9992 3.63672V6.90931H10.7266" stroke="#084892" stroke-width="1.5" stroke-linecap="round" stroke-linejoin="round"/>
<path d="M2 12.3663V9.09375H5.27259" stroke="#084892" stroke-width="1.5" stroke-linecap="round" stroke-linejoin="round"/>
<path d="M3.36903 6.36505C3.64566 5.58333 4.1158 4.88442 4.73559 4.33354C5.35539 3.78267 6.10463 3.39777 6.9134 3.21478C7.72218 3.03178 8.56413 3.05665 9.3607 3.28706C10.1573 3.51746 10.8825 3.9459 11.4687 4.5324L13.9995 6.91048M2 9.0922L4.5308 11.4703C5.117 12.0568 5.84222 12.4852 6.63879 12.7156C7.43536 12.946 8.27731 12.9709 9.08609 12.7879C9.89487 12.6049 10.6441 12.22 11.2639 11.6691C11.8837 11.1183 12.3538 10.4194 12.6305 9.63764" stroke="#084892" stroke-width="1.5" stroke-linecap="round" stroke-linejoin="round"/>
</svg>
