<svg xmlns="http://www.w3.org/2000/svg" width="25.801" height="25.5" viewBox="0 0 25.801 25.5">
  <g id="network" transform="translate(0 -1.86)">
    <g id="Group_1564" data-name="Group 1564" transform="translate(0 1.86)">
      <path id="Path_2637" data-name="Path 2637" d="M122.351,8.677a3.541,3.541,0,0,0-1.893-3.131,2.247,2.247,0,1,0-3.417.036,3.541,3.541,0,0,0-1.826,3.1v1.885h7.136Zm-3.617-5.6A1.032,1.032,0,1,1,117.7,4.107,1.033,1.033,0,0,1,118.734,3.075Zm2.4,6.272H116.43v-.67a2.326,2.326,0,0,1,2.323-2.323h.059a2.326,2.326,0,0,1,2.323,2.323v.67Z" transform="translate(-105.882 -1.86)" fill="$curriki-main-blue"/>
      <path id="Path_2638" data-name="Path 2638" d="M5.243,212.926a2.247,2.247,0,1,0-3.417.036A3.54,3.54,0,0,0,0,216.057v1.885H7.136v-1.885A3.541,3.541,0,0,0,5.243,212.926Zm-1.724-2.471a1.032,1.032,0,1,1-1.032,1.032A1.033,1.033,0,0,1,3.519,210.455Zm2.4,6.272H1.215v-.67a2.326,2.326,0,0,1,2.323-2.323H3.6a2.326,2.326,0,0,1,2.323,2.323S5.921,216.727,5.921,216.727Z" transform="translate(0 -192.442)" fill="$curriki-main-blue"/>
      <path id="Path_2639" data-name="Path 2639" d="M235.673,212.926a2.247,2.247,0,1,0-3.417.036,3.541,3.541,0,0,0-1.826,3.1v1.885h7.136v-1.885A3.541,3.541,0,0,0,235.673,212.926Zm-1.724-2.471a1.032,1.032,0,1,1-1.032,1.032A1.033,1.033,0,0,1,233.949,210.455Zm2.4,6.272h-4.706v-.67a2.326,2.326,0,0,1,2.323-2.323h.059a2.326,2.326,0,0,1,2.323,2.323v.67Z" transform="translate(-211.765 -192.442)" fill="$curriki-main-blue"/>
      <path id="Path_2640" data-name="Path 2640" d="M104.883,134.949h-1.215v4l-4.239,4.239.859.859,3.988-3.988,3.987,3.988.859-.859-4.239-4.239Z" transform="translate(-91.375 -124.168)" fill="$curriki-main-blue"/>
    </g>
  </g>
</svg>
