<svg width="24" height="24" viewBox="0 0 24 24" fill="none" xmlns="http://www.w3.org/2000/svg">
<path d="M11.0512 4.89746H4.78915C4.31464 4.89746 3.85956 5.08596 3.52403 5.42149C3.1885 5.75702 3 6.2121 3 6.68661V19.2106C3 19.6851 3.1885 20.1402 3.52403 20.4757C3.85956 20.8113 4.31464 20.9998 4.78915 20.9998H17.3132C17.7877 20.9998 18.2428 20.8113 18.5783 20.4757C18.9138 20.1402 19.1023 19.6851 19.1023 19.2106V12.9486" stroke="#084892" stroke-width="2" stroke-linecap="round" stroke-linejoin="round"/>
<path d="M17.7602 3.55582C18.1161 3.19993 18.5988 3 19.1021 3C19.6054 3 20.088 3.19993 20.4439 3.55582C20.7998 3.9117 20.9997 4.39438 20.9997 4.89768C20.9997 5.40097 20.7998 5.88365 20.4439 6.23954L11.9455 14.738L8.36719 15.6326L9.26176 12.0543L17.7602 3.55582Z" stroke="#084892" stroke-width="2" stroke-linecap="round" stroke-linejoin="round"/>
</svg>
