<svg width="16" height="16" viewBox="0 0 16 16" fill="none" xmlns="http://www.w3.org/2000/svg">
<path d="M12.8399 7.2998H3.16102C2.39738 7.2998 1.77832 7.9266 1.77832 8.69979V13.5997C1.77832 14.3729 2.39738 14.9997 3.16102 14.9997H12.8399C13.6036 14.9997 14.2226 14.3729 14.2226 13.5997V8.69979C14.2226 7.9266 13.6036 7.2998 12.8399 7.2998Z" stroke="#084892" stroke-width="1.5" stroke-linecap="round" stroke-linejoin="round"/>
<path d="M4.54297 7.29992V4.49996C4.54297 3.57171 4.90716 2.68148 5.55543 2.02511C6.20369 1.36874 7.08293 1 7.99972 1C8.9165 1 9.79574 1.36874 10.444 2.02511C11.0923 2.68148 11.4565 3.57171 11.4565 4.49996V7.29992" stroke="#084892" stroke-width="1.5" stroke-linecap="round" stroke-linejoin="round"/>
</svg>
