<svg width="24" height="24" viewBox="0 0 24 24" fill="none" xmlns="http://www.w3.org/2000/svg">
<path d="M20.6084 17.4782H18.5243C18.1855 16.3505 17.1493 15.5217 15.9128 15.5217C14.6763 15.5217 13.6408 16.3505 13.3012 17.4782H3.391C2.959 17.4782 2.6084 17.8288 2.6084 18.2608C2.6084 18.6928 2.959 19.0434 3.391 19.0434H13.3012C13.64 20.1711 14.6762 20.9999 15.9127 20.9999C17.1492 20.9999 18.1847 20.1711 18.5243 19.0434H20.6084C21.0412 19.0434 21.391 18.6928 21.391 18.2608C21.391 17.8288 21.0412 17.4782 20.6084 17.4782ZM15.9128 19.4347C15.2655 19.4347 14.7389 18.908 14.7389 18.2608C14.7389 17.6136 15.2655 17.0869 15.9128 17.0869C16.56 17.0869 17.0867 17.6136 17.0867 18.2608C17.0867 18.908 16.56 19.4347 15.9128 19.4347Z" fill="black"/>
<path d="M20.6084 4.95651H18.5243C18.1847 3.82878 17.1493 3 15.9128 3C14.6763 3 13.6408 3.82878 13.3012 4.95651H3.391C2.959 4.95651 2.6084 5.30711 2.6084 5.73911C2.6084 6.17111 2.959 6.5217 3.391 6.5217H13.3012C13.6408 7.64947 14.6762 8.47825 15.9128 8.47825C17.1493 8.47825 18.1847 7.64947 18.5243 6.52174H20.6084C21.0412 6.52174 21.391 6.17114 21.391 5.73914C21.391 5.30714 21.0412 4.95651 20.6084 4.95651ZM15.9128 6.91302C15.2655 6.91302 14.7389 6.38634 14.7389 5.73911C14.7389 5.09188 15.2655 4.56519 15.9128 4.56519C16.56 4.56519 17.0867 5.09188 17.0867 5.73911C17.0867 6.38634 16.56 6.91302 15.9128 6.91302Z" fill="black"/>
<path d="M20.6084 11.2175H10.6982C10.3586 10.0897 9.32318 9.26096 8.08669 9.26096C6.85019 9.26096 5.81476 10.0897 5.47513 11.2175H3.391C2.959 11.2175 2.6084 11.5681 2.6084 12.0001C2.6084 12.4321 2.959 12.7827 3.391 12.7827H5.4751C5.81476 13.9104 6.85015 14.7392 8.08665 14.7392C9.32315 14.7392 10.3586 13.9104 10.6982 12.7827H20.6084C21.0412 12.7827 21.391 12.4321 21.391 12.0001C21.391 11.5681 21.0412 11.2175 20.6084 11.2175ZM8.08665 13.174C7.43942 13.174 6.91274 12.6473 6.91274 12.0001C6.91274 11.3528 7.43942 10.8262 8.08665 10.8262C8.73388 10.8262 9.26056 11.3528 9.26056 12.0001C9.26056 12.6473 8.73388 13.174 8.08665 13.174Z" fill="black"/>
</svg>
