<svg width="12" height="14" viewBox="0 0 12 14" fill="none" xmlns="http://www.w3.org/2000/svg">
<path d="M0.75 3.39966H1.91667H11.25" stroke="#084892" stroke-width="1.5" stroke-linecap="round" stroke-linejoin="round"/>
<path d="M3.66699 3.4V2.2C3.66699 1.88174 3.78991 1.57652 4.0087 1.35147C4.22749 1.12643 4.52424 1 4.83366 1H7.16699C7.47641 1 7.77316 1.12643 7.99195 1.35147C8.21074 1.57652 8.33366 1.88174 8.33366 2.2V3.4M10.0837 3.4V11.8C10.0837 12.1183 9.96074 12.4235 9.74195 12.6485C9.52316 12.8736 9.22641 13 8.91699 13H3.08366C2.77424 13 2.47749 12.8736 2.2587 12.6485C2.03991 12.4235 1.91699 12.1183 1.91699 11.8V3.4H10.0837Z" stroke="#084892" stroke-width="1.5" stroke-linecap="round" stroke-linejoin="round"/>
<path d="M4.83301 6.39966V9.99966" stroke="#084892" stroke-width="1.5" stroke-linecap="round" stroke-linejoin="round"/>
<path d="M7.16699 6.39966V9.99966" stroke="#084892" stroke-width="1.5" stroke-linecap="round" stroke-linejoin="round"/>
</svg>
