<svg width="56" height="56" viewBox="0 0 56 56" fill="none" xmlns="http://www.w3.org/2000/svg">
<path d="M28 54C42.3594 54 54 42.3594 54 28C54 13.6406 42.3594 2 28 2C13.6406 2 2 13.6406 2 28C2 42.3594 13.6406 54 28 54Z" stroke="#2E68BF" stroke-width="4" stroke-linecap="round" stroke-linejoin="round"/>
<path d="M20.4336 20.2003C21.0449 18.4626 22.2514 16.9974 23.8395 16.064C25.4276 15.1307 27.2947 14.7895 29.1103 15.101C30.9258 15.4124 32.5725 16.3563 33.7588 17.7655C34.9451 19.1747 35.5943 20.9583 35.5916 22.8003C35.5916 28.0003 27.7916 30.6003 27.7916 30.6003" stroke="#2E68BF" stroke-width="4" stroke-linecap="round" stroke-linejoin="round"/>
<path d="M28 41H28.0348" stroke="#2E68BF" stroke-width="4" stroke-linecap="round" stroke-linejoin="round"/>
</svg>
