<svg width="24" height="12" viewBox="0 0 24 12" fill="none" xmlns="http://www.w3.org/2000/svg">
<path d="M15 1H18C18.6566 1 19.3068 1.12933 19.9134 1.3806C20.52 1.63188 21.0712 2.00017 21.5355 2.46447C21.9998 2.92876 22.3681 3.47996 22.6194 4.08658C22.8707 4.69321 23 5.34339 23 6C23 6.65661 22.8707 7.30679 22.6194 7.91342C22.3681 8.52004 21.9998 9.07124 21.5355 9.53553C21.0712 9.99983 20.52 10.3681 19.9134 10.6194C19.3068 10.8707 18.6566 11 18 11H15M9 11H6C5.34339 11 4.69321 10.8707 4.08658 10.6194C3.47995 10.3681 2.92876 9.99983 2.46447 9.53553C1.52678 8.59785 1 7.32608 1 6C1 4.67392 1.52678 3.40215 2.46447 2.46447C3.40215 1.52678 4.67392 1 6 1H9" stroke="#084892" stroke-width="2" stroke-linecap="round" stroke-linejoin="round"/>
<path d="M7.99951 5.99976H15.9995" stroke="#084892" stroke-width="2" stroke-linecap="round" stroke-linejoin="round"/>
</svg>
