<svg width="16" height="12" viewBox="0 0 16 12" fill="none" xmlns="http://www.w3.org/2000/svg">
<path d="M15.1875 9.12502H14.25V2.25001C14.25 1.56062 13.6894 1 13 1H2.99999C2.31061 1 1.74998 1.5606 1.74998 2.25001V9.12502H0.81248C0.639775 9.12502 0.5 9.26476 0.5 9.4375V9.75001C0.5 10.4394 1.0606 11 1.75001 11H14.25C14.9394 11 15.5 10.4394 15.5 9.75001V9.4375C15.5 9.26476 15.3602 9.12502 15.1875 9.12502ZM2.375 2.25001C2.375 1.90548 2.65546 1.62502 2.99999 1.62502H13C13.3445 1.62502 13.625 1.90548 13.625 2.25001V9.12502H9.56249H6.43751H2.375V2.25001ZM14.25 10.375H1.75001C1.40548 10.375 1.12502 10.0945 1.12502 9.75001H2.06252H6.30811L6.52906 9.97096C6.58766 10.0296 6.66699 10.0625 6.75002 10.0625H9.25001C9.33301 10.0625 9.41237 10.0296 9.47097 9.97096L9.69189 9.75001H13.9375H14.875C14.875 10.0945 14.5946 10.375 14.25 10.375Z" fill="#515151" stroke="#515151" stroke-width="0.5"/>
</svg>
