<svg width="16" height="16" viewBox="0 0 16 16" fill="none" xmlns="http://www.w3.org/2000/svg">
<path d="M6.69336 8.65438C6.97409 9.03006 7.33225 9.34091 7.74355 9.56585C8.15484 9.79078 8.60966 9.92455 9.07714 9.95806C9.54462 9.99157 10.0138 9.92405 10.453 9.76008C10.8921 9.59611 11.2908 9.33953 11.6222 9.00772L13.5833 7.04467C14.1786 6.42762 14.5081 5.60116 14.5006 4.74332C14.4932 3.88548 14.1494 3.06488 13.5434 2.45827C12.9374 1.85166 12.1177 1.50758 11.2607 1.50012C10.4037 1.49267 9.5781 1.82244 8.96167 2.41842L7.83732 3.53736" stroke="#084892" stroke-width="1.5" stroke-linecap="round" stroke-linejoin="round"/>
<path d="M9.3074 7.34561C9.02667 6.96993 8.66851 6.65908 8.25721 6.43414C7.84591 6.2092 7.3911 6.07544 6.92361 6.04193C6.45613 6.00841 5.98692 6.07593 5.54779 6.2399C5.10867 6.40387 4.70991 6.66046 4.37857 6.99226L2.41749 8.95531C1.82212 9.57237 1.49268 10.3988 1.50012 11.2567C1.50757 12.1145 1.85131 12.9351 2.45731 13.5417C3.06331 14.1483 3.88308 14.4924 4.74005 14.4999C5.59703 14.5073 6.42265 14.1775 7.03909 13.5816L8.1569 12.4626" stroke="#084892" stroke-width="1.5" stroke-linecap="round" stroke-linejoin="round"/>
</svg>
