<svg width="20" height="18" viewBox="0 0 20 18" fill="none" xmlns="http://www.w3.org/2000/svg">
<path d="M18.6089 14.4799H16.5248C16.186 13.3522 15.1498 12.5234 13.9133 12.5234C12.6768 12.5234 11.6413 13.3522 11.3017 14.4799H1.39148C0.959483 14.4799 0.608887 14.8306 0.608887 15.2626C0.608887 15.6946 0.959483 16.0452 1.39148 16.0452H11.3017C11.6405 17.1729 12.6767 18.0017 13.9132 18.0017C15.1497 18.0017 16.1851 17.1729 16.5248 16.0452H18.6089C19.0416 16.0452 19.3915 15.6946 19.3915 15.2626C19.3915 14.8306 19.0417 14.4799 18.6089 14.4799ZM13.9133 16.4365C13.266 16.4365 12.7393 15.9098 12.7393 15.2626C12.7393 14.6154 13.266 14.0887 13.9133 14.0887C14.5605 14.0887 15.0872 14.6154 15.0872 15.2626C15.0872 15.9098 14.5604 16.4365 13.9133 16.4365Z" fill="#2E68BF"/>
<path d="M18.6089 1.95651H16.5248C16.1851 0.828783 15.1498 0 13.9133 0C12.6768 0 11.6413 0.828783 11.3017 1.95651H1.39148C0.959483 1.95651 0.608887 2.30711 0.608887 2.73911C0.608887 3.17111 0.959483 3.5217 1.39148 3.5217H11.3017C11.6413 4.64947 12.6767 5.47825 13.9133 5.47825C15.1498 5.47825 16.1852 4.64947 16.5248 3.52174H18.6089C19.0417 3.52174 19.3915 3.17114 19.3915 2.73914C19.3915 2.30714 19.0417 1.95651 18.6089 1.95651ZM13.9133 3.91302C13.266 3.91302 12.7393 3.38634 12.7393 2.73911C12.7393 2.09188 13.266 1.56519 13.9133 1.56519C14.5605 1.56519 15.0872 2.09188 15.0872 2.73911C15.0872 3.38634 14.5604 3.91302 13.9133 3.91302Z" fill="#2E68BF"/>
<path d="M18.6089 8.21823H8.69873C8.35907 7.0905 7.32367 6.26172 6.08718 6.26172C4.85068 6.26172 3.81525 7.0905 3.47562 8.21823H1.39148C0.959483 8.21823 0.608887 8.56883 0.608887 9.00083C0.608887 9.43283 0.959483 9.78343 1.39148 9.78343H3.47558C3.81525 10.9112 4.85064 11.7399 6.08714 11.7399C7.32364 11.7399 8.35907 10.9112 8.69869 9.78343H18.6089C19.0416 9.78343 19.3915 9.43283 19.3915 9.00083C19.3915 8.56883 19.0417 8.21823 18.6089 8.21823ZM6.08714 10.1747C5.43991 10.1747 4.91322 9.64806 4.91322 9.00083C4.91322 8.3536 5.43991 7.82691 6.08714 7.82691C6.73437 7.82691 7.26105 8.3536 7.26105 9.00083C7.26105 9.64806 6.73437 10.1747 6.08714 10.1747Z" fill="#2E68BF"/>
</svg>
