<svg width="40" height="41" viewBox="0 0 40 41" fill="none" xmlns="http://www.w3.org/2000/svg">
<path d="M20 0.5C8.95258 0.5 0 9.45495 0 20.5C0 31.5463 8.9537 40.5 20 40.5C31.045 40.5 39.9987 31.5463 39.9987 20.5C39.9987 9.45621 31.045 0.5 20 0.5ZM20 36.7499C11.0251 36.7499 3.75006 29.4749 3.75006 20.5C3.75006 11.5251 11.0263 4.25006 20 4.25006C28.9737 4.25006 36.2487 11.5251 36.2487 20.5C36.2487 29.4749 28.9738 36.7499 20 36.7499ZM27.8601 11.9925C27.01 11.4851 25.9238 11.7863 25.4351 12.6675L18.7288 24.7138L14.9938 20.1675C14.3176 19.3887 13.4189 18.985 12.5701 19.4925C11.72 20.0012 11.3688 21.225 11.9189 22.0101L17.1163 28.3363C17.5051 28.8412 17.9488 29.1438 18.4126 29.2301L18.4639 29.2402C18.5689 29.2564 20.139 29.5464 20.8152 28.3364L28.5128 14.5102C29.0012 13.6275 28.7101 12.5012 27.8601 11.9925Z" fill="#12B347"/>
</svg>
