<svg width="26" height="18" viewBox="0 0 26 18" fill="none" xmlns="http://www.w3.org/2000/svg">
<path d="M24.9792 14.2067H23.4167V2.74839C23.4167 1.59941 22.4823 0.665039 21.3333 0.665039H4.66665C3.51768 0.665039 2.5833 1.59937 2.5833 2.74839V14.2067H1.0208C0.732959 14.2067 0.5 14.4396 0.5 14.7275V15.2484C0.5 16.3974 1.43433 17.3317 2.58335 17.3317H23.4167C24.5657 17.3317 25.5 16.3974 25.5 15.2484V14.7275C25.5 14.4396 25.267 14.2067 24.9792 14.2067ZM3.625 2.74839C3.625 2.17417 4.09243 1.70674 4.66665 1.70674H21.3333C21.9075 1.70674 22.375 2.17417 22.375 2.74839V14.2067H15.6042H10.3959H3.625V2.74839ZM23.4167 16.29H2.58335C2.00913 16.29 1.5417 15.8226 1.5417 15.2484H3.1042H10.1802L10.5484 15.6166C10.6461 15.7143 10.7783 15.7692 10.9167 15.7692H15.0833C15.2217 15.7692 15.354 15.7143 15.4516 15.6166L15.8198 15.2484H22.8958H24.4583C24.4583 15.8226 23.9909 16.29 23.4167 16.29Z" fill="#515151"/>
</svg>
