<svg width="14" height="14" viewBox="0 0 14 14" fill="none" xmlns="http://www.w3.org/2000/svg">
<path d="M6.36836 2.26508H2.19368C1.87734 2.26508 1.57396 2.39074 1.35027 2.61443C1.12658 2.83812 1.00092 3.1415 1.00092 3.45784V11.8072C1.00092 12.1235 1.12658 12.4269 1.35027 12.6506C1.57396 12.8743 1.87734 13 2.19368 13H10.543C10.8594 13 11.1628 12.8743 11.3865 12.6506C11.6101 12.4269 11.7358 12.1235 11.7358 11.8072V7.63252" stroke="#959595" stroke-width="1.5" stroke-linecap="round" stroke-linejoin="round"/>
<path d="M10.8403 1.37054C11.0776 1.13329 11.3994 1 11.7349 1C12.0704 1 12.3922 1.13329 12.6295 1.37054C12.8667 1.6078 13 1.92959 13 2.26512C13 2.60065 12.8667 2.92244 12.6295 3.15969L6.96383 8.82533L4.57829 9.42172L5.17468 7.03618L10.8403 1.37054Z" stroke="#959595" stroke-width="1.5" stroke-linecap="round" stroke-linejoin="round"/>
</svg>
