<svg width="20" height="20" viewBox="0 0 20 20" fill="none" xmlns="http://www.w3.org/2000/svg">
<path d="M9.05116 2.89764H2.78915C2.31464 2.89764 1.85956 3.08614 1.52403 3.42167C1.1885 3.7572 1 4.21228 1 4.68679V17.2108C1 17.6853 1.1885 18.1404 1.52403 18.4759C1.85956 18.8115 2.31464 19 2.78915 19H15.3132C15.7877 19 16.2428 18.8115 16.5783 18.4759C16.9138 18.1404 17.1023 17.6853 17.1023 17.2108V10.9488" stroke="#084892" stroke-width="2" stroke-linecap="round" stroke-linejoin="round"/>
<path d="M15.7602 1.55582C16.1161 1.19993 16.5988 1 17.1021 1C17.6054 1 18.088 1.19993 18.4439 1.55582C18.7998 1.9117 18.9997 2.39438 18.9997 2.89768C18.9997 3.40097 18.7998 3.88365 18.4439 4.23954L9.94548 12.738L6.36719 13.6326L7.26176 10.0543L15.7602 1.55582Z" stroke="#084892" stroke-width="2" stroke-linecap="round" stroke-linejoin="round"/>
</svg>
