<svg width="4" height="14" viewBox="0 0 4 14" fill="none" xmlns="http://www.w3.org/2000/svg">
<path d="M2 7.75001C2.41422 7.75001 2.75001 7.41422 2.75001 7C2.75001 6.58579 2.41422 6.25 2 6.25C1.58579 6.25 1.25 6.58579 1.25 7C1.25 7.41422 1.58579 7.75001 2 7.75001Z" stroke="#084892" stroke-width="1.5" stroke-linecap="round" stroke-linejoin="round"/>
<path d="M2 2.50001C2.41422 2.50001 2.75001 2.16422 2.75001 1.75C2.75001 1.33579 2.41422 1 2 1C1.58579 1 1.25 1.33579 1.25 1.75C1.25 2.16422 1.58579 2.50001 2 2.50001Z" stroke="#084892" stroke-width="1.5" stroke-linecap="round" stroke-linejoin="round"/>
<path d="M2 13C2.41422 13 2.75001 12.6642 2.75001 12.25C2.75001 11.8358 2.41422 11.5 2 11.5C1.58579 11.5 1.25 11.8358 1.25 12.25C1.25 12.6642 1.58579 13 2 13Z" stroke="#084892" stroke-width="1.5" stroke-linecap="round" stroke-linejoin="round"/>
</svg>
