<svg width="36" height="16" viewBox="0 0 36 16" fill="none" xmlns="http://www.w3.org/2000/svg">
<path d="M15.9729 15C14.3628 15 12.7538 15 11.0918 15C11.0918 13.3164 11.0918 11.6456 11.0918 9.93664C9.45143 9.93664 7.861 9.93664 6.21765 9.93664C6.21765 11.6025 6.21765 13.2743 6.21765 14.9774C4.78597 14.9774 3.40622 14.9774 1.99414 14.9774C1.99414 10.3414 1.99414 5.7004 1.99414 1.03004C3.37781 1.03004 4.75559 1.03004 6.19021 1.03004C6.19021 3.00656 6.19021 4.97133 6.19021 6.96745C7.83552 6.96745 9.42497 6.96745 11.0664 6.96745C11.0664 4.98505 11.0664 3.01832 11.0664 1.0271C12.2364 1.0271 13.3545 1.0271 14.5069 1.0271C13.9376 3.55043 13.3731 6.05611 12.794 8.62647C13.7269 8.76367 14.6225 8.89498 15.5192 9.02629C15.6799 9.04981 15.8425 9.06646 16.0013 9.0988C16.3658 9.17132 16.6373 9.15074 16.9136 8.79012C17.5937 7.90524 18.9235 7.87487 19.726 8.65979C20.5256 9.44374 20.4855 10.7598 19.6378 11.4859C18.7833 12.2179 17.5065 12.07 16.8146 11.1821C16.7098 11.0479 16.4766 10.9244 16.3159 10.9381C15.7328 10.9891 15.1556 11.1028 14.5755 11.188C14.013 11.2703 13.4496 11.3468 12.8048 11.4369C13.2722 13.1822 14.3197 14.3287 15.9729 15Z" fill="#767676"/>
<path d="M26.3552 9.83462C26.3552 11.6338 26.3552 13.2938 26.3552 14.9842C24.6433 14.9842 22.9676 14.9842 21.138 14.9842C22.6618 14.4109 23.6457 13.4368 24.1739 12.0355C24.6962 10.6499 24.7412 9.25744 24.0514 7.91297C22.9088 5.68656 20.505 5.05647 17.0645 6.0707C17.2065 5.47098 17.3545 4.89282 17.477 4.30878C17.5368 4.02264 17.721 4.0246 17.9454 4.02558C19.7416 4.03048 21.5378 4.02852 23.3341 4.02852C23.5114 4.02852 23.6878 4.02852 23.9348 4.02852C23.9348 3.01135 23.9348 2.0275 23.9348 1.00445C25.4056 1.00445 26.8069 0.991709 28.2082 1.00935C29.0059 1.01915 29.8153 1.00739 30.5993 1.13086C32.9129 1.49637 34.1633 3.20636 33.9898 5.66697C33.8125 8.17853 32.2691 9.71409 29.7448 9.82776C28.6384 9.87578 27.5301 9.83462 26.3552 9.83462ZM26.3875 7.07709C28.8442 7.07709 25.9956 7.07709 28.4522 7.07709C29.4773 7.07709 29.7712 6.14225 29.7712 5.41022C29.7712 4.67819 29.3793 3.81587 28.3053 3.81587C25.9965 3.81587 28.6972 3.81587 26.3885 3.81587C26.3875 4.93692 26.3875 5.94037 26.3875 7.07709Z" fill="#767676"/>
</svg>
