<svg width="19" height="15" viewBox="0 0 19 15" fill="none" xmlns="http://www.w3.org/2000/svg">
<path d="M10 0.5C12.5 0.5 14.5312 1.65625 16 3.03125C17.4688 4.375 18.4375 6 18.9062 7.125C19 7.375 19 7.65625 18.9062 7.90625C18.4375 9 17.4688 10.625 16 12C14.5312 13.375 12.5 14.5 10 14.5C7.46875 14.5 5.4375 13.375 3.96875 12C2.5 10.625 1.53125 9 1.0625 7.90625C0.96875 7.65625 0.96875 7.375 1.0625 7.125C1.53125 6 2.5 4.375 3.96875 3.03125C5.4375 1.65625 7.46875 0.5 10 0.5ZM5.5 7.5C5.5 9.125 6.34375 10.5938 7.75 11.4062C9.125 12.2188 10.8438 12.2188 12.25 11.4062C13.625 10.5938 14.5 9.125 14.5 7.5C14.5 5.90625 13.625 4.4375 12.25 3.625C10.8438 2.8125 9.125 2.8125 7.75 3.625C6.34375 4.4375 5.5 5.90625 5.5 7.5ZM10 5.5C10 5.28125 9.9375 5.09375 9.875 4.875C9.8125 4.71875 9.9375 4.5 10.125 4.5C11.375 4.5625 12.5312 5.4375 12.875 6.75C13.3125 8.34375 12.375 9.96875 10.75 10.4062C9.15625 10.8438 7.5 9.875 7.09375 8.28125C7.03125 8.0625 7 7.84375 7 7.65625C6.96875 7.46875 7.1875 7.34375 7.34375 7.40625C7.5625 7.46875 7.75 7.5 8 7.5C9.09375 7.5 10 6.625 10 5.5Z" fill="#063A75"/>
</svg>
