<svg width="16" height="16" viewBox="0 0 16 16" fill="none" xmlns="http://www.w3.org/2000/svg">
<path d="M5.99935 3.33497C5.82254 3.33497 5.65297 3.40521 5.52794 3.53023C5.40292 3.65525 5.33268 3.82482 5.33268 4.00163C5.33268 4.17844 5.40292 4.34801 5.52794 4.47304C5.65297 4.59806 5.82254 4.6683 5.99935 4.6683C6.17616 4.6683 6.34573 4.59806 6.47075 4.47304C6.59578 4.34801 6.66602 4.17844 6.66602 4.00163C6.66602 3.82482 6.59578 3.65525 6.47075 3.53023C6.34573 3.40521 6.17616 3.33497 5.99935 3.33497ZM4.11268 3.33497C4.25042 2.94461 4.50584 2.60659 4.84375 2.36749C5.18166 2.1284 5.58541 2 5.99935 2C6.41329 2 6.81704 2.1284 7.15495 2.36749C7.49286 2.60659 7.74828 2.94461 7.88602 3.33497H12.666C12.8428 3.33497 13.0124 3.40521 13.1374 3.53023C13.2624 3.65525 13.3327 3.82482 13.3327 4.00163C13.3327 4.17844 13.2624 4.34801 13.1374 4.47304C13.0124 4.59806 12.8428 4.6683 12.666 4.6683H7.88602C7.74828 5.05866 7.49286 5.39668 7.15495 5.63577C6.81704 5.87487 6.41329 6.00327 5.99935 6.00327C5.58541 6.00327 5.18166 5.87487 4.84375 5.63577C4.50584 5.39668 4.25042 5.05866 4.11268 4.6683H3.33268C3.15587 4.6683 2.9863 4.59806 2.86128 4.47304C2.73625 4.34801 2.66602 4.17844 2.66602 4.00163C2.66602 3.82482 2.73625 3.65525 2.86128 3.53023C2.9863 3.40521 3.15587 3.33497 3.33268 3.33497H4.11268ZM9.99935 7.33497C9.82254 7.33497 9.65297 7.4052 9.52794 7.53023C9.40292 7.65525 9.33268 7.82482 9.33268 8.00163C9.33268 8.17845 9.40292 8.34801 9.52794 8.47304C9.65297 8.59806 9.82254 8.6683 9.99935 8.6683C10.1762 8.6683 10.3457 8.59806 10.4708 8.47304C10.5958 8.34801 10.666 8.17845 10.666 8.00163C10.666 7.82482 10.5958 7.65525 10.4708 7.53023C10.3457 7.4052 10.1762 7.33497 9.99935 7.33497ZM8.11268 7.33497C8.25042 6.94461 8.50584 6.60659 8.84375 6.36749C9.18166 6.1284 9.58541 6 9.99935 6C10.4133 6 10.817 6.1284 11.1549 6.36749C11.4929 6.60659 11.7483 6.94461 11.886 7.33497H12.666C12.8428 7.33497 13.0124 7.4052 13.1374 7.53023C13.2624 7.65525 13.3327 7.82482 13.3327 8.00163C13.3327 8.17845 13.2624 8.34801 13.1374 8.47304C13.0124 8.59806 12.8428 8.6683 12.666 8.6683H11.886C11.7483 9.05866 11.4929 9.39668 11.1549 9.63577C10.817 9.87487 10.4133 10.0033 9.99935 10.0033C9.58541 10.0033 9.18166 9.87487 8.84375 9.63577C8.50584 9.39668 8.25042 9.05866 8.11268 8.6683H3.33268C3.15587 8.6683 2.9863 8.59806 2.86128 8.47304C2.73625 8.34801 2.66602 8.17845 2.66602 8.00163C2.66602 7.82482 2.73625 7.65525 2.86128 7.53023C2.9863 7.4052 3.15587 7.33497 3.33268 7.33497H8.11268ZM5.99935 11.335C5.82254 11.335 5.65297 11.4052 5.52794 11.5302C5.40292 11.6553 5.33268 11.8248 5.33268 12.0016C5.33268 12.1784 5.40292 12.348 5.52794 12.473C5.65297 12.5981 5.82254 12.6683 5.99935 12.6683C6.17616 12.6683 6.34573 12.5981 6.47075 12.473C6.59578 12.348 6.66602 12.1784 6.66602 12.0016C6.66602 11.8248 6.59578 11.6553 6.47075 11.5302C6.34573 11.4052 6.17616 11.335 5.99935 11.335ZM4.11268 11.335C4.25042 10.9446 4.50584 10.6066 4.84375 10.3675C5.18166 10.1284 5.58541 10 5.99935 10C6.41329 10 6.81704 10.1284 7.15495 10.3675C7.49286 10.6066 7.74828 10.9446 7.88602 11.335H12.666C12.8428 11.335 13.0124 11.4052 13.1374 11.5302C13.2624 11.6553 13.3327 11.8248 13.3327 12.0016C13.3327 12.1784 13.2624 12.348 13.1374 12.473C13.0124 12.5981 12.8428 12.6683 12.666 12.6683H7.88602C7.74828 13.0587 7.49286 13.3967 7.15495 13.6358C6.81704 13.8749 6.41329 14.0033 5.99935 14.0033C5.58541 14.0033 5.18166 13.8749 4.84375 13.6358C4.50584 13.3967 4.25042 13.0587 4.11268 12.6683H3.33268C3.15587 12.6683 2.9863 12.5981 2.86128 12.473C2.73625 12.348 2.66602 12.1784 2.66602 12.0016C2.66602 11.8248 2.73625 11.6553 2.86128 11.5302C2.9863 11.4052 3.15587 11.335 3.33268 11.335H4.11268Z" fill="#084892"/>
</svg>
