<svg width="44" height="44" viewBox="0 0 44 44" fill="none" xmlns="http://www.w3.org/2000/svg">
<path d="M9.93388 2H7.33333C4.38781 2 2 4.38781 2 7.33333V36.6667C2 39.6122 4.38781 42 7.33333 42H9.93388M9.93388 2V8.23692C9.93388 11.1824 12.3217 13.5702 15.2672 13.5702H25.4711M9.93388 2H25.4711M30.4298 2H30.5347C31.9491 2 33.3057 2.5619 34.3059 3.5621L40.4379 9.6941C41.4381 10.6943 42 12.0509 42 13.4653V36.6667C42 39.6122 39.6122 42 36.6667 42H30.4298M30.4298 2V8.61157C30.4298 11.3502 28.2097 13.5702 25.4711 13.5702V13.5702M30.4298 2H25.4711M9.93388 42H30.4298M9.93388 42V28.4463M30.4298 42V28.4463M30.4298 28.4463V28.4463C30.4298 25.5251 28.0617 23.157 25.1405 23.157H15.2231C12.302 23.157 9.93388 25.5251 9.93388 28.4463V28.4463M30.4298 28.4463H9.93388M25.4711 13.5702V2" stroke="#2E8DF5" stroke-width="2.66667" stroke-linecap="round"/>
</svg>
