<svg width="16" height="16" viewBox="0 0 16 16" fill="none" xmlns="http://www.w3.org/2000/svg">
<path d="M6.69336 8.82625C6.97409 9.20193 7.33225 9.51278 7.74355 9.73772C8.15484 9.96266 8.60966 10.0964 9.07714 10.1299C9.54462 10.1634 10.0138 10.0959 10.453 9.93196C10.8921 9.76799 11.2908 9.5114 11.6222 9.1796L13.5833 7.21655C14.1786 6.59949 14.5081 5.77304 14.5006 4.9152C14.4932 4.05735 14.1494 3.23676 13.5434 2.63015C12.9374 2.02354 12.1177 1.67945 11.2607 1.672C10.4037 1.66454 9.5781 1.99432 8.96167 2.59029L7.83732 3.70923" stroke="#2E68BF" stroke-width="1.5" stroke-linecap="round" stroke-linejoin="round"/>
<path d="M9.3074 7.51907C9.02667 7.14339 8.66851 6.83254 8.25721 6.6076C7.84591 6.38267 7.3911 6.2489 6.92361 6.21539C6.45613 6.18188 5.98692 6.24939 5.54779 6.41337C5.10867 6.57734 4.70991 6.83392 4.37857 7.16572L2.41749 9.12878C1.82212 9.74583 1.49268 10.5723 1.50012 11.4301C1.50757 12.288 1.85131 13.1086 2.45731 13.7152C3.06331 14.3218 3.88308 14.6659 4.74005 14.6733C5.59703 14.6808 6.42265 14.351 7.03909 13.755L8.1569 12.6361" stroke="#2E68BF" stroke-width="1.5" stroke-linecap="round" stroke-linejoin="round"/>
</svg>
