<svg width="57" height="57" viewBox="0 0 57 57" fill="none" xmlns="http://www.w3.org/2000/svg">
<path d="M46.0615 38.3349C39.4067 40.8966 31.8777 41.1271 24.8662 39.3509C20.4738 38.1709 16.2045 36.275 12.4084 33.625C12.4023 33.7827 12.3897 33.9407 12.3833 34.0983C12.2443 37.1457 12.4527 40.2184 13.1627 43.1648C13.8474 46.1115 15.0277 48.9537 16.8135 51.3388C18.5806 53.733 21.0387 55.5753 23.8566 56.446C26.6774 57.2949 29.773 57.1404 32.6067 56.1275C35.456 55.1368 38.0595 53.4176 40.3092 51.3261C44.4901 47.4175 47.4911 42.31 49.3589 36.8459C49.0751 36.9912 48.7911 37.1362 48.5038 37.2784C47.7245 37.7166 46.8884 38.0037 46.0615 38.3349Z" fill="#F8AF2C"/>
<path d="M32.0019 9.09055C33.1661 9.64575 34.3749 10.1158 35.6115 10.5196C38.0855 11.2925 40.6637 11.8762 43.2922 11.8951C44.5985 11.8982 45.927 11.7531 47.1577 11.2988C47.6055 11.1474 48.0222 10.9266 48.4133 10.6679C47.9937 9.92336 47.5329 9.20095 47.0186 8.51637C45.1445 5.99576 42.478 4.04932 39.4552 3.17862C37.9405 2.76536 36.3627 2.61709 34.8071 2.71804C33.2452 2.81583 31.7178 3.21017 30.2693 3.77171C29.0893 4.24177 27.9724 4.83798 26.9121 5.52256C27.4517 6.09987 28.0671 6.63617 28.7232 7.12201C29.7363 7.86966 30.847 8.51954 32.0019 9.09055Z" fill="#F8AF2C"/>
<path d="M53.998 33.6704L52.9567 34.4809C52.6033 34.7428 52.2689 35.0394 51.8996 35.2759L50.8963 35.9038C49.1859 42.065 46.1064 47.9486 41.4771 52.5259C40.0982 53.8762 38.5711 55.1002 36.9082 56.1223C48.151 52.8067 56.4406 42.658 56.9958 30.5156C56.3678 31.3074 55.6894 32.0614 54.9604 32.7554L53.998 33.6704Z" fill="#F8AF2C"/>
<path d="M50.8305 17.3668C50.3317 15.2279 49.5808 13.1269 48.5237 11.193C48.1263 11.4643 47.7095 11.7041 47.2551 11.865C46.0058 12.3823 44.6646 12.6442 43.3202 12.7862C41.973 12.9281 40.6129 12.9281 39.2562 12.8272C37.9023 12.7073 36.5583 12.4707 35.233 12.1489C33.9171 11.7924 32.6203 11.3634 31.3516 10.8366C30.0925 10.2939 28.8621 9.65984 27.6977 8.88696C26.8613 8.32855 26.0506 7.70077 25.3184 6.95312C24.3781 7.68184 23.4914 8.48315 22.6614 9.3286C20.5 11.5464 18.7265 14.108 17.2783 16.821C16.5398 18.1712 15.9058 19.5751 15.3376 21.0041C14.7635 22.4301 14.2742 23.8876 13.8609 25.3671C13.5201 26.5848 13.2297 27.8152 12.9995 29.055C16.6031 32.3548 21.0649 34.8374 25.8168 36.3898C28.9787 37.3991 32.2732 38.0269 35.6114 38.2258C38.9499 38.4211 42.3455 38.1561 45.6175 37.2886C46.4285 37.0458 47.2583 36.8469 48.0348 36.5063C48.6343 36.2698 49.2464 36.0491 49.8269 35.7682C50.7136 32.8215 51.3195 29.7774 51.4962 26.6952C51.6919 23.5847 51.5184 20.43 50.8305 17.3668Z" fill="#F8AF2C"/>
<path d="M49.1211 10.8963C50.2004 12.868 50.9797 15.0068 51.4877 17.1994C52.8697 23.0229 52.5008 29.1746 50.9167 34.9508L51.1343 34.8435C51.513 34.6513 51.8601 34.4018 52.2262 34.1811L53.3115 33.4998L54.3056 32.6985C55.2617 31.9192 56.1358 31.039 56.912 30.08C56.9215 29.8876 56.9373 29.6951 56.9436 29.5027C57.1612 22.0986 54.4887 15.2845 49.948 10.1328C49.7713 10.3536 49.5724 10.5556 49.3577 10.7354C49.2788 10.789 49.1999 10.8426 49.1211 10.8963Z" fill="#F8AF2C"/>
<path d="M25.3632 3.07188C25.5367 3.55771 25.7451 4.07193 26.1048 4.54515C26.1742 4.64292 26.2562 4.73758 26.3319 4.83539C27.5249 4.17604 28.7682 3.61765 30.0619 3.19808C32.9365 2.23274 36.0856 2.04345 39.0045 2.81005C35.9152 1.63965 32.5672 0.996094 29.0678 0.996094C27.9065 0.996094 26.7642 1.07496 25.6409 1.21061C25.5275 1.3715 25.4297 1.53871 25.3603 1.71852C25.2466 2.12548 25.2466 2.57975 25.3632 3.07188Z" fill="#F8AF2C"/>
<path d="M47.2035 8.36883C47.7336 9.04404 48.2162 9.7571 48.658 10.4923C48.7245 10.4449 48.7907 10.4008 48.8537 10.3503C49.0589 10.1578 49.242 9.94956 49.4029 9.72239C47.9512 8.19843 46.3357 6.8354 44.5781 5.66797C45.5532 6.46624 46.4368 7.37179 47.2035 8.36883Z" fill="#F8AF2C"/>
<path d="M9.78415 25.2845C10.1471 25.7483 10.529 26.1962 10.9233 26.6347C11.1032 25.8744 11.3052 25.1173 11.5231 24.3696C12.501 21.2654 13.7982 18.2559 15.5273 15.4955C17.2501 12.7383 19.3389 10.2114 21.7689 8.06929C22.6711 7.27118 23.6304 6.5298 24.634 5.86416C24.5928 5.81686 24.5519 5.77269 24.5108 5.72219C24.0376 5.15435 23.6652 4.45087 23.3748 3.69688C23.1759 3.05648 23.0907 2.34352 23.1759 1.62109C15.5495 3.25208 9.07129 7.97466 5.12061 14.4166C5.20263 15.2715 5.34767 16.1296 5.56239 16.9782C6.30692 19.9436 7.80263 22.7828 9.78415 25.2845Z" fill="#F8AF2C"/>
<path d="M10.8218 43.7501C10.0139 40.5543 9.71718 37.2545 9.85621 33.9862C9.89073 33.2573 9.9509 32.5287 10.0266 31.8031C8.70125 30.699 7.44843 29.4939 6.29031 28.1784C4.59286 26.2162 3.12248 24.0079 2.0052 21.5977C1.35219 23.9763 0.995605 26.4748 0.995605 29.0617C0.995605 39.9708 7.22454 49.4191 16.3185 54.066C15.8863 53.6211 15.4822 53.1541 15.1037 52.6685C13.0272 50.0279 11.6547 46.933 10.8218 43.7501Z" fill="#F8AF2C"/>
</svg>
