<svg width="127" height="32" viewBox="0 0 127 32" fill="none" xmlns="http://www.w3.org/2000/svg">
<path fill-rule="evenodd" clip-rule="evenodd" d="M66.6425 16.1919C66.6425 11.7949 64.0555 9.06689 59.9865 9.06689C55.9275 9.06689 53.3115 11.7949 53.3115 16.1919C53.3115 20.5979 55.8995 23.3259 59.9865 23.3259C64.0555 23.3259 66.6425 20.5979 66.6425 16.1919ZM56.9755 16.1919C56.9755 13.5849 58.0835 11.9169 59.9865 11.9169C61.8805 11.9169 62.9865 13.5849 62.9865 16.1919C62.9865 18.8069 61.8895 20.4759 59.9865 20.4759C58.0645 20.4759 56.9755 18.8069 56.9755 16.1919ZM70.9205 22.9599C70.9906 22.96 71.06 22.9463 71.1248 22.9196C71.1896 22.8929 71.2485 22.8536 71.2981 22.8041C71.3477 22.7546 71.387 22.6958 71.4139 22.6311C71.4407 22.5664 71.4545 22.497 71.4545 22.4269V14.4199L74.5035 21.5949C74.5444 21.6911 74.6127 21.7731 74.6998 21.8309C74.7869 21.8887 74.889 21.9196 74.9935 21.9199H76.4165C76.5213 21.9197 76.6238 21.8887 76.7111 21.8308C76.7984 21.7728 76.8667 21.6904 76.9075 21.5939L79.9475 14.4199V22.4269C79.9475 22.7219 80.1865 22.9599 80.4805 22.9599H82.6235C82.7588 22.961 82.8893 22.9095 82.9873 22.8162C83.0852 22.7229 83.1431 22.5951 83.1485 22.4599C83.1785 21.6319 83.2315 19.7099 83.2315 16.1959C83.2315 12.6819 83.1785 10.7599 83.1475 9.93289C83.1421 9.79787 83.0844 9.67024 82.9866 9.57695C82.8888 9.48366 82.7587 9.43201 82.6235 9.43289H79.4185C79.3142 9.43287 79.2122 9.46347 79.1251 9.52088C79.038 9.5783 78.9696 9.66001 78.9285 9.75589L75.7945 17.0939H75.6165L72.4735 9.75589C72.4325 9.6599 72.3642 9.57805 72.2771 9.52046C72.19 9.46288 72.0879 9.43208 71.9835 9.43189H68.7785C68.6432 9.43075 68.5128 9.48228 68.4148 9.5756C68.3168 9.66892 68.259 9.79669 68.2535 9.93189C68.2235 10.7609 68.1705 12.6819 68.1705 16.1959C68.1705 19.7099 68.2225 21.6319 68.2535 22.4599C68.2635 22.7419 68.4965 22.9599 68.7785 22.9599H70.9205Z" fill="#1B1B1B"/>
<path fill-rule="evenodd" clip-rule="evenodd" d="M70.9528 22.9599C71.088 22.961 71.2184 22.9095 71.3162 22.8161C71.414 22.7228 71.4716 22.595 71.4768 22.4599C71.5088 21.6339 71.5628 19.7109 71.5628 16.1959C71.5628 12.6809 71.5088 10.7589 71.4768 9.93189C71.4716 9.79678 71.414 9.66901 71.3162 9.57567C71.2184 9.48232 71.088 9.43075 70.9528 9.43189H68.7788C68.6435 9.43075 68.5131 9.48228 68.4151 9.5756C68.3171 9.66892 68.2593 9.79669 68.2538 9.93189C68.2238 10.7609 68.1708 12.6819 68.1708 16.1959C68.1708 19.7099 68.2228 21.6319 68.2538 22.4599C68.2638 22.7419 68.4968 22.9599 68.7788 22.9599H70.9528ZM79.9268 22.4529C79.9368 22.7379 80.1708 22.9599 80.4558 22.9599H82.6228C82.7581 22.961 82.8886 22.9095 82.9865 22.8162C83.0845 22.7229 83.1424 22.5951 83.1478 22.4599C83.1788 21.6319 83.2318 19.7099 83.2318 16.1959C83.2318 12.6819 83.1788 10.7599 83.1478 9.93289C83.1424 9.79769 83.0845 9.66992 82.9865 9.5766C82.8886 9.48328 82.7581 9.43175 82.6228 9.43289H80.4558C80.319 9.43202 80.1873 9.48448 80.0885 9.57913C79.9898 9.67379 79.9318 9.80319 79.9268 9.93989C79.8968 10.8449 79.8398 12.9539 79.8398 16.1959C79.8398 19.4379 79.8958 21.5469 79.9268 22.4529ZM98.0898 16.1919C98.0898 11.7949 95.5018 9.06689 91.4328 9.06689C87.3738 9.06689 84.7588 11.7949 84.7588 16.1919C84.7588 20.5979 87.3458 23.3259 91.4328 23.3259C95.5028 23.3259 98.0898 20.5979 98.0898 16.1919ZM88.4268 16.1919C88.4268 13.5849 89.5298 11.9169 91.4328 11.9169C93.3268 11.9169 94.4318 13.5849 94.4318 16.1919C94.4318 18.8069 93.3368 20.4759 91.4328 20.4759C89.5118 20.4759 88.4258 18.8069 88.4258 16.1919H88.4268ZM100.212 9.42289C100.079 9.42147 99.9517 9.4716 99.8555 9.56267C99.7594 9.65374 99.7025 9.77861 99.6968 9.91089C99.6648 10.6679 99.6168 12.4479 99.6168 16.1919C99.6168 19.9359 99.6648 21.7159 99.6968 22.4719C99.7025 22.6042 99.7594 22.7291 99.8555 22.8201C99.9517 22.9112 100.079 22.9613 100.212 22.9599H105.404C109.473 22.9599 111.732 20.5039 111.732 16.0599C111.732 11.8319 109.435 9.42289 105.404 9.42289H100.212ZM103.163 12.4549C103.163 12.3079 103.283 12.1879 103.43 12.1879H104.785C106.951 12.1879 108.226 13.6039 108.226 16.1259C108.226 18.8069 107.017 20.1949 104.785 20.1949H103.43C103.359 20.1949 103.291 20.1668 103.241 20.1167C103.191 20.0666 103.163 19.9987 103.163 19.9279V12.4549ZM126.058 16.1919C126.058 11.7949 123.471 9.06689 119.402 9.06689C115.343 9.06689 112.727 11.7949 112.727 16.1919C112.727 20.5979 115.315 23.3259 119.402 23.3259C123.471 23.3259 126.058 20.5979 126.058 16.1919ZM116.395 16.1919C116.395 13.5849 117.499 11.9149 119.402 11.9149C121.296 11.9149 122.4 13.5849 122.4 16.1919C122.4 18.8069 121.305 20.4749 119.402 20.4749C117.48 20.4749 116.395 18.8069 116.395 16.1919ZM45.4118 22.9599C45.5588 22.9599 45.6778 22.8409 45.6778 22.6939V19.1349L46.8678 17.6259L50.0858 22.8839C50.1002 22.9072 50.1204 22.9265 50.1444 22.9398C50.1684 22.9531 50.1954 22.96 50.2228 22.9599H53.1158C53.4468 22.9599 53.6518 22.5999 53.4828 22.3159L49.4098 15.4659C49.3988 15.4475 49.3936 15.4262 49.3949 15.4048C49.3961 15.3834 49.4038 15.3629 49.4168 15.3459L53.5098 10.1219C53.7288 9.84189 53.5298 9.43189 53.1738 9.43189H50.4348C50.4103 9.43181 50.3861 9.43736 50.3641 9.44811C50.3421 9.45886 50.3228 9.47453 50.3078 9.49389L45.8558 15.2439H45.6778V9.69989C45.6778 9.62925 45.6498 9.56149 45.6 9.51145C45.5501 9.46141 45.4825 9.43316 45.4118 9.43289H42.4828C42.4163 9.43203 42.3521 9.45697 42.3036 9.50247C42.2551 9.54797 42.2262 9.61049 42.2228 9.67689C42.1948 10.2509 42.1328 11.9729 42.1328 16.1989C42.1328 20.4239 42.1948 22.1439 42.2228 22.7179C42.2264 22.7841 42.2555 22.8464 42.3039 22.8917C42.3524 22.937 42.4165 22.9618 42.4828 22.9609H45.4118V22.9599Z" fill="#1B1B1B"/>
<path d="M25.067 0H6.933C5.09425 0 3.33082 0.730439 2.03063 2.03063C0.730439 3.33082 0 5.09425 0 6.933L0 25.067C0 26.9057 0.730439 28.6692 2.03063 29.9694C3.33082 31.2696 5.09425 32 6.933 32H25.067C26.9057 32 28.6692 31.2696 29.9694 29.9694C31.2696 28.6692 32 26.9057 32 25.067V6.933C32 5.09425 31.2696 3.33082 29.9694 2.03063C28.6692 0.730439 26.9057 0 25.067 0V0Z" fill="#73D66F"/>
<path fill-rule="evenodd" clip-rule="evenodd" d="M12.9743 22.933C13.1213 22.933 13.2413 22.813 13.2413 22.667V19.108L14.4113 17.625C14.6773 18.085 14.9623 18.544 15.2663 18.988L15.2733 19C15.6573 19.559 16.0693 20.096 16.5063 20.587C17.3243 21.507 18.3173 22.368 19.4643 22.848C19.5803 22.906 19.7243 22.961 19.8983 23.011C21.9733 23.603 23.9883 23.074 24.3623 22.953C24.3963 22.943 24.4223 22.913 24.4173 22.879C24.3663 22.587 23.4173 22.367 22.7143 22.227C21.9663 22.078 21.3173 21.607 21.3173 21.607C21.3173 21.607 24.1613 20.993 24.1833 20.08C24.1843 20.023 24.1303 19.985 24.0733 19.994L24.0533 19.997C23.4693 20.091 22.3763 20.266 20.8933 19.917L20.8943 19.912C20.3563 19.739 19.6823 19.262 18.9373 18.426C18.2303 17.629 17.5583 16.619 16.9793 15.553L16.9483 15.428C16.9442 15.4123 16.9439 15.3958 16.9472 15.3798C16.9504 15.3639 16.9573 15.3489 16.9673 15.336L21.0723 10.095C21.2923 9.81503 21.0923 9.40503 20.7373 9.40503H17.9973C17.973 9.4051 17.949 9.41072 17.9271 9.42147C17.9053 9.43221 17.8862 9.44779 17.8713 9.46703L13.4193 15.217H13.2413V9.67303C13.2413 9.60222 13.2132 9.5343 13.1631 9.48423C13.113 9.43416 13.0451 9.40603 12.9743 9.40603H10.0463C9.9798 9.40517 9.91558 9.43011 9.86709 9.47561C9.81861 9.52111 9.78965 9.58362 9.78629 9.65003C9.75729 10.224 9.69629 11.946 9.69629 16.172C9.69629 20.397 9.75729 22.117 9.78629 22.691C9.7899 22.7573 9.81897 22.8195 9.86742 22.8648C9.91588 22.9101 9.97997 22.9349 10.0463 22.934H12.9743V22.933Z" fill="white"/>
</svg>
