<svg width="22" height="24" viewBox="0 0 22 24" fill="none" xmlns="http://www.w3.org/2000/svg">
<rect width="22" height="24" fill="white"/>
<path fill-rule="evenodd" clip-rule="evenodd" d="M18.2727 4H3.72727C3.48617 4 3.25494 4.10536 3.08445 4.29289C2.91396 4.48043 2.81818 4.73478 2.81818 5V19C2.81818 19.2652 2.91396 19.5196 3.08445 19.7071C3.25494 19.8946 3.48617 20 3.72727 20H18.2727C18.5138 20 18.7451 19.8946 18.9156 19.7071C19.086 19.5196 19.1818 19.2652 19.1818 19V5C19.1818 4.73478 19.086 4.48043 18.9156 4.29289C18.7451 4.10536 18.5138 4 18.2727 4ZM3.72727 2C3.00396 2 2.31026 2.31607 1.7988 2.87868C1.28734 3.44129 1 4.20435 1 5V19C1 19.7956 1.28734 20.5587 1.7988 21.1213C2.31026 21.6839 3.00396 22 3.72727 22H18.2727C18.996 22 19.6897 21.6839 20.2012 21.1213C20.7127 20.5587 21 19.7956 21 19V5C21 4.20435 20.7127 3.44129 20.2012 2.87868C19.6897 2.31607 18.996 2 18.2727 2H3.72727ZM5.54545 7H7.36364V9H5.54545V7ZM10.0909 7C9.8498 7 9.61857 7.10536 9.44808 7.29289C9.2776 7.48043 9.18182 7.73478 9.18182 8C9.18182 8.26522 9.2776 8.51957 9.44808 8.70711C9.61857 8.89464 9.8498 9 10.0909 9H15.5455C15.7866 9 16.0178 8.89464 16.1883 8.70711C16.3588 8.51957 16.4545 8.26522 16.4545 8C16.4545 7.73478 16.3588 7.48043 16.1883 7.29289C16.0178 7.10536 15.7866 7 15.5455 7H10.0909ZM7.36364 11H5.54545V13H7.36364V11ZM9.18182 12C9.18182 11.7348 9.2776 11.4804 9.44808 11.2929C9.61857 11.1054 9.8498 11 10.0909 11H15.5455C15.7866 11 16.0178 11.1054 16.1883 11.2929C16.3588 11.4804 16.4545 11.7348 16.4545 12C16.4545 12.2652 16.3588 12.5196 16.1883 12.7071C16.0178 12.8946 15.7866 13 15.5455 13H10.0909C9.8498 13 9.61857 12.8946 9.44808 12.7071C9.2776 12.5196 9.18182 12.2652 9.18182 12ZM7.36364 15H5.54545V17H7.36364V15ZM9.18182 16C9.18182 15.7348 9.2776 15.4804 9.44808 15.2929C9.61857 15.1054 9.8498 15 10.0909 15H15.5455C15.7866 15 16.0178 15.1054 16.1883 15.2929C16.3588 15.4804 16.4545 15.7348 16.4545 16C16.4545 16.2652 16.3588 16.5196 16.1883 16.7071C16.0178 16.8946 15.7866 17 15.5455 17H10.0909C9.8498 17 9.61857 16.8946 9.44808 16.7071C9.2776 16.5196 9.18182 16.2652 9.18182 16Z" fill="#084892"/>
</svg>
