<svg width="21" height="21" viewBox="0 0 21 21" fill="none" xmlns="http://www.w3.org/2000/svg">
<path d="M17.9967 1.62214L3.59685 1.55003C2.60275 1.54505 1.79284 2.34689 1.78786 3.34099L1.76983 6.94095C1.76486 7.93505 2.5667 8.74496 3.5608 8.74994L17.9606 8.82205C18.9547 8.82703 19.7646 8.02518 19.7696 7.03108L19.7876 3.43113C19.7926 2.43703 18.9908 1.62712 17.9967 1.62214Z" stroke="#084892" stroke-width="2" stroke-linecap="round" stroke-linejoin="round"/>
<path d="M17.942 12.4219L3.54216 12.3498C2.54806 12.3449 1.73815 13.1467 1.73317 14.1408L1.71515 17.7408C1.71017 18.7349 2.51201 19.5448 3.50611 19.5497L17.9059 19.6219C18.9 19.6268 19.7099 18.825 19.7149 17.8309L19.7329 14.2309C19.7379 13.2368 18.9361 12.4269 17.942 12.4219Z" stroke="#084892" stroke-width="2" stroke-linecap="round" stroke-linejoin="round"/>
<path d="M5.37891 5.15918L5.38836 5.15923" stroke="#084892" stroke-width="2" stroke-linecap="round" stroke-linejoin="round"/>
<path d="M5.32422 15.959L5.33367 15.959" stroke="#084892" stroke-width="2" stroke-linecap="round" stroke-linejoin="round"/>
</svg>
