<svg width="32" height="32" viewBox="0 0 32 32" fill="none" xmlns="http://www.w3.org/2000/svg">
<path d="M27.2 2H4.8C3.2536 2 2 3.2536 2 4.8V10.4C2 11.9464 3.2536 13.2 4.8 13.2H27.2C28.7464 13.2 30 11.9464 30 10.4V4.8C30 3.2536 28.7464 2 27.2 2Z" stroke="#084892" stroke-width="3" stroke-linecap="round" stroke-linejoin="round"/>
<path d="M27.2 18.7998H4.8C3.2536 18.7998 2 20.0534 2 21.5998V27.1998C2 28.7462 3.2536 29.9998 4.8 29.9998H27.2C28.7464 29.9998 30 28.7462 30 27.1998V21.5998C30 20.0534 28.7464 18.7998 27.2 18.7998Z" stroke="#084892" stroke-width="3" stroke-linecap="round" stroke-linejoin="round"/>
<path d="M7.59961 7.59961H7.61431" stroke="#084892" stroke-width="3" stroke-linecap="round" stroke-linejoin="round"/>
<path d="M7.59961 24.3994H7.61431" stroke="#084892" stroke-width="3" stroke-linecap="round" stroke-linejoin="round"/>
</svg>
