<svg width="14" height="12" viewBox="0 0 14 12" fill="none" xmlns="http://www.w3.org/2000/svg">
<path d="M13.0001 1.63672V4.90931H9.72754" stroke="#2E68BF" stroke-width="1.5" stroke-linecap="round" stroke-linejoin="round"/>
<path d="M1 10.3663V7.09375H4.27259" stroke="#2E68BF" stroke-width="1.5" stroke-linecap="round" stroke-linejoin="round"/>
<path d="M2.36903 4.36505C2.64566 3.58333 3.1158 2.88442 3.73559 2.33354C4.35539 1.78267 5.10463 1.39777 5.9134 1.21478C6.72218 1.03178 7.56413 1.05665 8.3607 1.28706C9.15727 1.51746 9.88249 1.9459 10.4687 2.5324L12.9995 4.91048M1 7.0922L3.5308 9.47029C4.117 10.0568 4.84222 10.4852 5.63879 10.7156C6.43536 10.946 7.27731 10.9709 8.08609 10.7879C8.89487 10.6049 9.64411 10.22 10.2639 9.66914C10.8837 9.11826 11.3538 8.41936 11.6305 7.63764" stroke="#2E68BF" stroke-width="1.5" stroke-linecap="round" stroke-linejoin="round"/>
</svg>
