<svg width="16" height="12" viewBox="0 0 16 12" fill="none" xmlns="http://www.w3.org/2000/svg">
<path d="M5.11676 8.35535C7.1477 8.35535 8.79406 6.70899 8.79406 4.67804C8.79406 2.64712 7.1477 1.00073 5.11676 1.00073C3.08584 1.00073 1.43945 2.64712 1.43945 4.67804C1.43945 6.70899 3.08584 8.35535 5.11676 8.35535Z" stroke="#2E68BF" stroke-width="1.5" stroke-miterlimit="10"/>
<path d="M9.88477 1.13782C10.3905 0.995317 10.921 0.962853 11.4404 1.04262C11.9598 1.12238 12.4561 1.31252 12.8957 1.60023C13.3355 1.88794 13.7084 2.26653 13.9895 2.71052C14.2705 3.1545 14.4532 3.65356 14.5252 4.17409C14.5972 4.69462 14.5568 5.22452 14.4067 5.72812C14.2566 6.23173 14.0003 6.69732 13.6552 7.09347C13.31 7.48969 12.8839 7.80733 12.4056 8.02506C11.9274 8.24272 11.408 8.35537 10.8825 8.35546" stroke="#2E68BF" stroke-width="1.5" stroke-linecap="round" stroke-linejoin="round"/>
<path d="M0.0253906 11.0001C0.599713 10.1831 1.36216 9.51641 2.24837 9.05608C3.13457 8.59584 4.11851 8.35547 5.11712 8.35547C6.11572 8.35547 7.09968 8.59567 7.98592 9.05592C8.87217 9.51608 9.63467 10.1828 10.209 10.9997" stroke="#084892" stroke-width="1.5" stroke-linecap="round" stroke-linejoin="round"/>
<path d="M10.8828 8.35547C11.8815 8.35473 12.8657 8.59469 13.752 9.05493C14.6383 9.51526 15.4007 10.1823 15.9745 10.9997" stroke="#084892" stroke-width="1.5" stroke-linecap="round" stroke-linejoin="round"/>
</svg>
