<svg width="16" height="16" viewBox="0 0 16 16" fill="none" xmlns="http://www.w3.org/2000/svg">
<path d="M13.6 1H2.4C1.6268 1 1 1.6268 1 2.4V5.2C1 5.9732 1.6268 6.6 2.4 6.6H13.6C14.3732 6.6 15 5.9732 15 5.2V2.4C15 1.6268 14.3732 1 13.6 1Z" stroke="#084892" stroke-width="1.5" stroke-linecap="round" stroke-linejoin="round"/>
<path d="M13.6 9.40015H2.4C1.6268 9.40015 1 10.0269 1 10.8001V13.6001C1 14.3733 1.6268 15.0001 2.4 15.0001H13.6C14.3732 15.0001 15 14.3733 15 13.6001V10.8001C15 10.0269 14.3732 9.40015 13.6 9.40015Z" stroke="#084892" stroke-width="1.5" stroke-linecap="round" stroke-linejoin="round"/>
<path d="M3.7998 3.7998H3.80925" stroke="#084892" stroke-width="1.5" stroke-linecap="round" stroke-linejoin="round"/>
<path d="M3.7998 12.1997H3.80925" stroke="#084892" stroke-width="1.5" stroke-linecap="round" stroke-linejoin="round"/>
</svg>
