<svg width="20" height="20" viewBox="0 0 20 20" fill="none" xmlns="http://www.w3.org/2000/svg">
<path d="M8.18994 10.906C8.57864 11.4262 9.07455 11.8566 9.64404 12.168C10.2135 12.4795 10.8433 12.6647 11.4905 12.7111C12.1378 12.7575 12.7875 12.664 13.3955 12.437C14.0035 12.21 14.5557 11.8547 15.0144 11.3953L17.7298 8.67721C18.5541 7.82282 19.0103 6.67851 19 5.49073C18.9897 4.30295 18.5137 3.16675 17.6746 2.32683C16.8356 1.48692 15.7005 1.01049 14.5139 1.00017C13.3273 0.98985 12.1842 1.44646 11.3307 2.27165L9.77388 3.82094" stroke="#084892" stroke-width="2" stroke-linecap="round" stroke-linejoin="round"/>
<path d="M11.8102 9.09401C11.4215 8.57384 10.9256 8.14343 10.3561 7.83198C9.78661 7.52053 9.15687 7.33532 8.50959 7.28892C7.8623 7.24251 7.21263 7.336 6.60461 7.56304C5.9966 7.79007 5.44448 8.14534 4.98569 8.60476L2.27037 11.3228C1.44601 12.1772 0.98986 13.3215 1.00017 14.5093C1.01048 15.6971 1.48643 16.8333 2.3255 17.6732C3.16457 18.5131 4.29963 18.9895 5.48621 18.9999C6.67279 19.0102 7.81595 18.5536 8.66947 17.7284L10.2172 16.1791" stroke="#084892" stroke-width="2" stroke-linecap="round" stroke-linejoin="round"/>
</svg>
