<svg width="16" height="16" viewBox="0 0 16 16" fill="none" xmlns="http://www.w3.org/2000/svg">
<path d="M13.25 4.39966L12.0833 4.39966L2.75 4.39966" stroke="#DDDDDD" stroke-width="1.5" stroke-linecap="round" stroke-linejoin="round"/>
<path d="M10.3331 4.4L10.3331 3.2C10.3331 2.88174 10.2102 2.57652 9.99137 2.35147C9.77258 2.12643 9.47584 2 9.16642 2L6.83308 2C6.52366 2 6.22692 2.12643 6.00812 2.35147C5.78933 2.57651 5.66642 2.88174 5.66642 3.2L5.66642 4.4M3.91642 4.4L3.91641 12.8C3.91641 13.1183 4.03933 13.4235 4.25812 13.6485C4.47692 13.8736 4.77366 14 5.08308 14L10.9164 14C11.2258 14 11.5226 13.8736 11.7414 13.6485C11.9602 13.4235 12.0831 13.1183 12.0831 12.8L12.0831 4.4L3.91642 4.4Z" stroke="#DDDDDD" stroke-width="1.5" stroke-linecap="round" stroke-linejoin="round"/>
<path d="M9.16692 7.39966L9.16692 10.9997" stroke="#DDDDDD" stroke-width="1.5" stroke-linecap="round" stroke-linejoin="round"/>
<path d="M6.83308 7.39966L6.83308 10.9997" stroke="#DDDDDD" stroke-width="1.5" stroke-linecap="round" stroke-linejoin="round"/>
</svg>
