<svg width="40" height="40" viewBox="0 0 40 40" fill="none" xmlns="http://www.w3.org/2000/svg">
<path d="M20.0006 26.75C18.9007 26.75 18.0044 27.6461 18.0044 28.7474C18.0044 29.8461 18.9004 30.7425 20.0006 30.7425C21.1005 30.7425 21.9956 29.8465 21.9956 28.7475L20.0006 26.75ZM20.0006 26.75C21.1002 26.75 21.9955 27.6455 21.9956 28.7474L20.0006 26.75ZM0.5 20C0.5 9.23108 9.23083 0.5 19.9994 0.5C30.769 0.5 39.4987 9.23106 39.4987 20C39.4987 30.7714 30.7692 39.5 19.9994 39.5C9.23081 39.5 0.5 30.7702 0.5 20ZM3.24994 20C3.24994 29.2511 10.7485 36.7499 19.9994 36.7499C29.2502 36.7499 36.7488 29.2511 36.7488 20C36.7488 10.7489 29.2502 3.25006 19.9994 3.25006C10.7485 3.25006 3.24994 10.7489 3.24994 20ZM17.9844 10.7262C17.9844 10.2898 18.1731 9.94535 18.5055 9.69579C18.8496 9.4375 19.3657 9.27121 20.0006 9.27121C20.6118 9.27121 21.1299 9.44155 21.4824 9.7064C21.8264 9.96487 22.0168 10.3123 22.0169 10.7262C22.0169 10.7262 22.0169 10.7263 22.0169 10.7263V21.8012C22.0169 22.2143 21.8266 22.5614 21.4825 22.8199C21.13 23.0846 20.6118 23.255 20.0006 23.255C19.3652 23.255 18.8491 23.0891 18.5052 22.8313C18.1731 22.5823 17.9844 22.2383 17.9844 21.8012V10.7262Z" fill="#F8AF2C" stroke="white"/>
</svg>
