<?xml version="1.0" encoding="utf-8"?>
<!-- Generator: Adobe Illustrator 24.1.2, SVG Export Plug-In . SVG Version: 6.00 Build 0)  -->
<svg version="1.1" id="Layer_1" xmlns="http://www.w3.org/2000/svg" xmlns:xlink="http://www.w3.org/1999/xlink" x="0px" y="0px"
	 viewBox="0 0 315.1 73.2" style="enable-background:new 0 0 315.1 73.2;" xml:space="preserve">
<style type="text/css">
	.st0{fill:#1B4690;}
	.st1{fill:#5B59A7;}
</style>
<g>
	<path class="st0" d="M30.1,33.6c0.4,0,0.7,0.1,1,0.4l2.7,2.9c-1.5,1.8-3.3,3.2-5.5,4.2c-2.2,1-4.8,1.5-7.8,1.5
		c-2.7,0-5.2-0.5-7.3-1.4c-2.2-0.9-4-2.2-5.6-3.9c-1.5-1.7-2.7-3.6-3.5-5.9c-0.8-2.3-1.2-4.8-1.2-7.5c0-2.7,0.4-5.3,1.3-7.5
		c0.9-2.3,2.1-4.3,3.7-5.9c1.6-1.7,3.5-2.9,5.7-3.9c2.2-0.9,4.7-1.4,7.3-1.4c2.7,0,5,0.4,7.1,1.3s3.8,2,5.3,3.4L31,13.1
		c-0.1,0.2-0.3,0.4-0.5,0.5c-0.2,0.2-0.5,0.2-0.9,0.2c-0.3,0-0.5-0.1-0.8-0.2c-0.3-0.1-0.6-0.3-0.9-0.5c-0.3-0.2-0.7-0.4-1.1-0.7
		c-0.4-0.3-0.9-0.5-1.5-0.7s-1.2-0.4-1.9-0.5c-0.7-0.1-1.6-0.2-2.5-0.2c-1.6,0-3.1,0.3-4.5,0.9c-1.4,0.6-2.5,1.4-3.5,2.5
		s-1.7,2.5-2.3,4c-0.5,1.6-0.8,3.4-0.8,5.4c0,2.1,0.3,3.9,0.9,5.5c0.6,1.6,1.4,3,2.4,4c1,1.1,2.2,1.9,3.5,2.5
		c1.3,0.6,2.8,0.9,4.3,0.9c0.9,0,1.8-0.1,2.5-0.2c0.8-0.1,1.4-0.3,2.1-0.5c0.6-0.2,1.2-0.5,1.8-0.8c0.6-0.3,1.1-0.8,1.7-1.3
		c0.2-0.2,0.3-0.3,0.5-0.4C29.7,33.6,29.9,33.6,30.1,33.6z"/>
	<path class="st0" d="M59.5,16.3v25.9h-3.8c-0.8,0-1.3-0.4-1.6-1.1L53.7,39c-1.1,1.1-2.2,2-3.5,2.6c-1.3,0.7-2.8,1-4.5,1
		c-1.4,0-2.7-0.2-3.8-0.7c-1.1-0.5-2-1.2-2.7-2c-0.7-0.9-1.3-1.9-1.7-3.1c-0.4-1.2-0.6-2.5-0.6-4V16.3h6.2v16.5
		c0,1.6,0.4,2.8,1.1,3.7s1.8,1.3,3.3,1.3c1.1,0,2.1-0.2,3-0.7c0.9-0.5,1.8-1.1,2.7-2V16.3H59.5z"/>
	<path class="st0" d="M71.6,20.8c0.8-1.6,1.8-2.8,2.9-3.7c1.1-0.9,2.4-1.3,3.9-1.3c1.2,0,2.2,0.3,2.9,0.8l-0.4,4.7
		c-0.1,0.3-0.2,0.5-0.4,0.6s-0.4,0.2-0.6,0.2c-0.3,0-0.6,0-1.1-0.1c-0.5-0.1-1-0.1-1.5-0.1c-0.7,0-1.3,0.1-1.8,0.3
		c-0.5,0.2-1,0.5-1.5,0.9s-0.8,0.8-1.1,1.4c-0.3,0.5-0.6,1.2-0.9,1.8v16h-6.2V16.3h3.7c0.6,0,1.1,0.1,1.3,0.3s0.4,0.6,0.5,1.2
		L71.6,20.8z"/>
	<path class="st0" d="M90.4,20.8c0.8-1.6,1.8-2.8,2.9-3.7c1.1-0.9,2.4-1.3,3.9-1.3c1.2,0,2.2,0.3,2.9,0.8l-0.4,4.7
		c-0.1,0.3-0.2,0.5-0.4,0.6s-0.4,0.2-0.6,0.2c-0.3,0-0.6,0-1.1-0.1c-0.5-0.1-1-0.1-1.5-0.1c-0.7,0-1.3,0.1-1.8,0.3
		c-0.5,0.2-1,0.5-1.5,0.9s-0.8,0.8-1.1,1.4c-0.3,0.5-0.6,1.2-0.9,1.8v16h-6.2V16.3h3.7c0.6,0,1.1,0.1,1.3,0.3s0.4,0.6,0.5,1.2
		L90.4,20.8z"/>
	<path class="st0" d="M110.7,8.7c0,0.5-0.1,1-0.3,1.5c-0.2,0.5-0.5,0.9-0.9,1.2c-0.4,0.4-0.8,0.6-1.3,0.8c-0.5,0.2-1,0.3-1.6,0.3
		c-0.5,0-1-0.1-1.5-0.3c-0.5-0.2-0.9-0.5-1.3-0.8c-0.4-0.4-0.6-0.8-0.8-1.2c-0.2-0.5-0.3-1-0.3-1.5c0-0.6,0.1-1.1,0.3-1.6
		c0.2-0.5,0.5-0.9,0.8-1.3c0.4-0.4,0.8-0.6,1.3-0.8c0.5-0.2,1-0.3,1.5-0.3c0.6,0,1.1,0.1,1.6,0.3c0.5,0.2,0.9,0.5,1.3,0.8
		c0.4,0.4,0.7,0.8,0.9,1.3C110.6,7.6,110.7,8.1,110.7,8.7z M109.9,16.3v25.9h-6.3V16.3H109.9z"/>
	<path class="st0" d="M122.5,4.6v21.5h1.2c0.4,0,0.8-0.1,1-0.2c0.2-0.1,0.5-0.3,0.7-0.7l6.4-8c0.3-0.4,0.6-0.6,0.9-0.8
		c0.3-0.2,0.8-0.3,1.3-0.3h5.7l-8.1,9.6c-0.6,0.8-1.2,1.3-1.9,1.7c0.4,0.3,0.7,0.5,0.9,0.9c0.3,0.3,0.5,0.7,0.8,1.1l8.6,12.6h-5.6
		c-0.5,0-0.9-0.1-1.3-0.2c-0.4-0.2-0.6-0.5-0.9-0.9l-6.6-9.8c-0.2-0.4-0.5-0.6-0.7-0.8c-0.3-0.1-0.6-0.2-1.1-0.2h-1.4v11.9h-6.2V4.6
		H122.5z"/>
	<path class="st0" d="M150.6,8.7c0,0.5-0.1,1-0.3,1.5c-0.2,0.5-0.5,0.9-0.9,1.2c-0.4,0.4-0.8,0.6-1.3,0.8c-0.5,0.2-1,0.3-1.6,0.3
		c-0.5,0-1-0.1-1.5-0.3c-0.5-0.2-0.9-0.5-1.3-0.8c-0.4-0.4-0.6-0.8-0.8-1.2c-0.2-0.5-0.3-1-0.3-1.5c0-0.6,0.1-1.1,0.3-1.6
		c0.2-0.5,0.5-0.9,0.8-1.3c0.4-0.4,0.8-0.6,1.3-0.8c0.5-0.2,1-0.3,1.5-0.3c0.6,0,1.1,0.1,1.6,0.3c0.5,0.2,0.9,0.5,1.3,0.8
		c0.4,0.4,0.7,0.8,0.9,1.3C150.5,7.6,150.6,8.1,150.6,8.7z M149.7,16.3v25.9h-6.3V16.3H149.7z"/>
</g>
<g>
	<path class="st1" d="M138.2,51.8c1.1,0.8,1.9,1.9,2.3,3.4H139c-0.4-1-1-1.8-1.9-2.4c-0.9-0.6-1.9-0.9-3.2-0.9c-1,0-1.9,0.2-2.7,0.7
		s-1.4,1.2-1.9,2.1c-0.5,0.9-0.7,1.9-0.7,3.1c0,1.2,0.2,2.2,0.7,3.1c0.5,0.9,1.1,1.6,1.9,2.1s1.7,0.7,2.7,0.7c1.3,0,2.4-0.3,3.2-0.9
		c0.9-0.6,1.5-1.4,1.9-2.4h1.5c-0.5,1.4-1.2,2.6-2.3,3.4c-1.1,0.8-2.5,1.2-4.2,1.2c-1.3,0-2.4-0.3-3.5-0.9c-1-0.6-1.8-1.5-2.4-2.6
		c-0.6-1.1-0.8-2.3-0.8-3.7c0-1.4,0.3-2.6,0.8-3.7c0.6-1.1,1.3-1.9,2.4-2.6c1-0.6,2.2-0.9,3.5-0.9C135.6,50.6,137,51,138.2,51.8z"/>
	<path class="st1" d="M146.8,54.3c0.7-0.4,1.6-0.6,2.6-0.6v1.5h-0.5c-1.1,0-1.9,0.3-2.6,0.9c-0.7,0.6-1,1.5-1,2.8v6h-1.4V53.9h1.4
		v2.3C145.6,55.4,146.1,54.7,146.8,54.3z"/>
	<path class="st1" d="M159.3,63c0.7-0.5,1.1-1.2,1.2-2h1.5c-0.2,1.2-0.8,2.1-1.7,2.8c-0.9,0.7-2.1,1.1-3.4,1.1c-1,0-2-0.2-2.8-0.7
		c-0.8-0.4-1.4-1.1-1.9-1.9c-0.5-0.8-0.7-1.8-0.7-3c0-1.1,0.2-2.1,0.7-3c0.5-0.8,1.1-1.5,1.9-1.9c0.8-0.4,1.7-0.7,2.8-0.7
		c1.1,0,2,0.2,2.8,0.7c0.8,0.4,1.4,1,1.8,1.8c0.4,0.7,0.6,1.6,0.6,2.4c0,0.4,0,0.7-0.1,1h-9c0,0.9,0.2,1.7,0.6,2.3
		c0.4,0.6,0.8,1.1,1.4,1.4c0.6,0.3,1.2,0.4,1.9,0.4C157.8,63.8,158.6,63.5,159.3,63z M154.9,55.3c-0.6,0.3-1.1,0.7-1.4,1.4
		c-0.4,0.6-0.6,1.4-0.6,2.3h7.7c0.1-0.9-0.1-1.6-0.4-2.3c-0.3-0.6-0.8-1.1-1.4-1.4c-0.6-0.3-1.2-0.4-1.9-0.4
		C156.2,54.9,155.5,55,154.9,55.3z"/>
	<path class="st1" d="M172.8,54.6c0.8,0.6,1.3,1.3,1.6,2.3v-3h1.4v10.9h-1.4v-3c-0.3,0.9-0.8,1.7-1.6,2.3c-0.8,0.6-1.7,0.9-2.8,0.9
		c-1,0-1.9-0.2-2.7-0.7c-0.8-0.5-1.4-1.1-1.8-2c-0.4-0.8-0.7-1.8-0.7-3c0-1.1,0.2-2.1,0.7-3c0.4-0.8,1-1.5,1.8-1.9
		c0.8-0.4,1.7-0.7,2.7-0.7C171.1,53.7,172,54,172.8,54.6z M167.4,56.1c-0.7,0.8-1.1,1.8-1.1,3.2s0.4,2.4,1.1,3.2
		c0.7,0.8,1.7,1.2,3,1.2c0.8,0,1.5-0.2,2.1-0.5c0.6-0.4,1.1-0.9,1.5-1.5c0.4-0.7,0.5-1.4,0.5-2.3s-0.2-1.6-0.5-2.3
		c-0.4-0.7-0.8-1.2-1.5-1.5c-0.6-0.4-1.3-0.5-2.1-0.5C169.1,55,168.1,55.4,167.4,56.1z"/>
	<path class="st1" d="M184.6,63.6v1.2h-1.3c-1.1,0-1.8-0.3-2.4-0.8c-0.5-0.5-0.8-1.3-0.8-2.5v-6.4h-1.7v-1.2h1.7v-2.8h1.4v2.8h3v1.2
		h-3v6.4c0,0.8,0.1,1.3,0.4,1.6s0.8,0.4,1.5,0.4H184.6z"/>
	<path class="st1" d="M194.9,63c0.7-0.5,1.1-1.2,1.2-2h1.5c-0.2,1.2-0.8,2.1-1.7,2.8c-0.9,0.7-2.1,1.1-3.4,1.1c-1,0-2-0.2-2.8-0.7
		c-0.8-0.4-1.4-1.1-1.9-1.9c-0.5-0.8-0.7-1.8-0.7-3c0-1.1,0.2-2.1,0.7-3c0.5-0.8,1.1-1.5,1.9-1.9c0.8-0.4,1.7-0.7,2.8-0.7
		c1.1,0,2,0.2,2.8,0.7c0.8,0.4,1.4,1,1.8,1.8c0.4,0.7,0.6,1.6,0.6,2.4c0,0.4,0,0.7-0.1,1h-9c0,0.9,0.2,1.7,0.6,2.3
		c0.4,0.6,0.8,1.1,1.4,1.4c0.6,0.3,1.2,0.4,1.9,0.4C193.4,63.8,194.2,63.5,194.9,63z M190.6,55.3c-0.6,0.3-1.1,0.7-1.4,1.4
		c-0.4,0.6-0.6,1.4-0.6,2.3h7.7c0.1-0.9-0.1-1.6-0.4-2.3c-0.3-0.6-0.8-1.1-1.4-1.4c-0.6-0.3-1.2-0.4-1.9-0.4
		C191.8,54.9,191.1,55,190.6,55.3z"/>
	<path class="st1" d="M211.9,63.6v1.2h-1.3c-1.1,0-1.8-0.3-2.4-0.8c-0.5-0.5-0.8-1.3-0.8-2.5v-6.4h-1.7v-1.2h1.7v-2.8h1.4v2.8h3v1.2
		h-3v6.4c0,0.8,0.1,1.3,0.4,1.6s0.8,0.4,1.5,0.4H211.9z"/>
	<path class="st1" d="M222.8,54.4c0.8,0.4,1.5,1.1,1.9,1.9c0.5,0.8,0.7,1.8,0.7,3c0,1.1-0.2,2.1-0.7,3s-1.1,1.5-1.9,1.9
		c-0.8,0.5-1.8,0.7-2.8,0.7s-2-0.2-2.8-0.7c-0.8-0.5-1.5-1.1-2-2c-0.5-0.8-0.7-1.8-0.7-3c0-1.1,0.2-2.1,0.7-3c0.5-0.8,1.1-1.5,2-1.9
		c0.8-0.4,1.8-0.7,2.8-0.7S221.9,54,222.8,54.4z M218,55.4c-0.6,0.3-1.1,0.8-1.5,1.5c-0.4,0.7-0.6,1.5-0.6,2.4s0.2,1.8,0.6,2.4
		c0.4,0.7,0.9,1.1,1.5,1.5c0.6,0.3,1.3,0.5,2,0.5c0.7,0,1.4-0.2,2-0.5c0.6-0.3,1.1-0.8,1.5-1.5c0.4-0.7,0.6-1.5,0.6-2.4
		s-0.2-1.8-0.6-2.4c-0.4-0.7-0.9-1.1-1.5-1.5c-0.6-0.3-1.3-0.5-2-0.5C219.3,55,218.6,55.1,218,55.4z"/>
	<path class="st1" d="M236.1,51.8v5.3h5.5v1.1h-5.5v5.4h6.1v1.2h-7.5V50.7h7.5v1.1H236.1z"/>
	<path class="st1" d="M254,54.9c0.8,0.8,1.2,2,1.2,3.6v6.4h-1.4v-6.3c0-1.2-0.3-2.1-0.9-2.7c-0.6-0.6-1.4-0.9-2.5-0.9
		c-1.1,0-2,0.4-2.6,1c-0.6,0.7-1,1.7-1,3.1v5.8h-1.4V53.9h1.4v2.7c0.3-0.9,0.8-1.6,1.5-2.1s1.6-0.7,2.5-0.7
		C252.2,53.7,253.2,54.1,254,54.9z"/>
	<path class="st1" d="M266.4,54.6c0.8,0.6,1.3,1.3,1.6,2.3v-3h1.4v11.2c0,1-0.2,1.9-0.6,2.7c-0.4,0.8-1,1.4-1.8,1.8
		c-0.8,0.4-1.6,0.6-2.6,0.6c-1.4,0-2.6-0.3-3.5-1c-0.9-0.7-1.5-1.6-1.8-2.8h1.4c0.2,0.8,0.7,1.4,1.3,1.9s1.5,0.7,2.5,0.7
		c0.7,0,1.3-0.1,1.9-0.5c0.6-0.3,1-0.7,1.3-1.3c0.3-0.6,0.5-1.3,0.5-2.1v-3.3c-0.3,0.9-0.8,1.7-1.6,2.3c-0.8,0.6-1.7,0.9-2.8,0.9
		c-1,0-1.9-0.2-2.7-0.7c-0.8-0.5-1.4-1.1-1.8-2c-0.4-0.8-0.7-1.8-0.7-3c0-1.1,0.2-2.1,0.7-3c0.4-0.8,1-1.5,1.8-1.9
		c0.8-0.4,1.7-0.7,2.7-0.7C264.7,53.7,265.6,54,266.4,54.6z M261,56.1c-0.7,0.8-1.1,1.8-1.1,3.2s0.4,2.4,1.1,3.2
		c0.7,0.8,1.7,1.2,3,1.2c0.8,0,1.5-0.2,2.1-0.5c0.6-0.4,1.1-0.9,1.5-1.5c0.4-0.7,0.5-1.4,0.5-2.3s-0.2-1.6-0.5-2.3
		c-0.4-0.7-0.8-1.2-1.5-1.5c-0.6-0.4-1.3-0.5-2.1-0.5C262.7,55,261.7,55.4,261,56.1z"/>
	<path class="st1" d="M280.7,54.6c0.8,0.6,1.3,1.3,1.6,2.3v-3h1.4v10.9h-1.4v-3c-0.3,0.9-0.8,1.7-1.6,2.3c-0.8,0.6-1.7,0.9-2.8,0.9
		c-1,0-1.9-0.2-2.7-0.7c-0.8-0.5-1.4-1.1-1.8-2c-0.4-0.8-0.7-1.8-0.7-3c0-1.1,0.2-2.1,0.7-3c0.4-0.8,1-1.5,1.8-1.9
		c0.8-0.4,1.7-0.7,2.7-0.7C278.9,53.7,279.9,54,280.7,54.6z M275.2,56.1c-0.7,0.8-1.1,1.8-1.1,3.2s0.4,2.4,1.1,3.2
		c0.7,0.8,1.7,1.2,3,1.2c0.8,0,1.5-0.2,2.1-0.5c0.6-0.4,1.1-0.9,1.5-1.5c0.4-0.7,0.5-1.4,0.5-2.3s-0.2-1.6-0.5-2.3
		c-0.4-0.7-0.8-1.2-1.5-1.5c-0.6-0.4-1.3-0.5-2.1-0.5C277,55,276,55.4,275.2,56.1z"/>
	<path class="st1" d="M294.9,54.6c0.8,0.6,1.3,1.3,1.6,2.3v-3h1.4v11.2c0,1-0.2,1.9-0.6,2.7c-0.4,0.8-1,1.4-1.8,1.8
		c-0.8,0.4-1.6,0.6-2.6,0.6c-1.4,0-2.6-0.3-3.5-1c-0.9-0.7-1.5-1.6-1.8-2.8h1.4c0.2,0.8,0.7,1.4,1.3,1.9s1.5,0.7,2.5,0.7
		c0.7,0,1.3-0.1,1.9-0.5c0.6-0.3,1-0.7,1.3-1.3c0.3-0.6,0.5-1.3,0.5-2.1v-3.3c-0.3,0.9-0.8,1.7-1.6,2.3c-0.8,0.6-1.7,0.9-2.8,0.9
		c-1,0-1.9-0.2-2.7-0.7c-0.8-0.5-1.4-1.1-1.8-2c-0.4-0.8-0.7-1.8-0.7-3c0-1.1,0.2-2.1,0.7-3c0.4-0.8,1-1.5,1.8-1.9
		c0.8-0.4,1.7-0.7,2.7-0.7C293.2,53.7,294.1,54,294.9,54.6z M289.5,56.1c-0.7,0.8-1.1,1.8-1.1,3.2s0.4,2.4,1.1,3.2
		c0.7,0.8,1.7,1.2,3,1.2c0.8,0,1.5-0.2,2.1-0.5c0.6-0.4,1.1-0.9,1.5-1.5c0.4-0.7,0.5-1.4,0.5-2.3s-0.2-1.6-0.5-2.3
		c-0.4-0.7-0.8-1.2-1.5-1.5c-0.6-0.4-1.3-0.5-2.1-0.5C291.2,55,290.2,55.4,289.5,56.1z"/>
	<path class="st1" d="M309,63c0.7-0.5,1.1-1.2,1.2-2h1.5c-0.2,1.2-0.8,2.1-1.7,2.8c-0.9,0.7-2.1,1.1-3.4,1.1c-1,0-2-0.2-2.8-0.7
		c-0.8-0.4-1.4-1.1-1.9-1.9c-0.5-0.8-0.7-1.8-0.7-3c0-1.1,0.2-2.1,0.7-3c0.5-0.8,1.1-1.5,1.9-1.9c0.8-0.4,1.7-0.7,2.8-0.7
		c1.1,0,2,0.2,2.8,0.7c0.8,0.4,1.4,1,1.8,1.8c0.4,0.7,0.6,1.6,0.6,2.4c0,0.4,0,0.7-0.1,1h-9c0,0.9,0.2,1.7,0.6,2.3
		c0.4,0.6,0.8,1.1,1.4,1.4c0.6,0.3,1.2,0.4,1.9,0.4C307.5,63.8,308.3,63.5,309,63z M304.6,55.3c-0.6,0.3-1.1,0.7-1.4,1.4
		c-0.4,0.6-0.6,1.4-0.6,2.3h7.7c0.1-0.9-0.1-1.6-0.4-2.3c-0.3-0.6-0.8-1.1-1.4-1.4c-0.6-0.3-1.2-0.4-1.9-0.4
		C305.9,54.9,305.2,55,304.6,55.3z"/>
</g>
<g>
	<path class="st1" d="M175.6,37.7c-0.8,1.4-1.9,2.6-3.5,3.5c-1.6,0.9-3.6,1.3-5.9,1.3c-2.3,0-4.3-0.4-6.1-1.3s-3.2-2-4.3-3.5
		c-1.1-1.5-1.7-3.1-1.8-4.9h3.7c0.1,1,0.5,2.1,1.2,3.1c0.6,1,1.6,1.9,2.8,2.6c1.2,0.7,2.7,1,4.4,1c2.3,0,4-0.6,5.2-1.8
		c1.2-1.2,1.8-2.7,1.8-4.6c0-1.6-0.4-2.9-1.2-3.9c-0.8-1-1.8-1.8-2.9-2.3c-1.2-0.5-2.8-1.1-4.8-1.8c-2.2-0.7-4-1.4-5.4-2
		c-1.4-0.7-2.5-1.6-3.5-2.9c-0.9-1.3-1.4-3-1.4-5.1c0-2.7,0.9-4.9,2.8-6.6c1.9-1.7,4.5-2.5,7.8-2.5c3.4,0,6,0.8,8,2.5
		c2,1.7,3.1,3.7,3.5,6.2h-3.8c-0.3-1.5-1.1-2.9-2.4-4c-1.3-1.2-3.1-1.8-5.3-1.8c-2.1,0-3.8,0.5-5,1.6c-1.2,1.1-1.9,2.6-1.9,4.5
		c0,1.5,0.4,2.7,1.2,3.7c0.8,0.9,1.7,1.7,2.9,2.2c1.1,0.5,2.7,1.1,4.6,1.7c2.3,0.7,4.1,1.4,5.5,2.1c1.4,0.7,2.6,1.7,3.6,3
		c1,1.3,1.5,3.1,1.5,5.4C176.7,34.7,176.3,36.3,175.6,37.7z"/>
	<path class="st1" d="M197.2,39v3.1H194c-2.7,0-4.7-0.6-6-1.9c-1.3-1.3-2-3.4-2-6.4V17.7h-4.2v-3.1h4.2v-7h3.6v7h7.6v3.1h-7.6v16.3
		c0,2,0.4,3.3,1.1,4c0.7,0.7,2,1.1,3.7,1.1H197.2z"/>
	<path class="st1" d="M228.4,14.6v27.6h-3.5v-6.8c-0.7,2.4-2,4.2-3.8,5.5c-1.9,1.2-4,1.9-6.4,1.9c-3.2,0-5.9-1-7.9-3.1c-2-2-3-5-3-9
		V14.6h3.5v15.8c0,3,0.8,5.4,2.3,7c1.5,1.6,3.6,2.4,6.2,2.4c2.8,0,5-0.9,6.6-2.7c1.6-1.8,2.5-4.4,2.5-7.8V14.6H228.4z"/>
	<path class="st1" d="M256.4,16.4c2,1.5,3.3,3.4,4,5.8V4.8h3.5v37.4h-3.5v-7.6c-0.7,2.4-2,4.3-4,5.8c-2,1.5-4.4,2.2-7.2,2.2
		c-2.5,0-4.7-0.6-6.7-1.7c-2-1.1-3.5-2.8-4.6-4.9c-1.1-2.1-1.6-4.6-1.6-7.5c0-2.9,0.5-5.4,1.6-7.6c1.1-2.1,2.6-3.8,4.6-4.9
		c2-1.1,4.2-1.7,6.7-1.7C252.1,14.2,254.5,14.9,256.4,16.4z M242.7,20.3c-1.9,2-2.8,4.7-2.8,8.1c0,3.4,0.9,6.1,2.8,8.1
		c1.9,2,4.4,3,7.5,3c2,0,3.7-0.5,5.3-1.4c1.6-0.9,2.8-2.2,3.7-3.9s1.3-3.6,1.3-5.8c0-2.2-0.4-4.1-1.3-5.8s-2.1-3-3.7-3.9
		c-1.6-0.9-3.3-1.4-5.3-1.4C247.1,17.3,244.6,18.3,242.7,20.3z"/>
	<path class="st1" d="M273.1,4.6c0.5-0.4,1.1-0.7,1.9-0.7c0.8,0,1.4,0.2,1.9,0.7c0.5,0.4,0.7,1,0.7,1.8c0,0.7-0.2,1.3-0.7,1.7
		c-0.5,0.4-1.1,0.7-1.9,0.7c-0.8,0-1.4-0.2-1.9-0.7c-0.5-0.4-0.7-1-0.7-1.7C272.4,5.6,272.6,5,273.1,4.6z M276.8,14.6v27.6h-3.6
		V14.6H276.8z"/>
	<path class="st1" d="M305.5,15.9c2.1,1.1,3.7,2.8,4.9,4.9c1.2,2.1,1.8,4.7,1.8,7.6c0,2.9-0.6,5.4-1.8,7.5c-1.2,2.1-2.8,3.8-4.9,4.9
		c-2.1,1.1-4.4,1.7-7.1,1.7c-2.6,0-5-0.6-7.1-1.7c-2.1-1.1-3.7-2.8-4.9-4.9c-1.2-2.1-1.8-4.6-1.8-7.5c0-2.9,0.6-5.4,1.8-7.6
		c1.2-2.1,2.8-3.8,4.9-4.9c2.1-1.1,4.5-1.7,7.1-1.7C301.1,14.2,303.5,14.8,305.5,15.9z M293.4,18.5c-1.6,0.8-2.8,2-3.7,3.7
		c-0.9,1.7-1.4,3.7-1.4,6.1s0.5,4.5,1.4,6.1c0.9,1.7,2.2,2.9,3.7,3.7s3.2,1.2,5.1,1.2c1.8,0,3.4-0.4,5-1.2c1.5-0.8,2.8-2,3.7-3.7
		c0.9-1.7,1.4-3.7,1.4-6.1s-0.5-4.5-1.4-6.1c-0.9-1.7-2.2-2.9-3.7-3.7c-1.5-0.8-3.2-1.2-5-1.2C296.7,17.3,295,17.7,293.4,18.5z"/>
</g>
</svg>
