<svg xmlns="http://www.w3.org/2000/svg" width="171" height="119.7" viewBox="0 0 171 119.7"><defs><style>.a{fill:#fff;}</style></defs><g transform="translate(0 -72)"><g transform="translate(0 72)"><path class="a" d="M156.75,72H14.25A14.267,14.267,0,0,0,0,86.25v91.2A14.267,14.267,0,0,0,14.25,191.7h142.5a13.191,13.191,0,0,0,2.385-.208A14.21,14.21,0,0,0,171,177.45V86.25A14.267,14.267,0,0,0,156.75,72ZM14.25,186a8.55,8.55,0,0,1-8.516-7.8L62.557,141.05,120.344,186Zm151.05-8.55a8.53,8.53,0,0,1-7.154,8.427,7.746,7.746,0,0,1-1.4.123H129.627l-37.76-29.386,33.767-27,39.666,23.8Zm0-30.683-38.432-23.059a2.85,2.85,0,0,0-3.249.217l-36.386,29.1L64.447,135.3a2.85,2.85,0,0,0-3.306-.137L5.7,171.414V86.25a8.55,8.55,0,0,1,8.55-8.55h142.5a8.55,8.55,0,0,1,8.55,8.55Z" transform="translate(0 -72)"/><path class="a" d="M209.1,120a17.1,17.1,0,1,0,17.1,17.1A17.1,17.1,0,0,0,209.1,120Zm0,28.5a11.4,11.4,0,1,1,11.4-11.4A11.4,11.4,0,0,1,209.1,148.5Z" transform="translate(-123.6 -102.9)"/></g></g></svg>