<svg xmlns="http://www.w3.org/2000/svg" width="23.001" height="23.002" viewBox="0 0 23.001 23.002"><defs><style>.a{fill:#fff;}</style></defs><path class="a" d="M23,10.7,19.31,8.85,23,7A.9.9,0,0,0,23,5.4L12.4.094a.9.9,0,0,0-.8,0L1,5.4A.9.9,0,0,0,1,7L4.689,8.85,1,10.7A.9.9,0,0,0,1,12.3l3.694,1.847L1,16a.9.9,0,0,0,0,1.607l10.6,5.3a.9.9,0,0,0,.8,0l10.6-5.3A.9.9,0,0,0,23,16L19.31,14.151,23,12.3A.9.9,0,0,0,23,10.7ZM12,1.9l8.593,4.3L12,10.5,3.406,6.2Zm8.593,14.9L12,21.1,3.406,16.8,6.7,15.156l4.9,2.45a.9.9,0,0,0,.8,0l4.9-2.45ZM12,15.8,3.406,11.5,6.7,9.855l4.9,2.45a.9.9,0,0,0,.8,0l4.9-2.45L20.593,11.5Zm0,0" transform="translate(-0.499 0)"/></svg>