<svg width="25" height="18" viewBox="0 0 25 18" fill="none" xmlns="http://www.w3.org/2000/svg">
<path d="M24.4792 14.2067H22.9167V2.74839C22.9167 1.59941 21.9823 0.665039 20.8333 0.665039H4.16665C3.01768 0.665039 2.0833 1.59937 2.0833 2.74839V14.2067H0.520801C0.232959 14.2067 0 14.4396 0 14.7275V15.2484C0 16.3974 0.934326 17.3317 2.08335 17.3317H22.9167C24.0657 17.3317 25 16.3974 25 15.2484V14.7275C25 14.4396 24.767 14.2067 24.4792 14.2067ZM3.125 2.74839C3.125 2.17417 3.59243 1.70674 4.16665 1.70674H20.8333C21.4075 1.70674 21.875 2.17417 21.875 2.74839V14.2067H15.1042H9.89585H3.125V2.74839ZM22.9167 16.29H2.08335C1.50913 16.29 1.0417 15.8226 1.0417 15.2484H2.6042H9.68018L10.0484 15.6166C10.1461 15.7143 10.2783 15.7692 10.4167 15.7692H14.5833C14.7217 15.7692 14.854 15.7143 14.9516 15.6166L15.3198 15.2484H22.3958H23.9583C23.9583 15.8226 23.4909 16.29 22.9167 16.29Z" fill="#515151"/>
</svg>
