<svg xmlns="http://www.w3.org/2000/svg" width="18.276" height="13.707" viewBox="0 0 18.276 13.707"><defs><style>.a{fill:#d6d6d6;}</style></defs><path class="a" d="M67.046,65.523A1.523,1.523,0,1,1,65.523,64,1.523,1.523,0,0,1,67.046,65.523Zm0,0" transform="translate(-61.715 -61.716)"/><path class="a" d="M15.991,0H2.284A2.287,2.287,0,0,0,0,2.284v9.138c0,.043.011.083.013.126a.562.562,0,0,0,.027.27,2.283,2.283,0,0,0,2.244,1.888H15.991a2.287,2.287,0,0,0,2.284-2.284V2.284A2.287,2.287,0,0,0,15.991,0ZM2.284,1.523H15.991a.763.763,0,0,1,.761.761V8.33L12.747,4.324a1.336,1.336,0,0,0-1.888,0L7.234,7.949l-.96-.959a1.336,1.336,0,0,0-1.888,0L1.523,9.853V2.284a.763.763,0,0,1,.761-.761Zm0,0"/></svg>